<svg id="SvgjsSvg5322" width="550" height="550" xmlns="http://www.w3.org/2000/svg" version="1.1"
    xmlns:xlink="http://www.w3.org/1999/xlink" xmlns:svgjs="http://svgjs.com/svgjs">
    <defs id="SvgjsDefs5323"></defs>
    <g id="SvgjsG5324">
        <svg xmlns="http://www.w3.org/2000/svg" enable-background="new 0 0 2000 2000"
            viewBox="0 0 2000 2000" width="550" height="550">
            <!-- <path fill="#000"
                d="M795.731,1726.936c-59.832-44.517-118.877-93.728-154.722-159.124		c-54.101-98.704-47.023-222.008-6.404-326.981c26.901-69.52,67.933-135.372,75.346-209.546
		c8.042-80.469-24.502-156.921-52.922-230.28c-12.868-33.216-17.883-65.406-27.997-98.607
		c-12.44-40.834-25.511-80.98-29.617-123.742c-2.926-30.48-1.644-61.281,2.462-91.625c8.092-59.799,27.903-119.326,66.006-166.118
		c50.24-61.695,130.741-96.437,210.276-94.345c161.898,4.258,264.804,160.647,297.659,304.93
		c10.525,46.219,15.109,93.737,27.738,139.426c20.524,74.251,73.759,136.151,119.652,196.239
		c108.547,142.122,177.477,372.952,68.007,533.353c-40.096,58.751-110.526,91.032-136.415,160.754
		c-15.969,43.005-11.143,91.52-26.743,134.66c-20.189,55.827-73.229,95.421-130.513,111.001
		C986.835,1837.041,883.649,1792.351,795.731,1726.936z"
                class="colorfce5eb svgShape"></path> -->
            <path fill="#766782"
                d="M817.764,1862.99c-5.987,6.293-12.916,12.793,116.738,14.086
		c148.333,1.48,160.28-5.866,145.137-12.987C1064.497,1856.967,823.621,1856.833,817.764,1862.99z"
                class="color766782 svgShape"></path>
            <path fill="#d89b39"
                d="M841.613,1447.345c-8.318,231.955,14.907,421.067,51.874,422.393
			c36.967,1.325,121.276-185.637,129.594-417.592c8.318-231.955-62.505-421.067-99.472-422.393
			C886.642,1028.428,849.931,1215.39,841.613,1447.345z"
                class="colord89b39 svgShape"></path>
            <path fill="#d89b39"
                d="M922.512,1029.721l103.335,0.554l-30.385,840.499l-101.948-0.789c0,0,13.035-364.39,13.153-363.696
			C906.784,1506.983,922.512,1029.721,922.512,1029.721z"
                class="colord89b39 svgShape"></path>
            <ellipse cx="1010.614" cy="1450.435" fill="#efb44b" rx="420.262" ry="66.977"
                transform="rotate(-87.948 1010.524 1450.366)" class="colorefb44b svgShape"></ellipse>
            <ellipse cx="1010.614" cy="1450.435" fill="#efb44b" rx="420.262" ry="66.977"
                transform="rotate(-87.948 1010.524 1450.366)" class="colorefb44b svgShape"></ellipse>
            <ellipse cx="1013.082" cy="1451.661" fill="#d89b39" rx="366.422" ry="50.375"
                transform="rotate(-87.948 1012.993 1451.592)" class="colord89b39 svgShape"></ellipse>
            <path fill="#efb44b"
                d="M1015.357,1093.182c22.994,28.776,35.906,180.682,29.365,363.085
			c-6.307,175.875-28.621,322.173-52.617,356.675c-22.994-28.776-35.906-180.682-29.365-363.085
			C969.046,1273.981,991.36,1127.683,1015.357,1093.182z"
                class="colorefb44b svgShape"></path>
            <path fill="#ffc871"
                d="M976.482,1219.112c0,0-39.258,345.495-5.925,542.451c0,0,17.073,121.95,56.825,19.631
			c0,0-9.1,60.036-36.873,51.896c-27.772-8.14-42.711-155.42-38.926-305.868C955.37,1376.774,976.482,1219.112,976.482,1219.112z"
                class="colorffc871 svgShape"></path>
            <path fill="#efb44b"
                d="M843.556 1498.948c14.22-1.212 76.517-.749 90.631 1.385 3.252.492 2.801 5.439-.52 5.118-14.164-1.368-75.714-1.776-89.939-1.3C840.794 1504.25 840.611 1499.199 843.556 1498.948zM938.009 1627.625c-14.179 1.617-76.484 1.573-90.654-.157-3.264-.399-2.955-5.357.374-5.131 14.198.963 75.754.973 89.958.091C940.619 1622.246 940.946 1627.289 938.009 1627.625zM941.072 1649.934c-14.179 1.617-76.484 1.573-90.654-.156-3.264-.399-2.955-5.357.374-5.131 14.198.963 75.753.974 89.958.091C943.681 1644.555 944.009 1649.599 941.072 1649.934zM944.188 1740.005c-14.179 1.617-76.484 1.573-90.654-.157-3.264-.398-2.955-5.357.374-5.131 14.198.963 75.754.974 89.958.091C946.798 1734.626 947.126 1739.67 944.188 1740.005zM967.918 1842.281c-14.179 1.617-76.484 1.574-90.654-.156-3.264-.398-2.955-5.357.374-5.131 14.198.963 75.753.974 89.958.091C970.528 1836.902 970.855 1841.946 967.918 1842.281zM845.999 1458.585c14.22-1.212 76.517-.749 90.631 1.385 3.251.492 2.801 5.439-.521 5.118-14.164-1.367-75.714-1.776-89.939-1.3C843.237 1463.888 843.053 1458.837 845.999 1458.585zM866.684 1222.526c14.22-1.212 76.517-.749 90.631 1.385 3.252.491 2.801 5.439-.52 5.118-14.165-1.368-75.715-1.777-89.939-1.3C863.922 1227.828 863.738 1222.777 866.684 1222.526zM868.593 1200.088c14.22-1.212 76.517-.749 90.631 1.385 3.252.491 2.801 5.439-.52 5.118-14.164-1.368-75.714-1.776-89.939-1.3C865.831 1205.391 865.647 1200.339 868.593 1200.088zM880.563 1131.719c14.22-1.212 76.517-.749 90.632 1.385 3.251.492 2.801 5.439-.521 5.118-14.164-1.368-75.714-1.777-89.939-1.3C877.801 1137.021 877.618 1131.97 880.563 1131.719zM911.898 1038.671c14.22-1.212 76.517-.748 90.632 1.385 3.251.491 2.801 5.439-.521 5.118-14.164-1.368-75.714-1.777-89.939-1.3C909.136 1043.973 908.952 1038.922 911.898 1038.671z"
                class="colorefb44b svgShape"></path>
            <polygon fill="#1a1a1a"
                points="1020.538 443.849 1079.901 465.285 1050.219 588.132 995.804 588.132"
                class="color1a1a1a svgShape"></polygon>
            <path fill="#4d4d4d"
                d="M1017.24,507.333c4.077,1.528,10.573,19.714,9.901,24.016c-0.111,0.711-0.302,1.434-0.159,2.139
				c0.305,1.494,1.907,2.265,3.039,3.287c2.804,2.533,2.806,6.839,4.066,10.401c0.786,2.221,2.102,4.207,3.248,6.265
				c5.354,9.612,7.006,20.783,8.567,31.674c0,0,1.018,22.802-14.647,64.026c-15.665,41.224-31.443,70.882-33.803,83.272
				c-3.298,17.312-4.122,27.206-4.122,27.208c0,0.001-0.061,0-0.064,0c-0.086,0.001-0.172,0.001-0.257,0.002
				c-0.15,0.001-0.299,0.002-0.449,0.003c-0.211,0.001-0.423,0.003-0.634,0.004c-0.271,0.002-0.542,0.003-0.812,0.005
				c-0.328,0.002-0.656,0.004-0.984,0.006c-0.383,0.002-0.766,0.005-1.15,0.007c-0.436,0.003-0.872,0.005-1.309,0.008
				c-0.487,0.003-0.974,0.006-1.461,0.009c-0.536,0.003-1.071,0.007-1.607,0.01c-0.582,0.004-1.164,0.007-1.746,0.011
				c-0.626,0.004-1.253,0.008-1.879,0.012c-0.668,0.004-1.337,0.008-2.006,0.012c-0.708,0.005-1.417,0.009-2.125,0.013
				c-0.746,0.005-1.493,0.009-2.239,0.014c-0.782,0.005-1.564,0.01-2.346,0.015c-0.815,0.005-1.631,0.01-2.446,0.015
				c-0.847,0.005-1.693,0.01-2.54,0.016c-0.876,0.005-1.752,0.011-2.627,0.016c-0.903,0.006-1.805,0.011-2.708,0.017
				c-0.928,0.006-1.855,0.012-2.782,0.017c-0.95,0.006-1.9,0.012-2.85,0.018c-0.97,0.006-1.941,0.012-2.911,0.018
				c-0.989,0.006-1.977,0.012-2.966,0.019c-1.005,0.006-2.01,0.013-3.015,0.019c-1.019,0.006-2.037,0.013-3.056,0.019
				c-1.031,0.006-2.061,0.013-3.091,0.019c-1.04,0.007-2.08,0.013-3.12,0.02c-1.047,0.006-2.095,0.013-3.142,0.02
				c-1.053,0.007-2.106,0.013-3.158,0.02c-1.056,0.007-2.112,0.013-3.167,0.02c-1.057,0.007-2.113,0.013-3.17,0.02
				c-1.055,0.007-2.111,0.013-3.166,0.02c-1.052,0.007-2.104,0.013-3.156,0.02c-1.046,0.006-2.093,0.013-3.139,0.02
				c-1.039,0.006-2.077,0.013-3.116,0.019c-1.029,0.007-2.057,0.013-3.086,0.019c-1.016,0.006-2.033,0.013-3.049,0.019
				c-1.002,0.006-2.004,0.013-3.007,0.019c-0.986,0.006-1.971,0.012-2.957,0.018c-0.967,0.006-1.934,0.012-2.901,0.018
				c-0.946,0.006-1.893,0.012-2.839,0.018c-0.923,0.006-1.847,0.012-2.77,0.017c-0.898,0.006-1.796,0.011-2.694,0.017
				c-0.871,0.005-1.742,0.011-2.612,0.016c-0.841,0.005-1.683,0.01-2.524,0.016c-0.81,0.005-1.619,0.01-2.429,0.015
				c-0.776,0.005-1.552,0.01-2.328,0.015c-0.74,0.005-1.48,0.009-2.22,0.014c-0.702,0.004-1.403,0.009-2.105,0.013
				c-0.661,0.004-1.323,0.008-1.984,0.013c-0.619,0.004-1.238,0.008-1.857,0.011c-0.574,0.004-1.148,0.007-1.722,0.011
				c-0.527,0.003-1.055,0.007-1.582,0.01c-0.478,0.003-0.957,0.006-1.435,0.009c-0.427,0.003-0.854,0.005-1.281,0.008
				c-0.374,0.002-0.747,0.005-1.121,0.007c-0.318,0.002-0.636,0.004-0.955,0.006c-0.26,0.002-0.521,0.003-0.782,0.005
				c-0.201,0.001-0.401,0.003-0.602,0.004c-0.077,0-0.154,0.001-0.232,0.001c-0.033,0-0.065,0.001-0.098,0.001
				c-0.285-0.004-0.436-0.201-0.56-0.446c-0.599-1.171-0.995-2.397-1.154-3.703c-0.096-0.785-0.156-1.587-0.001-2.363
				c0.133-0.667,0.421-1.292,0.687-1.918c0.555-1.309,1.023-2.655,1.4-4.027c0.562-2.045,0.918-4.139,1.277-6.228
				c0.197-1.148,0.337-2.304,0.488-3.458c0.126-0.959,0.088-1.884,0.204-2.843c0.29-2.379,0.609-4.765,0.609-7.166
				c0-2.473-8.245-23.085-18.963-61.836c-10.718-38.75-16.49-50.293-10.718-90.692c5.771-40.399,62.66-86.57,62.66-86.57
				L1017.24,507.333z"
                class="color4d4d4d svgShape"></path>
            <path fill="#1a1a1a"
                d="M886.261 750.313c0 0-10.005 1.889-16.601 2.714-6.596.824-10.718 3.298-8.245 7.42 2.473 4.122 9.894 14.016 24.734 17.314 14.84 3.298 23.085-9.894 23.085-9.894L886.261 750.313zM928.197 991.299c0 0-14.84 36.277-12.367 51.117 2.473 14.84 16.489 15.665 26.383 13.191 0 0-8.245 17.314-5.771 27.208 2.473 9.894 9.894 15.665 23.91 15.665 14.016 0 28.856-6.596 33.803-17.314 4.947-10.718 3.298-35.452 4.947-54.415 1.649-18.963-4.122-37.101-4.122-37.101l-44.521-7.42L928.197 991.299z"
                class="color1a1a1a svgShape"></path>
            <path fill="#e8936b"
                d="M975.605,742.72c-14.142-9.428-36.277-8.245-48.644-2.473
					c-12.367,5.771-49.468,11.543-49.468,11.543c3.298,10.718,3.298,32.155,4.122,43.697c0.824,11.543,2.473,18.963,15.665,48.644
					c13.192,29.681,32.155,84.096,33.804,89.043c1.649,4.947,0.824,9.069,0.824,14.016c0,4.947,3.298,5.771,3.298,14.016
					c0,8.245-11.543,42.048-11.543,45.346c0,3.298,0,4.947,4.122,9.069c4.122,4.122,14.016,4.947,18.963,3.298
					c4.947-1.649,8.245-11.543,9.894-14.016s4.122-4.947,4.122-4.947s-14.428,49.056-14.428,54.827
					c0,5.771,6.596,7.42,11.543,10.718c4.947,3.298,18.963,5.771,27.208,0c8.245-5.771,9.894-46.17,9.894-53.591
					c0-7.42,1.649-14.016,3.298-20.612c1.649-6.596-2.473-14.841-3.298-26.383c-0.824-11.543,14.016-75.851,14.016-116.25
					s-12.367-71.729-14.84-84.096c-0.477-2.384-0.586-5.258-0.451-8.344C993.704,756.224,980.551,746.018,975.605,742.72z"
                class="colore8936b svgShape"></path>
            <path fill="#d37450"
                d="M896.51,748.397c5.379,1.399,26.182,7.634,33.337,21.943l-5.443-29.027
					C917.495,743.93,906.256,746.472,896.51,748.397z"
                opacity=".5" class="colord37450 svgShape"></path>
            <path fill="#d37450"
                d="M936.294,840.807c-1.552-8.713-2.492-17.537-2.504-26.393c-0.012-8.526,1.363-16.877,1.908-25.36
					c0.583-9.068-1.281-17.178-3.858-25.801c-2.289-7.658-3.776-15.361-4.336-23.247c-0.181,0.08-0.366,0.159-0.543,0.241
					c-1.21,0.565-2.66,1.13-4.286,1.689c0.414,5.135,1.194,10.236,2.386,15.259c1.98,8.339,5.468,16.355,5.825,25.012
					c0.337,8.181-1.274,16.283-1.766,24.426c-0.516,8.538-0.087,17.104,0.989,25.584c4.238,33.394,18.073,72.667,25.584,105.296
					c4.469,19.416,5.987,38.613,3.194,58.376c-0.334,2.361,3.115,3.481,3.689,1.017c7.646-32.766-3.418-67.435-13.115-98.521
					C944.393,882.14,939.284,857.589,936.294,840.807z"
                class="colord37450 svgShape"></path>
            <path fill="#333333"
                d="M871.721 743.325c-1.97-6.738-4.272-13.355-6.884-19.87-.696-1.736-2.467-1.062-1.773.715 2.555 6.537 3.619 14.756 5.771 21.436C869.381 747.3 872.227 745.055 871.721 743.325zM1034.062 586.022c-.013-.935-1.386-.922-1.443 0-.881 14.35-2.971 28.693-6.675 42.596-3.628 13.619-9.048 26.562-14.597 39.486-10.747 25.032-19.207 50.557-23.908 77.442-.333 1.905 2.583 2.723 2.919.805 4.951-28.237 14.175-54.703 25.398-80.995C1026.643 639.85 1034.462 614.013 1034.062 586.022z"
                class="color333 svgShape"></path>
            <path fill="#333333"
                d="M1021.488,544.388c-6.478,5.818-14.091,9.927-21.94,13.583
				c-8.46,3.941-17.088,7.901-26.233,9.958c-2.95,0.663-5.942,1.109-8.956,1.397c-27.098-2.628-52.325-14.464-72.521-32.824
				c-1.467-1.334-2.969-0.094-1.567,1.336c14.314,14.597,31.852,25.83,51.398,31.511c-9.453-0.611-18.781-2.183-27.386-6.351
				c-1.542-0.747-2.89,1.471-1.359,2.325c8.694,4.846,18.912,6.452,28.726,7.126c9.881,0.678,20.157,1.03,29.972-1.146
				c4.609-1.022,9.142-1.978,13.579-3.629c5.008-1.864,9.874-4.08,14.727-6.308c8.547-3.923,16.137-9.673,23.082-16.108
				C1024.521,543.861,1023.006,543.026,1021.488,544.388z"
                opacity=".5" class="color333 svgShape"></path>
            <path fill="#333333"
                d="M1037.336,553.442c-1.146-2.058-2.463-4.044-3.248-6.265
				c-1.26-3.562-1.262-7.869-4.066-10.401c-1.132-1.022-2.734-1.793-3.038-3.287c-0.144-0.705,0.048-1.428,0.158-2.139
				c0.672-4.302-5.824-20.839-9.901-22.367l-119.548-19.787c0,0-53.594,43.499-62.019,82.998l10.077,24.184
				c0-0.824,21.436-14.84,58.538-4.947c37.101,9.894,61.011,8.245,84.096,1.649c23.085-6.596,50.293-1.649,55.24,4.122
				c0.431,0.503,0.9,0.655,1.396,0.525c1.075-8.283,0.883-12.609,0.883-12.609C1044.343,574.225,1042.691,563.054,1037.336,553.442z
				"
                opacity=".5" class="color333 svgShape"></path>
            <path fill="#ffffff"
                d="M897.692,499.089c0,0,32.979,32.979,72.554,32.979c39.575,0,51.942-16.49,51.942-18.963
					c0-2.473,0-6.596,9.894-20.612c9.894-14.016,14.016,0,34.628-37.926c20.612-37.926,10.718-98.112,10.718-98.112L963.65,321.003
					l-64.248,144.636L897.692,499.089z"
                class="colorfff svgShape"></path>
            <path fill="#f1e6dc"
                d="M996.391,402.013c-2.194,6.712-3.959,13.519-5.253,20.463c-1.308,7.015-1.764,14.233-3.56,21.149
					c-3.353,12.91-13.759,21.351-21.006,31.988c-1.646,2.415,2.167,4.495,3.854,2.253c7.62-10.126,17.483-19.111,21.117-31.633
					c1.993-6.865,2.366-14.09,3.528-21.114c1.232-7.453,2.996-14.811,5.121-22.059C1000.91,400.612,997.175,399.614,996.391,402.013
					z"
                class="colorf1e6dc svgShape"></path>
            <path fill="#f1e6dc"
                d="M995.892 391.699c-16.364-9.444-20.814-28.337-19.728-45.995.121-1.962-2.813-1.893-3.014 0-1.976 18.598 4.087 38.937 21.332 48.409C996.057 394.978 997.453 392.6 995.892 391.699zM1065.643 367.605c-3.278 4.392-5.851 8.925-9.933 12.72-3.818 3.549-8.2 6.464-12.892 8.727-11.085 5.346-22.698 6.046-34.774 5.965-1.403-.009-1.815 2.321-.342 2.53 12.213 1.739 25.605-.447 36.697-5.792 9.299-4.481 20.321-12.905 23.693-23.118C1068.605 367.084 1066.486 366.476 1065.643 367.605z"
                opacity=".5" class="colorf1e6dc svgShape"></path>
            <path fill="#6c4e4e"
                d="M1055.166,316.056l-1.649,34.628l8.08,9.433c0,0,0.989,16.95-2.309,55.7
					c-3.298,38.75-14.016,108.006-17.314,133.565c-3.298,25.559-3.298,52.766-3.298,68.431c0,15.665,0.825,29.681,4.947,46.17
					c4.122,16.49,11.543,37.926,11.543,37.101c0-0.825,9.894-40.399,9.069-60.187c-0.825-19.787-2.473-29.681,0-35.452
					c2.473-5.771,5.771-11.543,5.771-21.436c0-9.894-3.298-13.192-1.649-16.49c1.649-3.298,30.505-51.117,38.75-66.782
					c8.245-15.665,10.718-23.91,12.367-23.91c0,0,52.766,37.926,61.835,46.171c9.069,8.245,19.787,15.665,47.819,20.612
					c28.032,4.947,129.442-0.825,131.091-4.122c1.649-3.298-6.596-57.713-6.596-57.713s-108.418-2.886-114.189-3.71
					c-5.771-0.824-11.543-6.596-14.84-7.42c-3.298-0.824-8.245-1.649-8.245-1.649s-1.649-4.122-4.947-4.947
					c-3.298-0.824-7.42-0.824-9.069-4.122c-1.649-3.298-9.894-15.665-14.84-19.787c-4.947-4.122-32.979-32.154-35.452-41.224
					c-2.473-9.069-4.122-23.91-10.718-28.857c-6.596-4.947-23.91-6.596-28.032-11.543
					C1109.169,353.569,1073.717,323.064,1055.166,316.056z"
                class="color6c4e4e svgShape"></path>
            <path fill="#4a3333"
                d="M1097.385 401.589c-1.265-8.752-3.933-17.535-6.301-26.04-4.723-16.96-12.519-34.231-19.428-50.424-.849-1.99-2.33.078-1.525 2.118 5.63 14.265 10.672 28.756 14.842 43.517 2.05 7.258 3.893 14.572 5.561 21.927.46 2.029.907 4.061 1.338 6.096.253 1.195 1.194 3.392.821 4.506-.623 1.855-3.722 3.029-5.246 3.975-1.803 1.12-3.608 2.237-5.375 3.413-.334.222-.581.486-.76.769-5.379-5.227-10.779-10.433-16.246-15.568-1.785-1.676-4.412.935-2.692 2.692 5.987 6.114 12.021 12.181 18.054 18.249 2.527 2.542 6.245 5.263 7.771 8.57 1.774 3.844.381 9.783.031 13.836-1.493 17.316-4.688 34.426-8.267 51.417-3.578 16.981-7.505 33.888-11.421 50.794-3.823 16.505-7.602 33.066-13.095 49.114-5.66 16.534-13.581 32.842-13.936 50.641-.06 2.981 2.749 1.812 2.938-1.118 1.087-16.861 9.665-30.991 15.167-46.73 5.773-16.515 9.685-33.589 13.634-50.609 7.975-34.375 17.008-69.029 19.84-104.305.353-4.391 1.311-9.52-.151-13.793-1.065-3.111-3.616-5.391-5.898-7.624-.787-.77-1.581-1.533-2.368-2.301C1089.831 411.778 1098.411 408.683 1097.385 401.589zM1122.22 466.493c-1.233 3.55-3.194 6.445-5.122 9.619-1.354 2.229 1.852 4.799 3.657 2.822 2.821-3.091 4.594-7.285 5.732-11.264C1127.278 464.905 1123.146 463.828 1122.22 466.493z"
                class="color4a3333 svgShape"></path>
            <path fill="#4a3333"
                d="M1143.323,376.693c-7.478,10.183-9.566,23.471-12.015,35.569
					c-2.899,14.319-5.851,28.631-8.588,42.982c-0.312,1.637,2.165,2.351,2.522,0.695c2.968-13.78,5.716-27.608,8.544-41.417
					c2.512-12.265,4.671-25.927,12.262-36.236C1147.253,376.65,1144.515,375.07,1143.323,376.693z"
                opacity=".5" class="color4a3333 svgShape"></path>
            <path fill="#4a3333"
                d="M1225.016,478.29c-2.665,2.995-5.049,6.175-7.207,9.51c-0.546-0.346-1.277-0.398-1.885,0.166
					c-7.747,7.189-13.799,15.811-18.006,25.505c-0.743,1.711,1.767,3.214,2.536,1.483c3.37-7.586,7.898-14.427,13.449-20.493
					c-0.192,0.361-0.388,0.719-0.576,1.083c-2.974,5.778-4.541,13.399-3.984,20.035c0.23,2.747,3.362,1.312,3.266-1.52
					c-0.405-12.037,8.141-24.649,14.872-33.932C1228.882,478.194,1226.598,476.512,1225.016,478.29z"
                class="color4a3333 svgShape"></path>
            <path fill="#1a1a1a"
                d="M1340.283,528.471c0,0,8.395,14.314,19.938,11.017c11.543-3.298,9.069-40.399,9.069-40.399
						l-25.559,11.543L1340.283,528.471z"
                class="color1a1a1a svgShape"></path>
            <path fill="#ffffff"
                d="M1354.45,481.775c0,0-14.841,1.649-20.612,18.138c-5.771,16.49,9.069,31.33,9.069,32.155
						s11.543-1.387,11.543-1.387V481.775z"
                class="colorfff svgShape"></path>
            <path fill="#cccccc"
                d="M1344.534,513.51c0,0,2.496,14.435,8.267,16.909c5.771,2.473,9.894-13.192,9.894-21.436
						C1362.695,500.738,1344.534,513.51,1344.534,513.51z"
                class="colorccc svgShape"></path>
            <path fill="#e8936b"
                d="M1354.038,481.362c0,0,22.261-5.771,32.979-9.894c10.718-4.122,34.628-14.841,37.926-14.016
						c3.298,0.825,1.649,6.596,1.649,6.596s7.42-1.649,9.069,0.825c1.649,2.473-1.649,6.596-11.543,9.894c0,0,8.245,0,8.245,3.298
						c0,3.298-4.122,5.771-17.314,7.42c-13.192,1.649-18.138,2.473-20.612,3.298c-2.473,0.825-12.367,9.894-12.367,9.894
						s9.069,0,9.894,6.596c0.824,6.596-11.543,8.245-17.314,8.245c-5.771,0-11.543-0.824-15.665,1.649
						c-4.122,2.473-12.367,5.771-12.367,5.771S1336.724,497.852,1354.038,481.362z"
                class="colore8936b svgShape"></path>
            <path fill="#d37450"
                d="M1382.55,497.546c-5.325-1.478-10.371-0.113-15.629-2.381c-4.849-2.092-9.56-2.168-14.784-1.825
						c-2.52,0.166-2.571,4.03,0,3.961c3.08-0.082,6.203-0.199,9.224,0.524c2.372,0.567,4.39,1.836,6.658,2.664
						c4.457,1.629,9.832-1.165,14.462-0.576C1384.936,500.225,1384.825,498.177,1382.55,497.546z"
                class="colord37450 svgShape"></path>
            <path fill="#1a1a1a"
                d="M982.106,275.03c0,0-13.593,9.692-21.051,10.165c-7.458,0.472-8.873,8.434-0.282,19.793
						c8.591,11.359,38.063,27.085,38.063,27.085l21.724-37.975L982.106,275.03z"
                class="color1a1a1a svgShape"></path>
            <path fill="#1a1a1a"
                d="M987.306,269.451c-8.795,5.692-18.118,9.34-28.541,10.666c-1.421,0.181-1.491,2.397,0.009,2.289
						c10.58-0.76,21.225-4.412,29.828-10.674C989.938,270.76,988.748,268.518,987.306,269.451z"
                class="color1a1a1a svgShape"></path>
            <path fill="#6c4e4e"
                d="M1011.492,299.683c0,0-14.864-1.766-21.459,5.654c0,0-26.383-0.824-46.995-9.894
					c-20.612-9.069-25.559-9.069-30.506-4.947c-4.947,4.122-8.245,14.84-11.543,14.84c-3.298,0-9.894-0.824-12.367,4.947
					c-2.473,5.771-8.245,14.84-13.192,16.489c-4.947,1.649-13.192-1.649-18.963,4.947c-5.771,6.596-9.069,10.718-9.069,10.718
					s-15.665,0-23.085,4.122c-7.42,4.122-12.367,6.596-14.841,6.596s-18.138-4.947-34.628,0
					c-16.489,4.947-100.579,7.346-117.9,5.771c-18.138-1.649-20.612-1.649-20.612-1.649l-3.298,54.415
					c0,0,92.341,14.016,138.511,12.367c46.171-1.649,69.256-10.718,84.096-16.489c14.841-5.771,23.085-11.543,23.91-9.894
					c0.824,1.649-6.596,69.256-7.42,70.905c-0.825,1.649-9.069,3.298-9.894,9.069c-0.824,5.771-2.473,14.016-5.771,17.314
					c-3.298,3.298-28.032,27.208-31.33,32.979c-3.298,5.771-7.42,26.383-7.42,50.293c0,23.91,4.122,38.75,6.596,39.575
					c2.473,0.824,26.383-19.787,46.17-51.117c19.787-31.33,50.705-91.929,67.194-130.679c16.49-38.75,38.75-86.57,44.522-93.99
					s29.681-24.734,29.681-24.734L1011.492,299.683z"
                class="color6c4e4e svgShape"></path>
            <path fill="#4a3333"
                d="M987.559 305.337c-5.686 3.484-10.622 6.035-15.364 10.696-4.897 4.814-9.526 9.899-13.862 15.224-2.075 2.548-4.09 5.148-6.034 7.797-1.532 2.087-3.811 4.426-4.488 6.961-.559 2.093.132 3.691 1.169 5.467 1.979 3.389 4.325 6.613 6.543 9.866-3.837.343-7.675.686-11.512 1.029-5.559.497-12.546-.389-15.383 5.403-6.513 13.299-11.248 27.883-16.262 41.799-10.29 28.56-19.205 57.659-26.439 87.145-4.145 16.895-6.6 34.709-9.671 51.832-.471 2.626 2.268 2.974 2.804.311 11.282-56.017 26.929-111.043 47.968-164.2 1.433-3.62 2.889-7.231 4.369-10.832 1.242-3.022 1.698-5.08 5.462-5.891 1.771-.382 22.437-4.137 30.914-4.895 3.133-.28 3.241-3.086.078-2.803-2.526.226-5.051.452-7.576.677-.053-.223-.135-.45-.278-.682-1.722-2.793-3.437-5.591-5.172-8.376-1.863-2.991-2.9-3.849-.787-6.881 3.535-5.074 7.363-9.945 11.414-14.617 3.723-4.294 7.641-8.417 11.741-12.353 4.253-4.083 9.143-7.599 13.247-11.8C992.211 304.401 989.802 303.964 987.559 305.337zM881.287 375.235c-2.136 7.2-3.731 14.766-3.793 22.306-.023 2.832 3.971 2.667 4.29 0 .858-7.166 1.777-14.175 3.658-21.16C886.165 373.697 882.075 372.578 881.287 375.235zM870.361 468.987c-1.246 8.123-1.369 16.36-2.405 24.486-.138 1.087 1.699 1.331 1.917.259 1.643-8.076 3.81-15.937 4.531-24.198C874.603 467.25 870.714 466.689 870.361 468.987z"
                class="color4a3333 svgShape"></path>
            <path fill="#4a3333"
                d="M919.482,289.562c-5.136,1.18-8.041,6.571-10.368,10.854
					c-3.248,5.978-5.883,12.365-8.341,18.702c-5.194,13.396-9.768,27.393-12.622,41.481c-0.24,1.183,1.521,1.695,1.826,0.503
					c3.096-12.098,6.331-24.035,10.99-35.644c2.41-6.006,4.961-11.963,7.73-17.813c2.34-4.946,5.716-13.815,11.575-15.213
					C922.137,291.987,921.348,289.134,919.482,289.562z"
                opacity=".5" class="color4a3333 svgShape"></path>
            <path fill="#1a1a1a"
                d="M642.363,395.44c0,0-4.38,16.255-9.327,16.255c-4.947,0-3.298-32.154-3.298-32.154
					L642.363,395.44z"
                class="color1a1a1a svgShape"></path>
            <path fill="#ffffff"
                d="M629.738,355.63l9.069,1.649c0,0,8.245,9.894,6.596,23.085
					c-1.649,13.192-4.947,20.612-4.947,20.612l-13.192-1.649L629.738,355.63z"
                class="colorfff svgShape"></path>
            <path fill="#cccccc"
                d="M624.791,382.013c0,0-0.824,16.489,2.473,17.314c3.298,0.825,5.49-8.245,6.043-10.306
					c0.553-2.061-2.745-11.13-2.745-11.13L624.791,382.013z"
                class="colorccc svgShape"></path>
            <path fill="#e8936b"
                d="M633.036,390.258c0,0-4.947-1.649-10.718-8.245c-5.771-6.596-7.42-10.718-10.718-13.192
					c-3.298-2.473-9.069-6.596-9.069-10.718c0,0-16.489-0.824-20.612-1.649c-4.122-0.824-4.122-3.298-4.122-3.298
					s-9.894,0-13.192-1.649c-3.298-1.649-3.298-4.122-2.473-5.771c0,0-4.122,0-4.947-4.947c-0.824-4.947,11.543-3.298,11.543-3.298
					s-6.596-3.298-4.122-7.42c2.473-4.122,15.665,4.947,25.559,8.245c9.894,3.298,28.857,13.192,32.154,14.016
					c3.298,0.824,7.42,3.298,7.42,3.298S637.983,368.822,633.036,390.258z"
                class="colore8936b svgShape"></path>
            <path fill="#d37450"
                d="M631.901 366.06c-2.109-3.086-4.86-5.562-8.256-7.169-1.791-.847-3.825-1.221-5.544-2.214-1.859-1.074-3.198-2.836-4.87-4.149-4.691-3.687-11.849-1.821-11.751 4.903.026 1.8 1.679.729 1.876-.976.454-3.936 5.275-3.449 7.752-1.514.576.449 1.082.997 1.613 1.497 1.331 1.253 2.619 2.476 4.252 3.325 4.698 2.442 8.768 3.453 12.192 7.897C630.372 369.226 633.078 367.782 631.901 366.06zM598.058 353.517c-4.24-2.681-7.587-6.003-12.214-8.116-5.228-2.388-10.109-4.791-14.647-8.386-1.339-1.061-3.261.78-1.913 1.913 4.199 3.53 8.724 6.323 13.697 8.636 2.826 1.314 5.412 2.622 7.864 4.575 1.84 1.466 4.692 2.312 6.739 3.492C599.381 356.666 599.799 354.618 598.058 353.517z"
                class="colord37450 svgShape"></path>
            <g fill="#000000" class="color000 svgShape">
                <path fill="#1a1a1a"
                    d="M1060.938 326.774c0 0 2.473 37.101.825 38.75-1.649 1.649-20.612-3.298-20.612-3.298l10.718-37.101L1060.938 326.774zM1007.347 308.635c0 0-3.298-1.649-11.543 7.42-6.207 6.828-11.478 21.156-13.705 26.193.767.983 11.232 14.206 11.232 14.206l15.665-22.261L1007.347 308.635z"
                    class="color1a1a1a svgShape"></path>
                <path fill="#e8936b"
                    d="M1011.039,295.423c0,0-11.911,31.159-28.908,46.794c1.832,10.252,6.04,19.982,11.528,28.821
					c2.548,4.104,5.291,8.042,8.95,11.133c-1.859,8.087-4.843,17.313-3.508,17.981c1.17,0.585,7.732-8.365,11.931-13.621
					c1.359,0.323,2.743,0.54,4.144,0.714c23.454-0.37,46.324-19.242,46.585-21.721c1.649-15.665-18.839-35.278,15.146-94.209
					C1110.892,212.383,1011.039,295.423,1011.039,295.423z"
                    class="colore8936b svgShape"></path>
                <path fill="#c35e40"
                    d="M1051.764,293.659c18.963-15.642-2.616-14.822-24.048-11.383
					c-1.071,0.816-2.128,1.581-3.167,2.31c-0.483,0.378-0.957,0.749-1.422,1.115c-0.024,0.019-0.049,0.038-0.073,0.057
					c-0.46,0.362-0.91,0.716-1.35,1.064c-0.018,0.014-0.036,0.028-0.054,0.042c-0.439,0.347-0.867,0.686-1.285,1.017
					c-0.02,0.016-0.041,0.032-0.061,0.048c-0.406,0.323-0.801,0.637-1.186,0.944c-0.04,0.032-0.08,0.064-0.119,0.095
					c-0.378,0.302-0.747,0.596-1.103,0.882c-0.02,0.016-0.04,0.032-0.06,0.048c-0.37,0.296-0.729,0.584-1.073,0.861
					c-0.003,0.003-0.006,0.005-0.01,0.008c-1.774,1.427-3.197,2.587-4.18,3.392c-0.008,0.006-0.016,0.013-0.023,0.019
					c-0.176,0.144-0.334,0.274-0.481,0.394c-0.032,0.026-0.063,0.052-0.094,0.077c-0.132,0.109-0.255,0.21-0.36,0.296
					c-0.018,0.015-0.034,0.029-0.052,0.043c-0.09,0.075-0.169,0.14-0.237,0.195c-0.029,0.024-0.052,0.043-0.077,0.064
					c-0.133,0.11-0.212,0.176-0.212,0.176s-2.259,5.909-6.212,13.87C1011.127,311.66,1027.059,314.039,1051.764,293.659z"
                    class="colorc35e40 svgShape"></path>
                <path fill="#1a1a1a"
                    d="M1131.726,243.258c-2.237-11.688-5.955-23.066-11.402-33.659
						c-3.917-7.617-8.704-15.747-15.464-21.313c-20.363-18.181-45.427-11.803-47.477-12.177
						c-2.719-0.495-10.928-10.804-29.536,0.242c-19.732,11.714-21.695,38.183-21.695,38.183s73.413,46.028,69.951,57.335
						c-3.462,11.307-33.81,46.487-32.514,58.66c1.296,12.173,67.036,13.684,71.486,4.663c3.056-6.194,14.304-37.056,14.897-71.913
						c0.781,19.907-2.588,39.542-7.323,59.082c-0.592,2.444,3.068,2.995,3.775,0.691
						C1134.212,297.653,1136.737,269.434,1131.726,243.258z"
                    class="color1a1a1a svgShape"></path>
                <path fill="#e8936b"
                    d="M1072.821,278.292c0,0-21.411,24.875-56.01,22.05c-34.186-2.791-45.405-29.46-29.152-59.418
						c18.023-33.221,40.918-58.526,69.085-51.261c0,0,0.315,19.372,11.236,32.609c10.92,13.237,5.148,33.25,7.187,33.623
						c2.039,0.373,8.786-9.628,20.769-6.029c11.983,3.599,6.527,18.051-2.011,26.32S1072.821,278.292,1072.821,278.292z"
                    class="colore8936b svgShape"></path>
                <path fill="#d37450"
                    d="M1005.903,239.839c0.738-1.204,2.406-1.62,3.612-0.864c1.186,0.744,2.373,1.488,3.56,2.232
									c1.201,0.753,1.609,2.395,0.863,3.612c-0.738,1.204-2.406,1.62-3.612,0.864c-1.186-0.744-2.373-1.487-3.56-2.232
									C1005.566,242.697,1005.157,241.055,1005.903,239.839z"
                    class="colord37450 svgShape"></path>
                <path fill="#1a1a1a"
                    d="M1023.307 208.296c.801-.194 1.489-.775 1.762-1.584.412-1.221-.27-2.501-1.526-2.863-1.481-.427-3.045-.887-4.583-.932-1.93-.057-3.913.167-5.844.249-.808.034-1.626.07-2.401.308-.775.238-1.514.703-1.915 1.411-1.721 3.044 3.425 2.302 5.012 2.355 2.768.093 5.561.272 8.235 1.031C1022.468 208.392 1022.903 208.394 1023.307 208.296zM1048.167 212.371c-.602-.931-1.014-2.421-.41-3.446 2.975-5.047 12.346 7.56 13.795 9.209 1.087 1.237 2.238 2.763 2.377 4.471.112 1.375-.761 2.552-2.185 1.907-1.682-.761-2.973-2.415-4.239-3.705-2.584-2.63-5.246-5.216-8.172-7.224C1048.87 213.266 1048.473 212.844 1048.167 212.371z"
                    class="color1a1a1a svgShape"></path>
                <path fill="#1a1a1a"
                    d="M1067.507,250.044c0.273-6.517-0.673-13.088-2.734-19.273
						c-2.175-6.527-4.695-12.748-5.694-19.61c-1.066-7.32-0.693-14.601,0.369-21.894c0.309-2.12-2.781-3.052-3.306-0.863
						c-3.028,12.641-1.474,26.024,2.963,38.124c2.407,6.563,4.348,12.947,4.525,20.006c0.182,7.246-1.881,13.506-3.489,20.431
						c-0.434,1.869,2.172,3.022,3.161,1.3C1066.334,262.988,1067.256,256.046,1067.507,250.044z"
                    class="color1a1a1a svgShape"></path>
                <path fill="#333333"
                    d="M1125.36,295.593c-1.691,0.556-3.404-0.809-4.437-2.259c-1.033-1.45-1.899-3.184-3.522-3.917
							c-1.534-0.693-3.324-0.287-4.929,0.222c-5.003,1.586-9.719,4.073-13.854,7.306c-1.16,0.907-2.515,1.934-3.948,1.595
							c-0.864-0.204-1.531-0.872-2.128-1.529c-1.853-2.038-3.51-4.252-4.943-6.604c-1.021-1.676-2.004-3.501-3.691-4.504
							c-2.131-1.267-4.835-0.897-7.23-0.257c-4.333,1.159-8.447,3.1-12.128,5.662c-4.856,7.144-10.286,14.986-14.41,22.018
							c6.661-1.534,12.67-5.295,18.823-8.385c2.615-1.313,5.671-2.53,8.38-1.426c2.428,0.99,3.806,3.572,4.552,6.086
							c0.745,2.514,1.076,5.19,2.34,7.487c0.46,0.836,1.074,1.638,1.941,2.037c1.407,0.648,3.048,0.083,4.479-0.509
							c4.492-1.862,8.871-3.996,13.105-6.386c1.501-0.847,3.058-1.749,4.779-1.835c2.506-0.125,4.801,1.545,6.262,3.585
							c1.461,2.04,2.29,4.452,3.383,6.711c0.357,0.739,0.948,1.524,1.622,1.964c2.302-7.136,4.897-16.664,6.895-27.593
							C1126.26,295.19,1125.799,295.449,1125.36,295.593z"
                    class="color333 svgShape"></path>
                <path fill="#4a3333"
                    d="M1128.093,296.975c0.08-0.484,0.125-1.052-0.083-1.463c-0.849,5.745-1.922,11.476-3.152,17.196
							C1126.138,307.508,1127.22,302.259,1128.093,296.975z"
                    class="color4a3333 svgShape"></path>
                <path fill="#ffffff"
                    d="M994.754,257.241c1.053,2.893,2.486,5.677,4.567,7.803c1.779,1.817,4.048,2.983,6.405,3.938
						c1.551,0.176,3.205-0.027,4.972-0.712c3.666-1.421,6.754-4.217,9.568-7.241C1011.539,261.031,1002.874,260.323,994.754,257.241
						z"
                    class="colorfff svgShape"></path>
                <path fill="#000000"
                    d="M1045.278 238.148c1.329.914 3.158 1.01 4.606.301 1.449-.709 2.482-2.175 2.733-3.768.273-1.733-.438-3.652-1.928-4.578-.602-.374-1.305-.578-2.013-.612-1.172-.056-2.36.367-3.234 1.151C1043.25 232.609 1042.588 236.299 1045.278 238.148zM998.161 226.115c.61.629 1.506.888 2.373 1.013.839.12 1.728.132 2.497-.224 1.463-.677 2.053-2.433 2.289-4.028.099-.672.163-1.361.032-2.028-.131-.667-.478-1.316-1.05-1.682-.411-.263-.906-.363-1.393-.392C999.657 218.582 995.084 222.94 998.161 226.115z"
                    class="color1d1d1d svgShape"></path>
            </g>
            <!-- <path fill="#fce5eb"
                d="M714.292 1679.54c-24.831-17.505-48.99-41.02-66.465-64.946-19.156-26.226-34.679-55.463-45.14-84.755-24.412-68.356-26.127-142.614-12.084-213.298 7.542-37.958 19.24-75.042 34.023-110.786 14.322-34.629 31.282-68.417 43.978-103.821 12.437-34.679 19.579-71.115 17.881-108.063-1.587-34.529-9.649-68.414-20.332-101.171-21.665-66.433-53.924-129.488-69.329-197.941-1.889-8.394-3.47-16.849-4.746-25.358-1.643-10.95-15.172-10.443-13.944.694 3.916 35.497 12.946 79.649 24.751 113.284 11.764 33.518 19.836 58.567 31.564 92.098 11.1 31.736 21.016 65.136 24.354 98.08 1.735 17.124 1.927 34.413.194 51.545-1.824 18.033-6.407 35.87-11.855 53.177-11.203 35.591-27.785 69.085-42.639 103.219-15.891 36.517-29.342 73.94-38.181 112.822-16.943 74.529-18.679 153.717 3.872 227.288 19.64 64.076 56.602 123.562 109.874 164.938 6.877 5.342 14.058 10.25 21.444 14.861 5.802 3.622 13.944 1.236 17.324-4.542C722.538 1690.531 719.897 1683.492 714.292 1679.54zM1373.46 875.494c-3.43-8.974-7.302-17.768-12.34-25.963-4.629-7.528-9.828-14.72-14.653-22.126-10.268-15.763-21.84-30.508-33.529-45.23-10.628-13.385-21.302-27.562-30.276-42.675-10.309-17.361-16.271-33.932-21.346-53.744-6.486-25.326-12.553-50.768-18.875-76.135-1.681-6.747-9.25-10.801-15.836-8.991-6.834 1.878-10.708 9.074-8.991 15.836 5.719 22.525 11.404 45.059 17.255 67.55 5.405 20.776 11.8 41.088 22.266 59.937 17.935 32.303 43.814 59.933 68.014 87.575 13.261 15.147 23.947 32.425 32.755 50.524C1362.068 890.61 1376.922 884.553 1373.46 875.494zM1216.924 559.573c-16.366 0-16.393 25.435 0 25.435C1233.29 585.008 1233.317 559.573 1216.924 559.573z"
                class="colorfce5eb svgShape"></path> -->
            <path fill="#6168aa"
                d="M829.043 427.757c-7.549 4.82-16.038 6.748-24.926 5.633-2.796-.351-2.747 4.01 0 4.376 9.565 1.276 19.108-.86 27.203-6.114C833.745 430.079 831.503 426.186 829.043 427.757zM1016.052 790.259c-1.888-15.867-12.893-31.434-6.794-47.616.957-2.539-3.088-3.612-4.051-1.117-6.371 16.503 3.63 33.213 6.643 49.302C1012.287 793.166 1016.338 792.664 1016.052 790.259zM1022.252 777.811c-.765-2.215-4.186-1.33-3.547.978 3.286 11.883 4.786 23.843 4.043 36.171-.152 2.516 3.683 2.47 3.892 0C1027.696 802.445 1026.359 789.708 1022.252 777.811z"
                class="color6168aa svgShape"></path>
        </svg>
    </g>
</svg>