<svg id="SvgjsSvg1001" width="550" height="550" xmlns="http://www.w3.org/2000/svg" version="1.1" xmlns:xlink="http://www.w3.org/1999/xlink" xmlns:svgjs="http://svgjs.com/svgjs"><defs id="SvgjsDefs1002"></defs><g id="SvgjsG1008"><svg xmlns="http://www.w3.org/2000/svg" viewBox="0 0 4680 3120" width="550" height="550"><g data-name="7" fill="#000000" class="color000 svgShape"><path fill="#fad8ad" d="M3794.59 1477c-281.68-88.61 84.56-77.85-93.17-652a634.6 634.6 0 0 0-32.42-83.23q-11.24-23.79-24.24-46.34c-222.67-387-996.21-434.14-1210.46-167.14-112 139.55-368.79 12.24-795.56-12.59-291.15-16.93-498.43 99.06-602.19 318.06q-12.06 25.4-22.1 51.78c-65.23 171.09-57.38 341.13 20.16 498.16 188.54 381.79-243.5 11.79-343.81 276-204.37 538.36 358.87 817.9 358.87 817.9l2551.08-9.93c448.73-123.55 596.15-864.07 193.84-990.67Z" class="colorfad8ad svgShape"></path><path fill="#47b971" d="M3510.26 2006.75a403.9 403.9 0 0 0-43-65.34c-183.24-225.35-350-311.09-443.6-325.34-73.11-11.11-95.26 30.45-30.82 51.93s108.91 63.89 91.38 128.45 28.09 97.75 74.08 81.49 136.22-27.61 163.46 78.82-25.36 207 73.54 254.16 100.9 191.31 100.9 191.31l75.79-48.6c9.64-8 13.71-90.22-6.25-187.24-10.64-52.06-28.18-108.31-55.48-159.64Z" class="color47b971 svgShape"></path><path fill="#318971" d="M3505.65 2003.42H3437c2.31 7.76-1.09 87.37 98.9 149.38 12.08 7.46 22 11.77 29.92 13.59-10.68-52.06-28.22-108.31-55.52-159.64Z" class="color318971 svgShape"></path><path fill="#47b971" d="M3543.09 1807c-63.94-58.66 58.48-199.47-18.65-235s-193.31 90-172 165.54 100.25 63.32 120.15 143.44c9.52 38.34-62.95 87.34-24.07 152.06 35.46 59 154.22-.61 140.23 169.69-9.92 120.64-28.52 149.51-28.52 149.51l89.32 5.94c8.68-6.74 70-124 72.2-244.82 2.72-148.98-79.86-215.69-178.66-306.36Z" class="color47b971 svgShape"></path><path fill="#318971" d="M3519.71 1838.13c-22.81-22.56-44.34-43.88-63.46-66.59-55.82-66.31 22.32-157.37 23.12-158.28a2.52 2.52 0 0 0-3.8-3.31c-.82.94-81.78 95.21-23.18 164.83 19.27 22.89 40.89 44.28 63.78 66.93 53.93 53.39 109.71 108.59 137 187.35 44.62 128.88-42.81 323.6-43.7 325.55a2.52 2.52 0 0 0 1.25 3.33 2.46 2.46 0 0 0 1 .23 2.53 2.53 0 0 0 2.29-1.47c.9-2 89.15-198.5 43.88-329.28-27.64-79.88-83.84-135.5-138.18-189.29Z" class="color318971 svgShape"></path><path fill="#318971" d="M3707.94 2000.22c32.25 134.93-21.26 125.7-73.21 194.26s37 218.18 37 218.18l75.84 37.86s-1.77-33.41-26.12-142.76 51.85-121.52 76.5-188.36-33.1-200.29-44.51-218.46c-18.22-29.02-74.44-21.94-45.5 99.28Z" class="color318971 svgShape"></path><path fill="#47b971" d="M3968.92 1632.67c-76.23-13.14-112.34 48.07-96.35 196.95s-13 168-113.34 272.66c-120.84 126-102.22 242.22-96.75 256.72l75.17-7.62c33.44-93.78 45.23-81.53 145.37-66.92 73.17 10.67 101.16-50.51 61.6-153.27-30.9-80.28 16-112.45 73.29-244.79s8.5-243.81-48.99-253.73Z" class="color47b971 svgShape"></path><path fill="#318971" d="M3951 1699.14a2.51 2.51 0 0 0-1.4 3.27c33.44 83.85 6 160-23.12 240.53-22.63 62.68-46 127.5-37.55 195.83 2.41 19.3 3.71 43.3-7.58 57.61-6 7.54-14.73 11.86-26.86 13.22-14.12 1.58-26.37-.36-38.19-2.23-21.85-3.46-42.48-6.72-67.35 15.14-22.54 19.83-48.34 52.9-68.78 147.91a2.52 2.52 0 0 0 1.93 3 2.46 2.46 0 0 0 .53.06 2.51 2.51 0 0 0 2.46-2c20.14-93.57 45.26-125.9 67.19-145.18 23.1-20.31 41.69-17.37 63.23-14 12.16 1.92 24.72 3.91 39.54 2.26 13.35-1.5 23.53-6.58 30.26-15.11 12.44-15.77 11.15-41.08 8.63-61.36-8.34-67.12 14.85-131.36 37.28-193.49 28.12-77.91 57.2-158.48 23.06-244.11a2.53 2.53 0 0 0-3.28-1.35ZM3230.74 1774.74c-109.86-95.31-218.19-136-219.27-136.39a2.52 2.52 0 1 0-1.75 4.72c1.07.4 108.68 40.84 217.86 135.59 100.65 87.36 223.29 240.11 235.94 471.74a2.53 2.53 0 0 0 2.52 2.39h.14a2.52 2.52 0 0 0 2.38-2.65c-12.76-233.49-136.37-387.4-237.82-475.4Z" class="color318971 svgShape"></path><path fill="#47b971" d="M1451.3 2144.19c23.17-107.09-88.65-127-156.15-213.6s-3.41-151.09 37.58-177.54 42.58-82.8-19.19-108.44-68.17-86.73-45.76-150.85-24-72-60-7.37c-46 82.8-80.07 267.16-13.8 549.94a403.94 403.94 0 0 0 25.45 74c23.92 53 57.7 101.26 92.37 141.54 64.56 75.12 132.15 122.21 144.34 119.43L1541 2341s-112.82-89.69-89.7-196.81Z" class="color47b971 svgShape"></path><path fill="#318971" d="m1261.65 2050.24-42 54.35-.18 5.69c23.92 53 57.7 101.26 92.37 141.54 3.42-7.4 6.06-17.86 7.53-32 12.09-117.02-52.98-163-57.72-169.58Z" class="color318971 svgShape"></path><path fill="#47b971" d="M1278 2077.53c-27.44-70.34-110.52-43-135-73.93-51.23-64.73 6.71-119.66-40-182.78s-217.11-47.93-236.13 34.85 167.26 72 174.59 158.47c11.31 133.6 13.6 239.73 133.11 328.71 96.9 72.13 227.23 95.31 237.87 92.56l49.91-74.31s-34.22-2.93-135.74-68.85c-143.4-93.05-23.61-150.57-48.61-214.72Z" class="color47b971 svgShape"></path><path fill="#318971" d="M1434.08 2401.46c-2.08-.49-209.62-50.37-284.31-164.48-45.66-69.73-55.23-147.62-64.5-222.94-3.93-32-7.64-62.14-14-91.38-19.25-89-143.35-82.53-144.6-82.45a2.52 2.52 0 0 0 .3 5c1.21-.07 121-6.23 139.38 78.48 6.28 29 10 59.09 13.89 90.93 9.34 75.9 19 154.38 65.28 225.1 75.8 115.79 285.27 166.12 287.38 166.61a2.52 2.52 0 0 0 2.57-.91 2.67 2.67 0 0 0 .46-1 2.52 2.52 0 0 0-1.85-2.96Z" class="color318971 svgShape"></path><path fill="#318971" d="M1291.91 2323.55c-86-.8-111.42 47.18-198.47-60.84-78.21-97-118.21-56.87-106.4-24.69 7.4 20.15 77.68 147.44 145.65 168.8s124.18-31.5 195.82 54.64 97 108 97 108l16.41-83.16s-64-161.94-150.01-162.75Z" class="color318971 svgShape"></path><path fill="#47b971" d="M1142.83 2365.69c-144.18 15.43-177 26.67-285-77s-178.6-112.57-214.83-44.21c-27.31 51.55 31 158.33 170.81 193.9s193.88 18.15 238.51 91.69c57.13 94.14 122.65 109.4 158.94 45 49.67-88.18 47.19-105 141.85-74.12l52-54.82c-8.11-13.21-88.69-99.01-262.28-80.44Z" class="color47b971 svgShape"></path><path fill="#318971" d="M1403.34 2467.1c-87.67-41.92-129.62-41.72-159.09-36-32.51 6.31-42.54 24.63-53.16 44-5.75 10.5-11.7 21.38-21.59 31.58-8.49 8.77-17.28 13.08-26.88 13.18-18.23.18-36.42-15.52-50.23-29.23-48.87-48.49-114.47-69.61-177.91-90-81.54-26.26-158.56-51-204.46-128.78a2.52 2.52 0 1 0-4.34 2.56c46.88 79.38 128.41 105.63 207.25 131 62.88 20.25 127.89 41.18 175.91 88.82 14.51 14.39 33.74 30.89 53.83 30.69 10.86-.11 21.11-5.06 30.45-14.71 10.37-10.71 16.48-21.87 22.39-32.67 10.47-19.13 19.51-35.64 49.7-41.51 28.66-5.55 69.61-5.67 156 35.61a2.51 2.51 0 0 0 3.08-.73 2.56 2.56 0 0 0 .27-.45 2.51 2.51 0 0 0-1.22-3.36ZM1211.84 1747.13c-8.23-144.33 25.57-254.2 25.92-255.29a2.52 2.52 0 0 0-4.81-1.51c-.35 1.1-34.39 111.7-26.16 256.91 7.61 134.08 53.82 326 230.76 478.85a2.53 2.53 0 0 0 3.56-.26l.09-.1a2.52 2.52 0 0 0-.35-3.45c-175.55-151.65-221.44-342.09-229.01-475.15Z" class="color318971 svgShape"></path><path fill="#3c74c7" d="M1234.07 2029.92a51.9 51.9 0 0 0 51.9 51.9h1345.1a51.9 51.9 0 0 0 51.9-51.9V1154.5h-1448.9Z" class="color3c74c7 svgShape"></path><path fill="#3c549b" d="M2566.51 1968.64c-95.92 85.82-1151.64 113-1151.64 113l-.83.21h1217a51.9 51.9 0 0 0 51.9-51.9V1154.5h-84.06c3.99 38.02 60.63 730.92-32.37 814.14Z" class="color3c549b svgShape"></path><circle cx="1958.52" cy="1669.11" r="266.57" fill="#ffffff" transform="rotate(-45 1958.528 1669.111)" class="colorfff svgShape"></circle><path fill="#3c549b" d="M1890.74 1811.09 2131 1666.93l-240.26-139.79v283.95zM1234.07 1357.26l1448.9-137.16h-1448.9v137.16z" class="color3c549b svgShape"></path><path fill="#3c549b" d="M1219.21 1035.24h1478.61v184.88H1219.21z" class="color3c549b svgShape"></path><path fill="#ffffff" d="M1219.21 1190.26v29.85h81.92l105.94-184.88h-99.14l-88.72 155.03z" class="colorfff svgShape"></path><path fill="#76d7fa" d="M1392.81 1220.11h99.03l105.94-184.88h-99.03l-105.94 184.88zM1583.52 1220.11h99.14l105.82-184.88h-99.02l-105.94 184.88zM1774.34 1220.11h99.02l105.94-184.88h-99.14l-105.82 184.88zM1965.04 1220.11h99.03L2170 1035.23h-99.02l-105.94 184.88zM2155.75 1220.11h99.14l105.82-184.88h-99.03l-105.93 184.88zM2346.57 1220.11h99.02l105.94-184.88h-99.14l-105.82 184.88zM2537.27 1220.11h99.03l61.52-107.36v-77.52h-54.61l-105.94 184.88z" class="color76d7fa svgShape"></path><path fill="#3c549b" d="m1180.19 852.91 39.02 182.34 1444.87-253.66-39.02-182.34-1444.87 253.66z" class="color3c549b svgShape"></path><path fill="#ffffff" d="m1212.91 1005.8 6.3 29.45 80.05-14.05 64.51-200.52-96.88 17.01-53.98 168.11z" class="colorfff svgShape"></path><path fill="#76d7fa" d="m1388.85 1005.47 96.77-16.99 64.5-200.52-96.77 16.99-64.5 200.52zM1575.2 972.75l96.88-17 64.4-200.5-96.77 16.98-64.51 200.52zM1761.67 940.02l96.77-16.99 64.5-200.52-96.88 17.01-64.39 200.5zM1948.02 907.3l96.77-16.99 64.5-200.52-96.76 16.99-64.51 200.52zM2134.38 874.58l96.88-17 64.39-200.5-96.77 16.99-64.5 200.51zM2320.84 841.85l96.77-16.99 64.5-200.52-96.88 17.01-64.39 200.5zM2571.7 608.62l-64.5 200.51 96.76-16.99 37.46-116.44-16.36-76.45-53.36 9.37z" class="color76d7fa svgShape"></path><path fill="#007d81" d="m2923.08 1985.49-26.87 351.06h617.93l-44.78-358.22-546.28 7.16z" class="color007d81 svgShape"></path><path fill="#005d76" d="m3143.78 2231.06-7.83 138.4h68.98v-158.13l-111.91-89.14 50.76 108.87z" class="color005d76 svgShape"></path><path fill="#89601f" d="M2713.62 723.26c-15 42.25 61.9 67.3 61.9 67.3l65 2.33 24.33-22.37c-5.85-19.35-136.2-89.52-151.23-47.26Z" class="color89601f svgShape"></path><path fill="#ee6a4a" d="M2877.48 672.36c-8.95-2.37-2.87-39.3-28.28-20.25l-20.65-4c-29.38 5.46-58.42-5.56-58.42-5.56s-10.45 0-20.69 25.32c-11.32 28-26.38 54.86-42.57 105-11.93 37-92.78 303.72-115.53 358.62 0 .08-14.72 32.38-14.75 32.46-7.38 14.88 2.63-.83 1.43 16.78-4.86 71.74 32.3 52.14 104.05 57 68.92 4.68 95.1 53.15 104-14.38h.15c.61-3 8.31-73.16 25.81-208.9 16.54-128.4 31-197.27 37.49-224.57 7.87-32.95 24.06-54.1 38.69-69.74 23.07-24.59 6.32-43.26-10.73-47.78Z" class="coloree6a4a svgShape"></path><path fill="#ac2c38" d="M2713.62 723.26 2698.05 760s32.12 40.23 88.55 49.9 73.54-3 73.54-3l4.72-36.37s-77.86 28.9-151.24-47.27Z" class="colorac2c38 svgShape"></path><path fill="#e44438" d="M2800 804.94c-29.94 2.84-53.86-5.47-75.26-25.08s-24.58-24.74-24.58-24.74c-26 51.11-68.48 151.47-98.15 232.47-115.37 315 71.09 294.34 126.64 308.36s105.06-40 88.23-81.21 31.63-307.72 43.29-407.85c-8.85-5.32-30.26-4.79-60.17-1.95Z" class="colore44438 svgShape"></path><path fill="#e44438" d="m3194.2 1218.85-432.39-161c-75.92-28.25-156.23-21.86-184.49 54.06a152.78 152.78 0 0 0-3.23 9.69c-21.66 73.35 17.17 152.66 89.88 179.73l238.28 88.7 194.12 72.26c75.91 28.27 161.15-10.73 189.42-86.64 5.87-15.78 8.62-30.54 8.62-44.3 0-52.43-40.06-90.12-100.21-112.5Z" class="colore44438 svgShape"></path><path fill="#cc2c38" d="M2803.31 1286.57c-48.78 15.14-192-49.2-229.22-165-21.66 73.35 17.17 152.66 89.88 179.73l238.28 88.7c4.27-4.6 6.71-7.26 6.71-7.26l22.64-211.31s-73.6 98.16-128.29 115.14Z" class="colorcc2c38 svgShape"></path><path fill="#282828" d="M2970.38 656.16h-236.33a27.45 27.45 0 0 0-15.79 5l-93.89 66a27.46 27.46 0 0 0-11.69 22.49v90.23a27.48 27.48 0 0 0 55 0v-76l75.1-52.75h200.12v148.4a27.48 27.48 0 1 0 55 0v-175.9a27.47 27.47 0 0 0-27.52-27.47Z" class="color282828 svgShape"></path><path fill="#454545" d="m2466.01 911.12 1.06 234.52h620.2V841.85h-477.18l-144.08 69.27z" class="color454545 svgShape"></path><path fill="#454545" d="M2279 950.17v158.65a38 38 0 0 0 38 38h207.52V912.14h-207.47a38 38 0 0 0-38.05 38.03Z" class="color454545 svgShape"></path><path fill="#76d3b7" d="M2474 951.05a19.28 19.28 0 0 0-7.1-1.34h-130.23a19.45 19.45 0 0 0-19.45 19.45v120.64a19.44 19.44 0 0 0 19.45 19.45h130.23a19.45 19.45 0 0 0 19.45-19.45V969.16a19.45 19.45 0 0 0-12.35-18.11Z" class="color76d3b7 svgShape"></path><path fill="#beffb7" d="M2320.25 1100.23a19.42 19.42 0 0 0 16.42 9h31.7l63.1-159.54h-51.7ZM2385.57 1109.25h25.85l63.1-159.54h-25.84l-63.11 159.54z" class="colorbeffb7 svgShape"></path><path fill="#282828" d="m2524.57 1146.85 117.14-50.67v-131.9l-117.14-52.14v234.71zM2681.58 925.86v219.78h191.76V841.83h-48.74l-143.02 84.03z" class="color282828 svgShape"></path><path fill="#454545" d="M2851.2 854.68a9.55 9.55 0 1 0 9.55 9.55 9.55 9.55 0 0 0-9.55-9.55ZM2702.31 944.47h148.23v22.7h-148.23zM2702.31 1076.39h148.23v22.7h-148.23zM2702.31 986.93h148.23v46.95h-148.23z" class="color454545 svgShape"></path><rect width="181.06" height="181.06" x="2957.83" y="764.15" fill="#282828" rx="10.11" class="color282828 svgShape"></rect><path fill="#454545" d="M2977.31 836.47h142.1v87.66h-142.1zM3112.14 775a8.6 8.6 0 1 0 8.61 8.6 8.6 8.6 0 0 0-8.61-8.6ZM3112.14 800.57a8.6 8.6 0 1 0 8.61 8.6 8.6 8.6 0 0 0-8.61-8.6Z" class="color454545 svgShape"></path><path fill="#282828" d="M2486.35 805.26h99.51v41.36h28.6v-69.96h-128.11v28.6z" class="color282828 svgShape"></path><path fill="#282828" d="M2564.68 820.69h70.96v67.57h-70.96z" class="color282828 svgShape"></path><path fill="#454545" d="M2525.22 747.89h-144.95a45.34 45.34 0 0 0 0 90.68h144.95a15.2 15.2 0 0 0 15.2-15.2v-60.28a15.2 15.2 0 0 0-15.2-15.2Z" class="color454545 svgShape"></path><path fill="#282828" d="M2977.31 986.93h221.99v158.71h-221.99z" class="color282828 svgShape"></path><path fill="#454545" d="M3124.53 986.93h14.36v158.71h-14.36zM3073.7 1001.5a12.27 12.27 0 1 0 12.27 12.27 12.27 12.27 0 0 0-12.27-12.27ZM3073.7 1038.89a12.27 12.27 0 1 0 12.27 12.27 12.27 12.27 0 0 0-12.27-12.27ZM3073.7 1076.28a12.27 12.27 0 1 0 12.27 12.27 12.27 12.27 0 0 0-12.27-12.27Z" class="color454545 svgShape"></path><path fill="#e44438" d="M3266.49 1160.13h-99.89l-60.26 2-169.63 18s-61.4 97-44.44 281.47c16 174.95 15.66 315.73 16 409.87.35 80.57-3.42 102.62-5.81 131.7 27.53 10.87 96.44 30.53 214.33 18.28 97.89-10.17 217.42-18.92 306.33-19.17 29.81-.09 56.18.78 77.13 2.87-12.18-66-15.62-149.49-14.3-235.75 2.36-153.28 19.9-315.38 30.29-404.25 3-25.59 5.39-45.11 6.66-56.6l-30.47-78.47Z" class="colore44438 svgShape"></path><path fill="#cc2c38" d="M3516.26 1365.19c-5.11-7.23-8.81-12.16-10.62-14.35-11.22-13.46-148.81-45.84-148.81-45.84-17.95 6.73-198.84 65.59-221.28 76.8s-253.84-122-253.84-122-2.2 433.71 166.06 478.59 325.49-125.06 365.88 49.94c20.22 87.65 17.38 161.8 9.49 214 29.81-.09 56.18.78 77.13 2.87-12.18-66-15.62-149.49-14.3-235.75 2.36-153.29 19.9-315.39 30.29-404.26Z" class="colorcc2c38 svgShape"></path><path fill="#9e4c23" d="M3337.84 855.5a14.77 14.77 0 0 0 6.25-6.83c4.87-11.54-7.59-28-28.41-38.91 8.93-.34 16.77-3.53 22-9.79 12.41-15 5-41.63-16.62-59.52-15.56-12.89-34.2-17.67-48.06-13.75a47.19 47.19 0 0 0-76.9-5.1c-4.16-12.6-12.64-25.18-24.92-35.35-27.37-22.68-63.06-24.77-79.71-4.67-8.65 10.43-10.4 24.8-6.32 39.37-10.78-5-25.34-5.56-39.75-.43-24.22 8.61-38.74 29.94-32.45 47.62a27.06 27.06 0 0 0 10.81 13.44c-11.58 17.72-12.35 38-.83 47.49.3.25.63.45 1 .68a31.72 31.72 0 0 0 2.32 38.86 55.78 55.78 0 0 0-8.35 26.61c-1 19.65 8 37.3 22.36 47.33-4.58 12.9 15.49 34.86 39.23 17.79 8.13-5.85 61.84 63.69 62.53 50.79.14-2.73 55.72 8.48 94.79 16.7a26 26 0 0 0 31.37-26.38c-.91-21.65 4.15-47.81 30-60.53 25.09-12.36 26.66-38.57 22.76-44.47 14.67.5 26.68-4.82 29.71-14.45 2.65-8.72-2.65-18.75-12.81-26.5Z" class="color9e4c23 svgShape"></path><path fill="#f19a6d" d="M3214.34 1003.92c-1.73-3.56-15.51-13.37-15.51-13.37l-89.64 81.13-8.61 89.16-1.43 23.06c5.66 16.65 58.41 52.22 58.41 52.22s48.14-29.45 71.88-38.23l41.68-20.84-30.78-200.72s-24.28 31.16-26 27.59Z" class="colorf19a6d svgShape"></path><path fill="#ee6a4a" d="m3109.19 1071.68-4.91 45.84s86.36 31.82 114.14-87.67l-19.59-39.3Z" class="coloree6a4a svgShape"></path><path fill="#f19a6d" d="M3236.17 828.26s-125.61 6.35-157.48-23.38a85.35 85.35 0 0 0-12.17 20.23 221.74 221.74 0 0 0-4 12.07c-1.16 3.85-2.06 7.74-3 11.65-4.52 18.36-8.14 40.86-3.3 51.26 0 0-39.81 95.71 36.46 178.14 8.7 9.39 50.73 4.36 62.5 2 65.06-13 83.19-64.42 88-98.27.11-.81.21-1.59.31-2.38.56-4.39.89-8.45 1.08-12l-4.57-24.29Z" class="colorf19a6d svgShape"></path><path fill="#ef7c59" d="M3055.69 898.77c.17.45.32.91.51 1.32 0 0-23 55.52-.35 118.4 15.19-14.09 24.91-35.63 24.91-59.79s-9.76-45.84-25.07-59.93ZM3239.49 921.5c-24.65 0-44.64 25.54-44.64 57 0 25.36 13 46.83 30.87 54.25 22.71-37.28 18.73-81.53 18.73-81.53 1.44-4.26 17.22-6.82 28.83-9.93-8.18-12.09-20.28-19.79-33.79-19.79Z" class="coloref7c59 svgShape"></path><path fill="#38261f" d="m3113.76 995.89-1.63 4a46.71 46.71 0 0 0 14.95 2.78c12.48.51 31.45-2.67 51.94-20.28l-2.8-3.26c-32.94 28.28-62.17 16.87-62.46 16.76Z" class="color38261f svgShape"></path><path fill="#9e4c23" d="M3201.19 874.91c-1.26-.77-32-14.73-38.22-8.46-2.5 2.5-2.87 7.66-.86 11.16 3.4 5.92 11.58 3.42 30.41 8.55 8.83 2.41 12.37 4.41 13.21 3.17 1.44-2.13 4.97-8.59-4.54-14.42ZM3072.05 865.18c-8.15 3.87-8.38 11.2-7.7 13.29.4 1.23 3.4-.06 10.42-1 14.94-2 20.56 1.42 24.19-3.37 2.14-2.83 2.81-7.48 1.42-10-3.51-6.47-27.25.58-28.33 1.08Z" class="color9e4c23 svgShape"></path><path fill="#38261f" d="M3177.86 909.5c-3.11-.81-6.67 2.49-7.94 7.37s.21 9.5 3.32 10.31 6.67-2.48 8-7.36-.24-9.5-3.38-10.32ZM3087.82 898.06c-2.84-.74-6.17 2.6-7.44 7.47s0 9.42 2.83 10.16 6.17-2.6 7.44-7.47.01-9.42-2.83-10.16Z" class="color38261f svgShape"></path><path fill="#9e4c23" d="M3243.13 982c.11-.81.21-1.59.31-2.38l-.65 1.58a7.11 7.11 0 0 0 .34.8Z" class="color9e4c23 svgShape"></path><path fill="#f19a6d" d="M3278.09 912.26c-19.81-6.33-41.55 6.33-48.55 28.26s3.38 44.84 23.2 51.16 41.54-6.33 48.54-28.26-3.38-44.84-23.19-51.16Z" class="colorf19a6d svgShape"></path><path fill="#38261f" d="M3266.08 935c-6.72 2.17-12.14 8-16.11 17.46l-1.08 2.54 2.73.42c3.9.61 14.49 3.46 16.59 9.26l4-1.46c-2.57-7.12-12.38-10.31-17.23-11.48 3.3-6.78 7.44-11 12.33-12.62 6.61-2.16 12.55 1.32 12.61 1.36l2.23-3.68a20.81 20.81 0 0 0-16.07-1.8Z" class="color38261f svgShape"></path><path fill="#9e4c23" d="m3239.5 933.86 1.3-110-10.34-22.12s-31.18 124.89 9.04 132.12Z" class="color9e4c23 svgShape"></path><path fill="#38261f" d="m3122.88 925.14-.78-4.23c-4.52.85-27.23 5.44-30.73 13a5.32 5.32 0 0 0 .23 5c5.05 8.89 17.19 16.19 17.7 16.49l2.2-3.69c-.11-.07-11.68-7-16.16-14.92a1 1 0 0 1-.06-1.09c1.89-4.07 17.28-8.62 27.6-10.56Z" class="color38261f svgShape"></path><path fill="#cc2c38" d="M3331.2 1061.26a1.88 1.88 0 0 1 .16-.65c11.6-35.22-54.83-28.36-63.81 7.27s-49.19 134.33-110 168.24c0 0 184.83-36.77 200.28-75.34 10.54-26.39-11.12-47.06-22.23-68.8-4.97-9.8-7.75-19.85-4.4-30.72ZM3054.9 1148.44s16 55 102.66 87.65c0 0-45.85-70.55-51.81-130 0 .03-43.51-12.66-50.85 42.35Z" class="colorcc2c38 svgShape"></path><path fill="#ffffff" d="M3181.14 1222.84a4.09 4.09 0 0 0-4.21 4l-9 303.94a4.08 4.08 0 0 0 4 4.2h.13a4.09 4.09 0 0 0 4.08-4l9-303.94a4.08 4.08 0 0 0-4-4.2ZM3140.34 1219.72a4.12 4.12 0 0 0-4.21 4l-9 303.93a4.08 4.08 0 0 0 4 4.21h.12a4.08 4.08 0 0 0 4.08-4l9-303.94a4.09 4.09 0 0 0-3.99-4.2Z" class="colorfff svgShape"></path><path fill="#ac2c38" d="M3331.2 1061.26c-7.11 2.12-23.13 10-30.4 39.06-9.48 37.83-53.27 68.39-53.27 68.39s49.6-9.89 64.87-42.49a125.71 125.71 0 0 1 23.21-34.24c-4.98-9.8-7.76-19.85-4.41-30.72Z" class="colorac2c38 svgShape"></path><path fill="#f19a6d" d="M2891.62 648.38a18.73 18.73 0 1 0-36.7 6.93l20.64 77.35a12.78 12.78 0 0 0 25-4.73Z" class="colorf19a6d svgShape"></path><path fill="#f19a6d" d="M2855.08 647.48a18.72 18.72 0 1 0-35.84 10.5l28.14 74.95a12.77 12.77 0 0 0 24.45-7.16Z" class="colorf19a6d svgShape"></path><path fill="#f19a6d" d="M2824.57 650.15a18.73 18.73 0 1 0-33.75 16l39.58 69.59a12.77 12.77 0 0 0 23-10.92Z" class="colorf19a6d svgShape"></path><path fill="#f19a6d" d="M2796.72 655.45a18.72 18.72 0 0 0-23.57-14.06 18.73 18.73 0 0 0-12.27 24.61l28.12 74.89a12.77 12.77 0 0 0 24.45-7.16Z" class="colorf19a6d svgShape"></path><path fill="#e44438" d="M3565.3 1331.06c-27-60-72.06-100.56-72.06-100.56l-396 219.52c-60 27-118.46 73.2-91.44 133.15 27 59.95 66.42 120.55 126.37 93.53l373.21-187.52c59.95-27 86.9-98.17 59.88-158.12Z" class="colore44438 svgShape"></path><path fill="#f19a6d" d="M3015.35 1209.76c-4.28-10.86-7.54-19.32-9.49-24.62 1.21-9.66 1.67-44.48-12.4-67.56-16-26.22-54.12-77-58.82-82.86s-18.49-13.77-21-.36 30.75 59.62 24 65.76-39.77-33.4-43.39-51.63-12.88-67.27-14-82.25-12.23-19.42-19.87-11.82c0 0-2.62-21.48-15.18-19.46s-18.4 38.17-18.4 38.17-14.57-11.73-21.29 3.11c-7.24 16-5.94 69.09-6.08 89.33s20.63 77.11 41.3 108.67a400.27 400.27 0 0 0 35.07 45.32c1.29 8.36 3.32 22.36 5.87 40.26 8.84 62.45 41.93 147.5 53.65 232.65 26.66 71.25 73.36 146.89 120.52 154 54.78 8.25 76.46 14.42 108.7.86 7.38-26.15 6.67-54.38-4.13-79.29.06-.04-108.82-266.12-145.06-358.28Z" class="colorf19a6d svgShape"></path><path fill="#ee6a4a" d="M2862.52 1051.39c-5.36-18.63.45-93 .51-93.79a2.63 2.63 0 0 0-5.25-.41c-.24 3.09-5.94 76.11-.32 95.66a90.44 90.44 0 0 0 17.77 33.15 2.63 2.63 0 0 0 3.89-3.54 87 87 0 0 1-16.6-31.07ZM2825.18 1047.59c.74-16.77 4.25-73.72 4.29-74.3a2.63 2.63 0 1 0-5.26-.32c0 .57-3.55 57.57-4.28 74.39-.69 15.7 5.43 33.58 18.2 53.13a2.63 2.63 0 1 0 4.4-2.88c-12.15-18.61-17.99-35.44-17.35-50.02Z" class="coloree6a4a svgShape"></path><path fill="#ac2c38" d="m2877.3 1239 7.39 28c31.71-54 147.79-39.05 147.79-39.05l-19.74-43.67c-69.6-13.15-135.44 54.72-135.44 54.72Z" class="colorac2c38 svgShape"></path><path fill="#e44438" d="M3092.89 1343.5c-15.72-49.17-37.39-83.76-66.44-129-2.35-3.66-7.57-3.52-11.1-4.77-37.12-13.13-55.86 10.2-95.09 19.26-20.88 4.82-32.34 15.16-38.55 30.8-6.59 16.54-7.31 39-7.12 67.19.21 32.58 8.51 63.82 14.32 101.4 7.22 26.39 16.75 57.83 28.44 89.08 26.66 71.24 86.79 173.26 134 180.37 54.78 8.25 154-60 159-63.32 1.32-47.93-7.74-97.68-37.08-141-46.89-69.17-64.65-100.83-80.38-150.01Z" class="colore44438 svgShape"></path><path fill="#f58b48" d="M1129.73 2321.89h2622.25v325.93H1129.73z" class="colorf58b48 svgShape"></path><path fill="#a84531" d="M1064.51 2321.89h2752.7v54.6h-2752.7z" class="colora84531 svgShape"></path><path fill="#d16247" d="M2539 2452.21c-381.65-44.44-650.33 95.72-650.33 95.72V2760s268.68-140.17 650.33-95.72 752.44 156.33 1247.69 51.09v-212.06c-495.24 105.23-866.03-6.65-1247.69-51.1Z" class="colord16247 svgShape"></path><path fill="#a84531" d="M2539 2476.83c-381.65-44.45-650.33 95.72-650.33 95.72v162.83s268.68-140.16 650.33-95.72 752.44 156.33 1247.69 51.1v-162.84c-495.24 105.24-866.03-6.65-1247.69-51.09Z" class="colora84531 svgShape"></path><path fill="#d16247" d="M2083.2 2492.49h18.1v180.23h-18.1zM2331.21 2462.5h18.1v180.23h-18.1zM2579.22 2475.64h18.1v180.23h-18.1zM2827.23 2509.22h18.1v180.23h-18.1zM3075.24 2543.28h18.1v180.23h-18.1zM3323.25 2561.49h18.1v180.23h-18.1zM3571.27 2548.14h18.1v180.23h-18.1z" class="colord16247 svgShape"></path><path fill="#ffa99c" d="m1958.59 2657.98 63.95-46.11-63.95-46.11v92.22zM2194.72 2604.68l63.95-46.11-63.95-46.11v92.22zM2691.51 2628.71l63.95-46.11-63.95-46.11v92.22zM3181.98 2688.84l63.96-46.11-63.96-46.11v92.22zM3678.22 2674.82l63.95-46.11-63.95-46.11v92.22zM2443.89 2599.13l63.96-46.1-63.96-46.11v92.21zM2936.68 2663.72l63.96-46.11-63.96-46.11v92.22zM3434.8 2701.98l63.96-46.1-63.96-46.12v92.22z" class="colorffa99c svgShape"></path><path d="M1991.81 2321.15h509v-347.91h-509Zm452.58-327.32h38.51v38.51h-38.51Zm0 67.28h38.51v38.5h-38.51Zm0 63.73h38.51v38.51h-38.51Zm0 67.28h38.51v38.51h-38.51Zm0 65.51h38.51v38.51h-38.51Zm-431.11-263.8h38.51v38.51h-38.51Zm0 67.28h38.51v38.5h-38.51Zm0 63.73h38.51v38.51h-38.51Zm0 67.28h38.51v38.51h-38.51Zm0 65.51h38.51v38.51h-38.51Z" fill="#000000" class="color000 svgShape"></path><path fill="#ffffff" d="M2068.83 1985.2h354.99v324h-354.99z" class="colorfff svgShape"></path><circle cx="2247.31" cy="2148.47" r="132.37" fill="#8c8c8c" transform="rotate(-45 2247.307 2148.475)" class="color8c8c8c svgShape"></circle><path d="M2247.31 2029a119.48 119.48 0 1 0 119.48 119.48A119.62 119.62 0 0 0 2247.31 2029Zm0 232.52a113 113 0 1 1 113-113 113.16 113.16 0 0 1-113 112.99Z" fill="#000000" class="color000 svgShape"></path><path d="M2247.31 2001.05a3.22 3.22 0 0 0-3.22 3.22v40.28a3.22 3.22 0 0 0 6.44 0v-40.28a3.23 3.23 0 0 0-3.22-3.22ZM2247.31 2246a3.22 3.22 0 0 0-3.22 3.22v40.28a3.22 3.22 0 0 0 6.44 0v-40.28a3.23 3.23 0 0 0-3.22-3.22ZM2386.68 2145.25h-40.28a3.23 3.23 0 1 0 0 6.45h40.28a3.23 3.23 0 0 0 0-6.45ZM2147.68 2145.25h-40.28a3.23 3.23 0 0 0 0 6.45h40.28a3.23 3.23 0 1 0 0-6.45ZM2284.81 2139.35a38.9 38.9 0 0 0-16.31-8l-8.65 8.79-18.79-10.65h10.31a72 72 0 0 1 17.13 1.86l21.47-21.82v-24.12h-86.84v29.61h41.63l12.93-13.14 3.5 13.14h-16.43l-17.18 17.47v24.12h15.47q7.48 0 10.65 2.08a6.66 6.66 0 0 1 3.16 5.9 7.2 7.2 0 0 1-4.24 6.74 23.18 23.18 0 0 1-10.9 2.25 63.42 63.42 0 0 1-15.55-2.08 61.18 61.18 0 0 1-15.72-6.41l-13.31 28.95a78.68 78.68 0 0 0 21.62 7.82 115.06 115.06 0 0 0 24.29 2.66q18.63 0 30.36-5.82t17.3-15a36.23 36.23 0 0 0 5.58-19.14q0-15.39-11.48-25.21Z" fill="#000000" class="color000 svgShape"></path><path d="m2241.06 2129.53 18.79 10.65 8.65-8.79a72 72 0 0 0-17.13-1.86ZM2257.69 2101.92l-12.93 13.14h16.43l-3.5-13.14z" fill="#000000" class="color000 svgShape"></path><path fill="#fdab05" d="M2199.65 614.17c0-100.74-81.71-182.46-182.46-182.46s-182.46 81.72-182.46 182.46 81.71 182.47 182.46 182.47a181.35 181.35 0 0 0 108.7-36l89.38 22.82-37.21-83.23a180.93 180.93 0 0 0 21.59-86.06Z" class="colorfdab05 svgShape"></path><path fill="#ffffff" d="M1915.51 594.58a25 25 0 1 0 25 25 25 25 0 0 0-25-25ZM2010.69 594.58a25 25 0 1 0 25 25 25 25 0 0 0-25-25ZM2105.87 594.58a25 25 0 1 0 25 25 25 25 0 0 0-25-25Z" class="colorfff svgShape"></path><path fill="#52b4ff" d="M3928.57 747.68h-411.65a29.76 29.76 0 0 0-29.75 29.76v301.43a16.32 16.32 0 0 0 27.3 12.08l39.26-35.69a16.28 16.28 0 0 1 11-4.25h363.86a29.75 29.75 0 0 0 29.76-29.76V777.44a29.76 29.76 0 0 0-29.78-29.76Z" class="color52b4ff svgShape"></path><path fill="#f9394a" d="M3549.68 871.88a24.69 24.69 0 1 0 24.68 24.69 24.68 24.68 0 0 0-24.68-24.69Z" class="colorf9394a svgShape"></path><path fill="#ffffff" d="M3628.6 900.3h-13.59l11.81 12.21 1.78-1.68V900.3z" class="colorfff svgShape"></path><path fill="#ffffff" d="m3628.6 910.83-1.78 1.68 1.78 1.83v-3.51zM3672.41 919q-10.69 4.66-25.34 4.66h-2.13l19.38 28.39h32.36l-23.07-33.62c-.4.19-.79.39-1.2.57ZM3615.01 869h13.59v-13.89L3615.01 869z" class="colorfff svgShape"></path><path fill="#ffffff" d="M3672.41 919c.41-.18.8-.38 1.2-.57l-3.64-5.31h-32.21l7.18 10.54h2.13q14.66 0 25.34-4.66ZM3626.82 912.51l-11.81 11.14h13.59v-9.31l-1.78-1.83z" class="colorfff svgShape"></path><path fill="#ffffff" d="m3670 913.12 3.64 5.31a36 36 0 0 0 15.21-12.79q5.73-8.7 5.72-21.06 0-12.06-5.72-21a36.44 36.44 0 0 0-16.41-13.67q-10.69-4.73-25.34-4.73h-48.7v106.87h30.23v-28.39H3615l11.81-11.15L3615 900.3h13.59V869H3615l13.59-13.9V869h16.64q9.47 0 14.19 4.19t4.74 11.38q0 7.47-4.74 11.6t-14.19 4.12h-16.63v23.36h16.34l-7.18-10.54ZM3741.1 886.56h47.48V909h-47.48z" class="colorfff svgShape"></path><path fill="#ffffff" d="M3741.1 909h-2.14v-22.44h2.14V868.7h53.89v-23.51h-83.66v106.86h85.64v-23.51h-55.87V909z" class="colorfff svgShape"></path><path fill="#ffffff" d="M3738.96 886.56h2.14V909h-2.14zM3847.12 876.41a25.64 25.64 0 0 1 9.39-6.18 32.87 32.87 0 0 1 12.06-2.14 29.64 29.64 0 0 1 13.73 3.21 37.37 37.37 0 0 1 11.45 9.31L3913 863.2a49.7 49.7 0 0 0-19.47-15 70.26 70.26 0 0 0-49.84-1.07 56.09 56.09 0 0 0-18.62 11.45 52.32 52.32 0 0 0-12.37 17.63 59.17 59.17 0 0 0 0 44.88 52.22 52.22 0 0 0 12.37 17.63 55.92 55.92 0 0 0 18.62 11.45 65.42 65.42 0 0 0 23.36 4.05 64.7 64.7 0 0 0 26.48-5.19 50.29 50.29 0 0 0 19.47-15.15l-19.24-17.4a36.57 36.57 0 0 1-11.46 9.52 29.75 29.75 0 0 1-13.73 3.2 32.87 32.87 0 0 1-12.06-2.14 25.64 25.64 0 0 1-9.39-6.18 29.09 29.09 0 0 1-6.11-9.69 36.57 36.57 0 0 1 0-25 29.19 29.19 0 0 1 6.11-9.78Z" class="colorfff svgShape"></path><rect width="350.53" height="350.53" x="2451.79" y="1502.56" fill="#fd3873" rx="52.32" class="colorfd3873 svgShape"></rect><path fill="#ffffff" d="M2627.06 1553.37c-.62 0-1.22.08-1.84.09a5.35 5.35 0 0 0-1.38.07 124 124 0 0 0-89.83 41.93 5.62 5.62 0 0 0-1.6 1.75 124.34 124.34 0 1 0 94.65-43.84Zm-17.93 13.05q-21.16 21.9-34.56 43.75a223.3 223.3 0 0 1-27.77-11.73 112.83 112.83 0 0 1 62.33-32.02Zm-70.13 40.87a233.36 233.36 0 0 0 29.87 12.92q-13.85 26.07-16.46 51.86h-38a112.27 112.27 0 0 1 24.59-64.78Zm-1 139.78a112.23 112.23 0 0 1-23.62-63.51h37.4a112.85 112.85 0 0 0 .49 11.78 120.57 120.57 0 0 0 10.8 38.82 131.18 131.18 0 0 0-25.07 12.91Zm7.54 8.74a121.76 121.76 0 0 1 22.69-11.53c11.14 19.72 25.72 34.72 36.87 44.32a112.74 112.74 0 0 1-59.55-32.79Zm75.76 31c-9.65-7.31-28.26-23.33-41.86-46.34a147.08 147.08 0 0 1 41.86-5.89Zm0-63.45a161.62 161.62 0 0 0-36.49 4c-3.78.88-7.34 1.87-10.74 2.92a108.5 108.5 0 0 1-10.37-36.2 100.45 100.45 0 0 1-.43-10.56h58Zm0-51.29h-57.38q2.68-23.86 16-48.3a187.78 187.78 0 0 0 41.34 7.29Zm0-52.33a173 173 0 0 1-35.44-6q13.64-21.51 35.44-43.3Zm86.05-21.24a122 122 0 0 1-24.09 12.22c-11.15-19.61-25.68-34.53-36.79-44.07a112.76 112.76 0 0 1 60.89 31.85Zm-74.55-28.1c10.05 7.93 26.68 23.06 39.2 44a147.38 147.38 0 0 1-39.2 5.62Zm0 60.9a161.37 161.37 0 0 0 34.73-4c3.48-.81 6.73-1.73 9.88-2.69a108.8 108.8 0 0 1 10.58 36.66 103 103 0 0 1 .43 10.83h-55.62Zm0 52.26h55q-2.69 23.34-15.59 47.22a188.57 188.57 0 0 0-39.36-7.07Zm0 51.48a174.36 174.36 0 0 1 33.48 5.87q-13 20.68-33.48 41.62Zm9.05 54.66q22-22.67 35.74-45.28a225.92 225.92 0 0 1 29.76 12.72 112.7 112.7 0 0 1-65.49 32.56Zm73.36-41.44a236.32 236.32 0 0 0-31.92-13.94q13.38-25.5 16-50.76h40.42a112.35 112.35 0 0 1-24.49 64.7Zm24.51-76.19h-39.81a118.29 118.29 0 0 0-.48-12 121 121 0 0 0-11-39.19 131.66 131.66 0 0 0 26.58-13.69 112.29 112.29 0 0 1 24.72 64.88Z" class="colorfff svgShape"></path><path fill="#3c251d" d="M1130.64 1901.92c-46.62-30.93 50.06-131.23 20.78-174.06s-106.08-3.5-152.68-15.75-44.59-70.19-44.59-70.19l-40.69 6.76s9.55 43.78 47.28 75.25 91.72-4.13 145.46 22.26-56.57 124 3.7 176.31 244 96.22 244 96.22l-61.31-51.38s-115.34-34.48-161.95-65.42Z" class="color3c251d svgShape"></path><circle cx="1387.72" cy="2063.81" r="178.87" fill="#3c251d" transform="rotate(-45 1387.718 2063.809)" class="color3c251d svgShape"></circle><path fill="#e44438" d="M1219.16 1871.29c-106.47 96-114.94 260.2-18.91 366.68s260.21 114.94 366.68 18.91 115-260.2 18.91-366.68-260.2-114.95-366.68-18.91Zm-46.47 196.39a60.38 60.38 0 1 1 85.28 4.4 60.37 60.37 0 0 1-85.28-4.4Zm128.09 169.06a60.38 60.38 0 1 1 4.4-85.28 60.38 60.38 0 0 1-4.4 85.28Zm-1.22-307.87a60.38 60.38 0 1 1 85.27 4.4 60.36 60.36 0 0 1-85.27-4.4Zm152.08 367a60.38 60.38 0 1 1 4.39-85.28 60.38 60.38 0 0 1-4.39 85.24Zm155.52-197.19a60.38 60.38 0 1 1-85.28-4.4 60.39 60.39 0 0 1 85.28 4.36Zm-41-117.54a60.38 60.38 0 1 1 4.4-85.27 60.37 60.37 0 0 1-4.37 85.23Z" class="colore44438 svgShape"></path><path fill="#3c251d" d="M1376.75 2038.13a27.93 27.93 0 1 0 39.44 2 27.92 27.92 0 0 0-39.44-2ZM1332.83 2088.59a21.88 21.88 0 1 0 30.91 1.59 21.88 21.88 0 0 0-30.91-1.59ZM1425.63 2002.17a21.89 21.89 0 1 0 30.91 1.6 21.89 21.89 0 0 0-30.91-1.6ZM1341.71 1999.27a21.89 21.89 0 1 0 30.91 1.59 21.89 21.89 0 0 0-30.91-1.59ZM1414.06 2088.5a21.89 21.89 0 1 0 30.91 1.6 21.89 21.89 0 0 0-30.91-1.6Z" class="color3c251d svgShape"></path><path fill="#fdd305" d="M3725.26 1890.52c-2.37-127.32-107.49-228.62-234.82-226.26s-228.62 107.49-226.26 234.81A229.49 229.49 0 0 0 3310.9 2034c33.83 49 120.37 103.38 121 136.92l.71 38.32a13.84 13.84 0 0 0 14.11 13.59l37.05-.68 34-.63 37-.69a13.86 13.86 0 0 0 13.6-14.11l-.71-38.32c-.63-33.54 83.84-91.11 115.83-141.31a229.56 229.56 0 0 0 41.77-136.57Z" class="colorfdd305 svgShape"></path><path fill="#ffffff" d="M3618.44 1895.24a37.94 37.94 0 0 0-19.86-5 47.24 47.24 0 0 0-13 2.16c-17.75 5.45-34.32 20.92-44.32 41.39-9.54 19.51-16.23 51.37-19.9 94.77-7.69.91-15.77 1.45-24.09 1.6a240.81 240.81 0 0 1-24.14-.71c-5.28-43.23-13.15-74.82-23.39-94-10.76-20.09-27.89-34.94-45.83-39.73a47.37 47.37 0 0 0-13.11-1.67 38 38 0 0 0-19.67 5.72c-15.33 9.55-23.21 33-19.14 57 3.6 21.28 14.52 40.48 31.57 55.5 18.87 16.62 44.06 27.27 74.93 31.68 8.46 81 6.05 173.31 6 174.25l-.16 6 16 .46.17-6c.11-3.86 2.49-92.89-5.61-173 7.3.49 14.87.67 22.62.53s15.32-.61 22.59-1.37c-5.12 80.22.56 169.21.81 173.06l.39 6 16-1-.39-6c-.06-.93-5.92-92.63-.43-174.34 30.68-5.56 55.46-17.13 73.7-34.44 16.48-15.65 26.69-35.23 29.5-56.64 3.18-24.12-5.56-47.23-21.24-56.22Zm-250.68 58.87c-2.86-16.89 2.33-34.76 11.82-40.67a22.16 22.16 0 0 1 11.5-3.29 31.37 31.37 0 0 1 8.65 1.13c13.74 3.66 27.13 15.55 35.83 31.8 9 16.71 16 45.07 21 84.36-49.41-8.31-82.37-35.35-88.8-73.33Zm256-4.75c-5 38.19-36.95 66.44-86 76.57 3.52-39.44 9.52-68 17.85-85.08 8.09-16.56 21-28.93 34.62-33.1a31.31 31.31 0 0 1 8.6-1.45 22.2 22.2 0 0 1 11.62 2.85c9.72 5.56 15.55 23.23 13.34 40.21Z" class="colorfff svgShape"></path><path fill="#ffffff" d="M3615.47 1900.43c-8.14-4.66-17.88-5.45-28.18-2.29-16.19 5-31.41 19.29-40.7 38.3-10.72 22-16.64 58.18-19.7 97.45a254.6 254.6 0 0 1-59.17 1.09c-4.52-39.12-11.77-75.11-23.3-96.65-10-18.65-25.72-32.4-42.09-36.77-10.41-2.77-20.11-1.62-28.07 3.34-13.12 8.18-20 29.58-16.41 50.89 6.17 36.46 37.49 74.62 106 82.86 9.11 82.5 6.61 178.3 6.57 179.73l4.07.12c.16-5.79 2.57-98.41-6.34-179.37a259.85 259.85 0 0 0 58.38-1.09c-5.9 81.25-.06 173.71.32 179.48l4.06-.26c-.09-1.42-6.14-97.07-.1-179.85 68.2-10.77 98.09-50.08 102.91-86.74 2.85-21.42-4.84-42.55-18.25-50.24Zm-253.61 54.68c-3.29-19.43 3-39.53 14.55-46.75a28.13 28.13 0 0 1 14.56-4.19 37.35 37.35 0 0 1 10.31 1.33c15.3 4.08 30.09 17.07 39.55 34.75 11.09 20.72 18.14 55.82 22.59 94.24-65.67-8.23-95.68-44.61-101.56-79.38Zm267.86-5c-4.59 35-33.23 72.44-98.55 83.09 3-38.55 8.76-73.89 19.08-95 8.8-18 23.1-31.54 38.24-36.19a37.27 37.27 0 0 1 10.25-1.71 28.2 28.2 0 0 1 14.71 3.64c11.84 6.81 18.84 26.67 16.27 46.2Z" class="colorfff svgShape"></path><path fill="#ffee99" d="M3541.58 1694.75a13.23 13.23 0 1 0-6 25.76 178.74 178.74 0 0 1 138.09 171 13.23 13.23 0 1 0 26.45-.49 205.16 205.16 0 0 0-158.54-196.27ZM3499.69 1688.89a13.23 13.23 0 1 0 13.47 13 13.22 13.22 0 0 0-13.47-13Z" class="colorfe9 svgShape"></path><path fill="#ffc043" d="M3498.54 2100.82c-141.05 2.62-216.42-98.46-233.66-188.12a229.41 229.41 0 0 0 46 121.3c33.83 49 120.37 103.38 121 136.92l.71 38.32a13.84 13.84 0 0 0 14.11 13.59l37.05-.68 34-.63 37-.69a13.86 13.86 0 0 0 13.6-14.11l-.71-38.32c-.63-33.54 83.84-91.11 115.83-141.31a229.32 229.32 0 0 0 41.49-122.93c-10.87 94.77-85.37 194.05-226.42 196.66Z" opacity=".55" class="colorffc043 svgShape"></path><path fill="#28364c" d="m3560.88 2184.9-121.53 2.25A12.61 12.61 0 0 0 3427 2200l2 106.8a12.6 12.6 0 0 0 12.84 12.37l121.53-2.25a12.61 12.61 0 0 0 12.37-12.84l-2-106.8a12.61 12.61 0 0 0-12.86-12.38Z" class="color28364c svgShape"></path><path fill="#475577" d="M3572.48 2198.36 3426 2216.3a8.79 8.79 0 0 0-7.62 10.2 9.56 9.56 0 0 0 9.21 8 9.07 9.07 0 0 0 1.27-.06l146.46-17.94a8.78 8.78 0 0 0 7.62-10.19 9.55 9.55 0 0 0-10.46-7.95ZM3573.08 2230.37l-146.46 17.93a8.8 8.8 0 0 0-7.63 10.2 9.56 9.56 0 0 0 9.21 8.05 7.79 7.79 0 0 0 1.27-.07l146.46-17.93a8.8 8.8 0 0 0 7.63-10.2 9.55 9.55 0 0 0-10.48-7.98ZM3571.89 2262.88l-138.83 17a8.8 8.8 0 0 0-7.62 10.2 9.58 9.58 0 0 0 9.21 8.05 10.93 10.93 0 0 0 1.27-.07l138.82-17a8.8 8.8 0 0 0 7.63-10.2 9.55 9.55 0 0 0-10.48-7.98Z" class="color475577 svgShape"></path><g style="isolation:isolate" fill="#000000" class="color000 svgShape"><path fill="#0a0909" d="M1255.38 626.2a40.43 40.43 0 0 1 12.81-1.14 46.29 46.29 0 0 1 6.61.93 54.85 54.85 0 0 1 6.72 1.91c11.29 4 22.68 12.15 33.81 23.67 10.93 11.29 21.66 25.88 31.8 43a426.73 426.73 0 0 1 27.31 55.55c.32.77.64 1.54 1 2.31a631.21 631.21 0 0 1 23.32 69.25l8.69-1.65c-.16-.58-.32-1.15-.47-1.72s-.32-1.13-.48-1.69-.32-1.13-.48-1.71-.32-1.12-.46-1.68c.25-3 .25-3 13.61-5.83a9.48 9.48 0 0 1 4.06 1.17 14.71 14.71 0 0 1 1.12 2.83c.15.57.31 1.12.48 1.69s.31 1.15.47 1.71.3 1.15.46 1.71l8.47-1.62q-4.92-18.08-10.47-35c-3.7-11.32-7.62-22.25-11.71-32.69q-1.1-2.78-2.2-5.51-5.16-12.79-10.65-24.56c-4.45-9.58-9.07-18.64-13.78-27.11a5.81 5.81 0 0 1-.39-1.92c-.06-2.83 2.49-4.92 7.83-6.48l5.74-1.3 127-28.9c7.37-1.24 12.19-.07 14.78 3.61 4.34 8.93 8.61 18.47 12.76 28.53q6 14.57 11.65 30.58c.11.32.24.65.35 1q5.75 16.43 11.1 34.19 4.1 13.7 7.9 28.11 4.56-1.44 9-2.88a18.08 18.08 0 0 1 4.51-1.47q12.14-4 23-8c-5.1-19.3-10.6-37.69-16.42-54.95q-.92-2.73-1.85-5.43a588.06 588.06 0 0 0-25.28-62.33c-9-18.63-18.26-34.58-27.61-47.12-9.53-12.77-19.14-22-28.5-27a39.65 39.65 0 0 0-5.56-2.43 33 33 0 0 0-5.42-1.4 26.4 26.4 0 0 0-5.29-.33 25.28 25.28 0 0 0-5.14.73l-11.26 2.83c.23-.06.47-.12.71-.16s.62-.13.93-.18.62-.11.93-.14.62-.09.93-.12c-.23.17-.37.26-3.54 1.08l-12.76 3.18c-1 .25-4 1-5.54 1.22l-1 .1c-.33.07-.65.12-1 .16l-.94.19-.75.18h-.2L1285 618.77l.56-.13c.36-.08.73-.16 1.11-.22l1.11-.2 1.12-.16h.16a16 16 0 0 1-3.06.9l-11.48 2.87c-3.17.78-4.68 1.07-5.29 1.16-.37 0-.75.09-1.14.16l-1.12.2c-.38.07-.75.16-1.12.24s-.61.13-.91.21h-.07Zm328.56 123.45c-.42-1.76.87-3.29 3.25-3.86l11.78-2.37c2.47-.4 4.49.46 5.13 2.21l.85 2.93c.27.93.57 2 .85 2.94s.55 2 .84 3 .55 2 .83 3c.38 1.83-1 3.4-3.36 4l-11.76 2.31c-2.44.38-4.42-.53-5-2.29l-.84-3c-.28-1-.55-2-.84-3s-.57-2-.85-2.94-.61-1.96-.88-2.93Zm-8.31-26.35c-.43-1.69.82-3.16 3.22-3.75l11.83-2.46c2.47-.42 4.53.38 5.19 2l.9 2.8.91 2.78c.3 1 .61 1.88.9 2.83s.6 1.88.89 2.83c.42 1.75-.88 3.25-3.3 3.83l-11.8 2.42c-2.44.39-4.43-.43-5.11-2.13-.3-.94-.6-1.87-.89-2.82s-.61-1.86-.92-2.79-.6-1.87-.9-2.78-.61-1.84-.92-2.76Zm-111.42-148.83c-2 1.17-2.17 1.28-9.4 3.15l-139.73 35a126.6 126.6 0 0 1-14.74 2.93c-.58 0-1.13.08-1.71.16s-1.13.13-1.69.23-1.13.18-1.69.3l-.87.19 164-41.14 1.44-.33 1.47-.25c.49-.06 1-.12 1.48-.16s.94-.07 1.44-.08Zm36.91-6.54c-.06.11-.27.47-3.57 1.31l-12.64 3.16a22.06 22.06 0 0 1-5.55.86c-.36-.08-.7-.16-1-.21s-.68-.13-1-.17-.69-.11-1-.16l-1-.11a.23.23 0 0 1-.11-.07c.18-.12.55-.35 3.54-1.12l12.71-3.18a30.17 30.17 0 0 1 5.59-1c.33 0 .66.06 1 .1s.67.09 1 .16.66.1 1 .17l1 .24a.29.29 0 0 1 .03.02Zm9.68 3.86c0 .2-.16.76-3.45 1.63l-12.51 3.1c-2.58.62-4.78.8-5.63.44l-.24-.11c-.08-.05-.15-.07-.23-.13a2.29 2.29 0 0 1-.23-.1l-.22-.13-.87-.42c-.27-.11-.56-.25-.85-.38l-.86-.36-.82-.36-.13-.09c.06-.17.21-.58 3.47-1.42l12.61-3.14c2.11-.53 4.68-1 5.57-.7.29.11.57.22.84.35l.83.36.83.41c.29.12.56.27.85.41a1.16 1.16 0 0 0 .22.13l.24.12.21.12a1.2 1.2 0 0 0 .23.11c.04.06.1.11.14.16Zm7.16 9.39-12.4 3.05c-2.57.59-4.76.61-5.6 0-.39-.31-.78-.63-1.17-.93l-1.14-.92c-.39-.28-.77-.58-1.17-.86s-.77-.56-1.16-.82c-.55-.52.67-1.26 3.22-1.94l12.47-3.07c2.68-.63 4.84-.74 5.65-.27.38.26.76.55 1.15.83l1.12.88c.39.31.77.61 1.15.94s.75.62 1.13.94c.57.67-.7 1.52-3.21 2.17Zm10.6 10.9-12.29 3c-2.55.57-4.73.45-5.56-.3l-1.15-1.28c-.38-.42-.77-.81-1.15-1.23l-1.16-1.19c-.39-.4-.76-.8-1.16-1.18-.56-.73.64-1.59 3.17-2.25l12.37-3c2.64-.6 4.79-.56 5.62.1.38.4.75.8 1.13 1.19l1.14 1.22c.38.41.76.82 1.13 1.24l1.14 1.28c.56.77-.71 1.75-3.23 2.4Zm10.52 13.74-12.2 2.93c-2.52.53-4.69.27-5.51-.65-.38-.53-.76-1-1.15-1.57s-.75-1-1.13-1.53-.76-1-1.15-1.5-.76-1-1.14-1.47c-.57-.91.65-1.9 3.14-2.54l12.27-3c2.61-.57 4.75-.4 5.58.46l1.11 1.49c.39.5.75 1 1.14 1.52s.74 1 1.11 1.54.75 1.05 1.12 1.57c.56 1.04-.7 2.11-3.19 2.75Zm42.85 74.68c.48 1.55-.79 2.94-3.22 3.53l-11.91 2.6c-2.45.45-4.52-.21-5.25-1.71-.32-.82-.68-1.65-1-2.48s-.67-1.64-1-2.46l-1-2.43c-.35-.81-.69-1.6-1-2.42-.49-1.49.71-2.81 3.15-3.43l11.93-2.63c2.53-.47 4.61.14 5.34 1.59.34.79.67 1.6 1 2.42s.68 1.64 1 2.45.67 1.63 1 2.47.63 1.66.96 2.5Zm9 24.13c.46 1.65-.83 3.12-3.25 3.71l-11.85 2.5c-2.44.42-4.49-.32-5.18-1.93-.31-.89-.64-1.78-1-2.67s-.64-1.75-1-2.62-.64-1.75-1-2.62-.65-1.74-1-2.6c-.47-1.6.75-3 3.19-3.6l11.87-2.55c2.5-.43 4.56.27 5.26 1.82.33.86.65 1.74 1 2.61s.65 1.74 1 2.64.63 1.76 1 2.64.65 1.78.97 2.67Zm-40-54.23 12-2.72c2.52-.51 4.64 0 5.41 1.35.35.74.7 1.48 1 2.23s.7 1.51 1.05 2.25.7 1.51 1 2.28.69 1.52 1 2.29c.49 1.43-.76 2.76-3.2 3.39l-12 2.66c-2.47.47-4.57-.12-5.34-1.48-.34-.75-.69-1.52-1-2.27s-.7-1.52-1-2.27-.7-1.5-1.08-2.23-.69-1.49-1-2.22c-.51-1.39.69-2.66 3.15-3.26Zm-10.08-19.29 12.09-2.8c2.54-.51 4.69-.1 5.46 1.08.36.67.73 1.33 1.08 2s.72 1.35 1.08 2 .72 1.37 1.07 2.06l1.09 2.09c.52 1.29-.74 2.56-3.2 3.19l-12 2.74c-2.49.48-4.61 0-5.39-1.22-.37-.69-.72-1.39-1.09-2.07s-.71-1.37-1.09-2l-1.09-2c-.37-.66-.72-1.34-1.1-2-.57-1.24.65-2.43 3.08-3.07Zm-10.33-17.05 12.15-2.87c2.6-.56 4.72-.27 5.53.78.37.58.73 1.15 1.09 1.75s.76 1.19 1.12 1.79.74 1.22 1.11 1.82.72 1.22 1.09 1.83c.53 1.17-.7 2.34-3.19 3l-12.1 2.82c-2.51.53-4.65.15-5.46-.94-.37-.62-.75-1.24-1.11-1.83s-.74-1.21-1.13-1.81-.73-1.19-1.11-1.76-.75-1.18-1.12-1.75c-.57-1.1.61-2.18 3.12-2.83Zm-155.76 58.32q-6.6-10.21-13.42-18.83a165.53 165.53 0 0 0-13.85-15.55 107.68 107.68 0 0 0-14.14-11.8 65.6 65.6 0 0 0-14.32-7.63c-.68-.28-1.37-.51-2.07-.74s-1.36-.44-2.06-.64l-2-.54a67.5 67.5 0 0 0-2-.44c.12-.3.27-.71.41-1a48.12 48.12 0 0 1 7.51-2.36L1458.09 578c10.92-2.68 14-2.47 15.28-2.39.6.17 1.2.35 1.79.55s1.2.41 1.82.65 1.2.48 1.8.74 1.21.55 1.83.85a61.88 61.88 0 0 1 12.66 8.51 109.86 109.86 0 0 1 12.66 12.81 187.3 187.3 0 0 1 12.5 16.62c4.1 6.11 8.17 12.81 12.19 20 1.75 5.26-5.38 7.72-8.52 8.53l-133 30.51c-6.26 1.29-12.01.07-14.35-3Zm12.72 40.15 1.12 2.28c.35.75.73 1.53 1.09 2.29s.74 1.56 1.1 2.34.72 1.56 1.09 2.34c.54 1.45-.53 2.77-2.75 3.32l-10.8 2.34c-2.24.41-4.19-.24-5-1.63-.37-.8-.74-1.57-1.11-2.34s-.72-1.54-1.09-2.31-.76-1.52-1.12-2.29-.75-1.52-1.11-2.27c-.57-1.39.48-2.65 2.64-3.21l10.85-2.39c2.34-.42 4.28.16 5.08 1.53Zm9.94 74.44c-.43-1.69.69-3.12 2.84-3.64l10.73-2.16c2.25-.36 4.13.48 4.78 2.13.3.93.61 1.85.91 2.79s.59 1.85.9 2.79.59 1.86.88 2.8.58 1.88.87 2.84c.43 1.72-.73 3.19-2.93 3.72l-10.72 2.1c-2.21.35-4.05-.54-4.69-2.22l-.87-2.81c-.3-.93-.6-1.86-.89-2.8s-.6-1.85-.89-2.77-.63-1.85-.93-2.74Zm-8.83-25c-.48-1.59.6-3 2.77-3.51l10.76-2.24c2.26-.38 4.18.39 4.88 1.94.33.88.65 1.75 1 2.63s.66 1.75 1 2.66.65 1.76 1 2.66.64 1.77.94 2.68c.47 1.65-.65 3.06-2.85 3.6l-10.73 2.19c-2.22.35-4.11-.43-4.8-2-.3-.89-.64-1.77-1-2.67s-.64-1.75-1-2.65-.66-1.75-1-2.62-.64-1.76-.98-2.64Zm-5.5-14c-.28-.7-.57-1.41-.88-2.13s-.69-1.66-1-2.48-.7-1.66-1-2.48-.7-1.64-1.06-2.44c-.52-1.51.54-2.83 2.71-3.37l10.8-2.32c2.27-.4 4.23.28 5 1.73.36.84.71 1.64 1 2.48s.69 1.64 1 2.47.69 1.68 1 2.5c.24.57.47 1.13.69 1.7.12.28.24.55.35.83.5 1.57-.59 2.93-2.79 3.48l-10.77 2.27c-2.24.38-4.15-.34-4.89-1.87-.07-.05-.11-.17-.17-.34Zm-22.25-54.61 10.91-2.47c2.29-.45 4.3.06 5.13 1.3l1.15 2.07 1.16 2.1 1.16 2.14 1.14 2.16c.58 1.33-.47 2.58-2.69 3.14l-10.85 2.42c-2.3.44-4.23-.11-5.06-1.41-.38-.72-.77-1.43-1.15-2.14s-.79-1.41-1.17-2.12l-1.16-2.09-1.17-2.07c-.62-1.24.39-2.39 2.59-2.96Zm-11.21-18 11-2.54c2.32-.47 4.36-.06 5.21 1 .4.62.81 1.24 1.21 1.87s.81 1.25 1.21 1.89.8 1.28 1.19 1.92.81 1.3 1.21 1.94c.61 1.22-.43 2.37-2.67 3L1357 687c-2.27.45-4.28 0-5.13-1.17l-1.2-1.93c-.39-.64-.81-1.27-1.22-1.9l-1.2-1.89c-.42-.62-.82-1.24-1.24-1.85-.6-1.15.4-2.26 2.61-2.83ZM1338 659.62l11-2.6c2.37-.51 4.39-.24 5.26.73l1.27 1.63 1.23 1.64c.42.57.84 1.13 1.25 1.71s.83 1.12 1.24 1.69c.64 1.08-.4 2.14-2.64 2.74l-11 2.56c-2.27.47-4.32.12-5.2-.89-.41-.57-.84-1.14-1.24-1.7s-.83-1.12-1.27-1.67l-1.25-1.64-1.26-1.63c-.63-1 .37-1.99 2.61-2.57Zm-12-13.44 11.1-2.66c2.39-.52 4.42-.36 5.32.44.44.45.86.9 1.29 1.36l1.27 1.38 1.28 1.42c.41.47.85 1 1.28 1.46.65.91-.37 1.89-2.62 2.49l-11 2.63c-2.3.5-4.36.25-5.26-.62l-1.3-1.44c-.42-.47-.85-.93-1.28-1.4s-.86-.92-1.31-1.37-.86-.91-1.29-1.35c-.69-.84.31-1.74 2.52-2.34Zm-12.21-10.76 11.18-2.74c2.36-.53 4.48-.5 5.37.11l1.32 1.05L1333 635c.44.37.86.74 1.3 1.13s.88.76 1.3 1.16c.67.75-.35 1.63-2.63 2.21l-11.13 2.7c-2.29.51-4.37.39-5.3-.29-.43-.38-.89-.76-1.31-1.15l-1.32-1.12c-.45-.37-.88-.74-1.32-1.09l-1.32-1c-.7-.75.29-1.55 2.56-2.13Zm-15.19-6.4c.06-.25.21-.76 2.81-1.45l11.27-2.79c2.4-.57 4.52-.66 5.44-.27l1.31.75 1.32.78 1.32.81 1.32.84c.68.58-.35 1.32-2.64 1.92l-11.21 2.76c-2.32.53-4.43.56-5.36 0-.45-.29-.9-.56-1.34-.83s-.89-.55-1.33-.82l-1.34-.77-1.33-.72a.85.85 0 0 1-.2-.23Zm-12.06-4.75c.05-.2.15-.52 2.9-1.24l11.37-2.83a16 16 0 0 1 5.34-.67c.32.08.63.18 1 .29s.67.2 1 .29l1 .35 1 .35.26.09a2 2 0 0 0 .26.1c.1 0 .17.08.27.11l.26.1a.76.76 0 0 1 .23.21c-.07.2-.23.67-2.89 1.37l-11.3 2.8a12.87 12.87 0 0 1-5.4.43l-.27-.09a1.28 1.28 0 0 0-.27-.11l-.27-.1-.27-.09c-.32-.13-.66-.24-1-.36s-.66-.21-1-.33l-1-.28-1-.3s-.13-.07-.18-.09Zm-11.26-1.64c.19-.18.36-.33 3-1l11.44-2.87a32.64 32.64 0 0 1 5.33-1h1.18c.39 0 .78.05 1.18.09s.78.06 1.17.11.8.1 1.21.15l.16.07c-.07.16-.17.42-3 1.14l-11.37 2.84a22.21 22.21 0 0 1-5.31.84c-.41-.07-.8-.1-1.2-.15l-1.2-.11c-.41 0-.8-.07-1.2-.08l-1.18-.05Zm-10.6 1.22.23-.05 20-5-.5.11Zm169.46 191.09 29-5.54 123.11-23.51-122.56 23.4Zm32-241.62h.2l21.87-5.49h-.14Z" class="color0a0909 svgShape"></path><path fill="#e6336b" d="M1463.71 809.3c44.52-9.91 85.58-20.87 120.39-31.82q-3.81-14.41-7.9-28.11-5.33-17.73-11.1-34.19c-.11-.33-.24-.66-.35-1q-5.64-16-11.65-30.58c-4.15-10.06-8.42-19.6-12.76-28.53-2.59-3.68-7.41-4.85-14.78-3.61-75.26 14.94-110.64 23.46-127 28.9-11 3.64-13.41 5.91-13.57 7.78a4.27 4.27 0 0 0 .39 1.92c4.71 8.47 9.33 17.53 13.78 27.11q5.49 11.74 10.65 24.56 1.11 2.73 2.2 5.51c4.09 10.44 8 21.37 11.71 32.69s7.19 22.94 10.47 35l29-5.54 123.11-23.51ZM1518.43 616.36a186.06 186.06 0 0 0-12.5-16.63 109.82 109.82 0 0 0-12.65-12.81 62.21 62.21 0 0 0-12.67-8.51c-.62-.3-1.22-.59-1.83-.85s-1.21-.51-1.8-.74-1.22-.45-1.82-.65-1.19-.38-1.79-.55c-1.3-.09-4.35-.29-15.28 2.39l-139.35 34.86c-5.78 1.48-6.83 2-8.19 2.73.08.2.07.59.27.63.68.13 1.36.29 2 .44s1.36.35 2.05.54 1.36.41 2 .64 1.39.46 2.07.73a67 67 0 0 1 14.32 7.64 107.68 107.68 0 0 1 14.14 11.8 163.07 163.07 0 0 1 13.84 15.54q6.8 8.58 13.42 18.83c3.85 4.35 10.64 3.77 14.33 3l133-30.51c6.6-1.7 10-5.14 8.51-8.53-3.9-7.19-7.98-13.89-12.07-19.99Z" class="colore6336b svgShape"></path><path fill="#ffffff" d="m1461.25 574.71-1.46.25c-.48.1-1 .21-1.45.33l-164.75 41.33c.55-.15 1.11-.28 1.67-.38s1.11-.23 1.68-.31 1.13-.16 1.7-.22 1.12-.12 1.7-.16a123.06 123.06 0 0 0 14.74-2.94c146.79-36.75 146.79-36.75 149.13-38.14l-1.48.08c-.5.04-.99.1-1.48.16Z" class="colorfff svgShape"></path><path fill="none" d="M1577.09 642.44c-8.95-18.63-18.26-34.58-27.6-47.11-9.54-12.78-19.15-22.05-28.51-27a38 38 0 0 0-5.56-2.43 33 33 0 0 0-5.42-1.4 27.91 27.91 0 0 0-5.29-.33 25.28 25.28 0 0 0-5.14.73l-244.2 61.26a42.41 42.41 0 0 1 6.34-1.08 45.29 45.29 0 0 1 6.49-.06 46.36 46.36 0 0 1 6.6.93 54.66 54.66 0 0 1 6.72 1.92c11.28 4 22.66 12.14 33.8 23.65 11 11.32 21.65 25.89 31.82 43.05a436.73 436.73 0 0 1 28.24 57.87 622.18 622.18 0 0 1 23.31 69.25l225.42-43.05c-6.55-26.34-13.88-51.15-21.74-73.91a586 586 0 0 0-25.28-62.29Z"></path><path fill="#0a0909" d="M1283.52 617.13a2.79 2.79 0 0 0 .39-.1l-19.74 5h-.16l19.27-4.85ZM1263.38 622.2h.09ZM897.57 1429.22l26.27-1h.3-.14l-25 1ZM1174.34 1418.43l30.78-1.19-30.67 1.2ZM952.25 1427.09l194-7.56 6.2-.24-203 7.91ZM1293 614.74l-.41.11 140.82-35.4ZM1465.64 571.35l-.29.08 21-5.28ZM1264 622.05l-.56.14.34-.08a1.8 1.8 0 0 1 .22-.06Z" class="color0a0909 svgShape"></path><path fill="#0a0909" d="m1487.57 565.85-.55.14h-.11l-.31.09-.33.1c-1.84.53-3.72 1-5.58 1.48l-12.84 3.22c-1.18.29-2.37.61-3.57.85l.33-.08.33-.1.33-.09-31.9 8 24.36-6.12a28.25 28.25 0 0 0-5.51 2 37.06 37.06 0 0 0-5.33 3.2 46.88 46.88 0 0 0-5.16 4.41 62.1 62.1 0 0 0-5 5.64c-2.34 2.22-7.45 4.4-15.16 6.47l-144.27 35.79c-7.69 1.73-8.4 1-9.21.2l.34-.57a67.56 67.56 0 0 1 5.86-5.68 54.52 54.52 0 0 1 6-4.5 45.22 45.22 0 0 1 6.22-3.34 40.54 40.54 0 0 1 6-2.09l-9.35 2.35h-.14l-.39.11a2.85 2.85 0 0 0-.39.11q-2.64.75-5.31 1.4l-11.55 2.91c-1 .25-2 .52-3 .72l.13-.07.4-.11.36-.1-8.53 2.14q-15 3.75-27.9 18.75c-8.77 10.16-16.78 24.18-23.9 42q-10.87 27.16-18.81 65.89-8 39.33-12.58 90.08c-5.07 57.25-12.25 111.7-21.44 162.7-9.45 52.55-21.09 101.64-34.79 146.47-14.16 46.36-30.57 88.31-49.14 124.82-19.27 37.89-40.89 70-64.74 95.1a241.45 241.45 0 0 1-26.73 24.4 187.33 187.33 0 0 1-28.43 18.37 153.9 153.9 0 0 1-30 11.91 137.66 137.66 0 0 1-31.39 4.91l14.06-.55 6.36-.26 15.44-.61c1 0 2.11-.08 3.18-.1l25.37-1c-2.12.08-4.25.16-6.37.19.57-.11 1.35-.22 1.94-.31a132.86 132.86 0 0 0 28.33-6.27 151.05 151.05 0 0 0 27.05-12.29 186.68 186.68 0 0 0 25.67-17.93 237.84 237.84 0 0 0 24.17-23.13c1.26-1.36 2.5-2.76 3.74-4.17s2.46-2.84 3.7-4.28 2.42-2.92 3.63-4.41 2.41-3 3.61-4.5c1.57-1.4 6.4-5.62 18.91-6.63l180.71-11c7.21-.16 9.19.37 12.23 2.32.18.8.54 2 .17 2.73-1 1.6-2.06 3.17-3.11 4.73s-2.08 3.11-3.14 4.62-2.13 3-3.18 4.52-2.16 2.94-3.24 4.38a222 222 0 0 1-21 24.32 162.77 162.77 0 0 1-22.58 18.82 123.27 123.27 0 0 1-24.06 12.9 103 103 0 0 1-25.44 6.48c-3.83.38-7.46.59-18.66 1l22-.86c2.78-.1 5.55-.23 8.35-.35l18.1-.71 4.22-.14 16.41-.64a92.51 92.51 0 0 0 26.84-5.09 109.49 109.49 0 0 0 25.23-12.76 150.28 150.28 0 0 0 23.53-19.76 217.76 217.76 0 0 0 21.74-26.25c19.17-27 36.13-61.49 50.8-102.19 14.1-39.1 26.13-84 36-133.57 9.56-47.8 17.21-100.13 22.91-156.06 5.5-54.2 9.18-112 11-172.84q1.62-53.73 6.66-95.2 4.9-40.62 12.78-68.84 7.68-27.64 17.89-43c6.65-10 14-16.06 22.08-18.08l-11.55 2.91Zm-213.17 68.94L1419.08 599c7.23-1.69 9-1 10.35-.53 0 .4.08.94.13 1.34a151.2 151.2 0 0 0-9.38 21A268.87 268.87 0 0 0 1412 648q-3.8 15.21-6.9 33.4-3.13 18.35-5.49 39.68c-2.14 8.9-10.87 12-14.53 12.92l-152.31 32.65c-7 1.23-11.38-1.58-10.86-7q3.34-20.6 7.48-38.38 4.1-17.62 8.91-32.42a248.65 248.65 0 0 1 10.22-26.51 145.53 145.53 0 0 1 11.36-20.67c2.96-3.34 9.54-5.59 14.52-6.88Zm93.36 328.74-160.31 25c-4.34.49-11.6.08-11.32-8.37q2.79-17.64 5.26-35.75t4.6-36.5q2.13-18.36 4-37.19t3.36-37.86c.3-3.72.6-7.38.93-11s.64-7.21 1-10.72.72-7 1.09-10.44.76-6.81 1.18-10.16c2.08-8.77 9.48-11.87 13.71-12.93L1384 745.24c7.76-1.35 12.73 1.73 12.66 7.85-.27 3.47-.51 7-.76 10.55s-.46 7.18-.67 10.84-.4 7.39-.59 11.15-.35 7.58-.49 11.44q-.82 19.95-1.89 39.42c-.7 13.07-1.53 26-2.42 38.74s-1.93 25.51-3 38-2.33 25-3.61 37.27c-1.14 6.32-7.23 11.43-15.47 13.03Zm11.6 20.17q-2.86 23.26-6.22 45.58-3.36 22.53-7.24 44.07-3.89 21.76-8.3 42.45-4.44 20.9-9.38 40.67c-3.16 7.66-12.27 10-17.43 10.65l-169.64 17.55c-4.57.34-12-.17-10.81-7.26q6.18-18.9 11.83-38.9 5.58-19.8 10.66-40.64 5-20.62 9.53-42.22 4.5-21.39 8.44-43.69c2.6-8.67 10.39-11.37 14.81-12.21l160.77-24.54c4.79-.56 12.87-.21 12.98 8.49ZM1252.2 627l1.09-.63c.37-.22.73-.41 1.11-.61l1.1-.56 1.12-.53a42.83 42.83 0 0 1 5.27-1.55l11.57-2.92a17.54 17.54 0 0 1 3.13-.65.34.34 0 0 0-.12.12c-.38.18-.74.35-1.1.54s-.73.37-1.09.57l-1.1.59c-.35.22-.71.43-1.07.64a28.81 28.81 0 0 1-5.29 1.76l-11.66 2.92a9.75 9.75 0 0 1-3.09.5.41.41 0 0 1 .13-.19Zm-10 7.62c.35-.33.7-.65 1.06-1l1-.93 1.06-.89c.36-.3.71-.58 1.07-.86a20.22 20.22 0 0 1 5.25-1.9l11.67-2.92c2.5-.6 2.92-.51 3.18-.44a.39.39 0 0 1-.11.26c-.33.28-.68.56-1 .85l-1 .9c-.35.3-.68.61-1 .94s-.69.63-1 1a17.13 17.13 0 0 1-5.28 2.09l-11.74 2.92c-2.48.6-2.9.41-3.17.3a.79.79 0 0 0 0-.13.8.8 0 0 0 .05-.16Zm-9.44 10.67 1-1.29c.33-.43.67-.83 1-1.25s.65-.84 1-1.22.67-.81 1-1.19c.73-.73 2.78-1.61 5.23-2.25l11.76-2.91c2.82-.68 3.13-.33 3.3-.17a.83.83 0 0 1-.13.32c-.32.4-.65.79-1 1.19s-.66.81-1 1.22-.65.84-1 1.26l-1 1.29c-.71.85-2.78 1.81-5.25 2.45l-11.67 2.95c-2.78.65-3.13.19-3.28 0a1.36 1.36 0 0 1 .08-.37Zm-8.91 13.78.92-1.62c.32-.54.63-1.09.94-1.6l.94-1.56c.33-.51.63-1 1-1.52.7-.94 2.69-1.93 5.22-2.58l11.85-2.92c2.45-.56 3.71-.38 3.26.5-.3.52-.62 1-.93 1.53l-.93 1.56c-.3.54-.61 1.07-.9 1.6l-.93 1.63c-.67 1-2.73 2.15-5.22 2.8l-11.93 2.9c-2.42.57-3.7.29-3.25-.69Zm-8.32 16.9c.3-.65.58-1.31.87-2s.58-1.31.88-1.94.58-1.27.87-1.9.58-1.24.88-1.86c.66-1.13 2.69-2.28 5.18-2.93l11.94-2.9c2.49-.55 3.78-.22 3.39.87-.31.61-.59 1.24-.88 1.88s-.57 1.25-.85 1.89-.58 1.29-.86 1.93-.57 1.32-.85 2c-.64 1.26-2.68 2.48-5.18 3.14l-12 2.87c-2.41.58-3.74.18-3.35-1.02Zm-7.64 20.07c.26-.77.52-1.54.79-2.3s.53-1.52.78-2.28.54-1.49.82-2.23.53-1.47.81-2.2c.61-1.35 2.63-2.63 5.13-3.28l12-2.87c2.5-.54 3.84-.06 3.49 1.26q-.42 1.08-.81 2.19c-.26.75-.53 1.49-.79 2.26s-.51 1.51-.76 2.26-.52 1.56-.8 2.32c-.58 1.46-2.6 2.83-5.13 3.49l-12.12 2.84c-2.37.55-3.73-.03-3.37-1.43Zm-7 23.27c.24-.89.47-1.78.72-2.65s.47-1.76.72-2.62.48-1.72.72-2.58.49-1.7.75-2.54c.57-1.56 2.52-3 5.08-3.62l12.15-2.81c2.53-.52 3.91.1 3.58 1.6-.23.85-.47 1.7-.72 2.56s-.47 1.71-.71 2.57-.47 1.77-.7 2.64-.47 1.77-.69 2.67c-.54 1.66-2.55 3.18-5.1 3.83l-12.21 2.79c-2.4.52-3.81-.21-3.48-1.81Zm-6.19 26.49.63-3c.21-1 .43-2 .64-3s.43-2 .64-2.94.43-1.92.66-2.89c.53-1.75 2.5-3.31 5-4l12.24-2.76c2.55-.5 4 .27 3.72 2-.22 1-.44 1.92-.65 2.9s-.42 1.95-.62 2.94-.42 2-.63 3-.41 2-.6 3c-.5 1.87-2.48 3.51-5 4.17l-12.25 2.78c-2.48.5-3.94-.36-3.7-2.17Zm-4.7 26.37c.16-1.11.36-2.21.53-3.31s.38-2.18.57-3.28.37-2.15.56-3.22c.47-2 2.42-3.66 5-4.32l12.33-2.69c2.58-.48 4 .44 3.84 2.39-.18 1.08-.37 2.16-.55 3.26s-.36 2.18-.54 3.28-.35 2.2-.53 3.32-.34 2.24-.52 3.38a6.45 6.45 0 0 1-5 4.48l-12.4 2.66c-2.53.43-4-.59-3.84-2.6.14-1.13.33-2.25.55-3.35Zm-4.6 32.56c.14-1.22.3-2.45.44-3.66s.31-2.41.47-3.61.32-2.39.47-3.56a6.37 6.37 0 0 1 4.9-4.66l12.45-2.63c2.55-.43 4.1.68 4 2.81-.14 1.19-.3 2.39-.45 3.59s-.3 2.42-.44 3.63-.28 2.44-.43 3.67-.28 2.46-.42 3.71a6.33 6.33 0 0 1-4.91 4.84l-12.51 2.56c-2.54.41-4.1-.77-4-3 .1-1.23.25-2.48.39-3.69Zm-3.92 38.27c0-.44.08-.87.11-1.32s.09-.86.12-1.31.08-.88.11-1.29c.09-.89.16-1.77.24-2.65s.15-1.72.23-2.61.15-1.73.24-2.58.15-1.73.25-2.58a6.18 6.18 0 0 1 4.83-5l12.54-2.53c2.61-.41 4.19.8 4.1 3.19-.08.86-.16 1.72-.23 2.59s-.15 1.72-.24 2.6-.14 1.74-.2 2.62-.17 1.76-.22 2.65c0 .44-.09.87-.13 1.31s-.07.88-.1 1.32-.07.88-.11 1.32l-.12 1.31a6.08 6.08 0 0 1-4.84 4.93l-12.61 2.46c-2.55.39-4.17-.85-4.09-3.15.05-.45.08-.88.12-1.28Zm-3.17 33c.12-1.27.26-2.53.39-3.79s.24-2.53.39-3.8.25-2.53.36-3.8a6.16 6.16 0 0 1 4.86-4.85l12.63-2.43c2.61-.39 4.24.86 4.15 3.15l-.36 3.82c-.13 1.28-.25 2.54-.37 3.82s-.24 2.54-.38 3.81-.24 2.53-.38 3.81a6.18 6.18 0 0 1-5 4.84l-12.6 2.34c-2.59.36-4.17-.87-4.06-3.16.06-1.24.23-2.51.37-3.76Zm-4 35c.16-1.24.32-2.48.46-3.73s.3-2.49.44-3.73l.45-3.74a6.17 6.17 0 0 1 5-4.76l12.7-2.32c2.62-.35 4.25.86 4.14 3.11-.14 1.27-.3 2.52-.44 3.77s-.28 2.51-.43 3.76-.3 2.5-.44 3.75-.29 2.49-.44 3.73a6.24 6.24 0 0 1-5 4.73l-12.76 2.24c-2.61.36-4.2-.86-4.05-3.08.06-1.28.24-2.53.39-3.73Zm-4.54 34.34c.18-1.22.34-2.45.52-3.66s.34-2.44.52-3.67.32-2.46.5-3.67a6.26 6.26 0 0 1 5.05-4.65l12.8-2.21c2.64-.35 4.26.85 4.11 3.07-.17 1.24-.33 2.47-.49 3.7s-.33 2.46-.5 3.69-.32 2.46-.49 3.67-.34 2.46-.51 3.68a6.27 6.27 0 0 1-5.14 4.61l-12.87 2.1c-2.61.34-4.17-.88-4-3 .19-1.26.36-2.48.52-3.7Zm-5.09 33.66c.2-1.19.38-2.39.58-3.58s.39-2.39.57-3.59.37-2.41.57-3.6a6.3 6.3 0 0 1 5.15-4.55l12.91-2.11c2.67-.34 4.26.87 4 3.05-.16 1.21-.35 2.42-.53 3.62s-.36 2.4-.55 3.61-.38 2.4-.56 3.6l-.57 3.6c-.48 2.2-2.55 4-5.25 4.49l-13 2.05c-2.63.31-4.19-.87-4-3 .3-1.22.49-2.43.68-3.59Zm-6.35 36.49.66-3.51c.21-1.16.43-2.32.63-3.5s.42-2.35.64-3.51.41-2.35.62-3.54a6.4 6.4 0 0 1 5.25-4.41l13-2c2.7-.31 4.27.86 4 3-.2 1.17-.41 2.36-.61 3.55s-.42 2.37-.62 3.54-.42 2.35-.62 3.52-.41 2.35-.62 3.52a6.47 6.47 0 0 1-5.36 4.39l-13.09 2c-2.59.2-4.13-.97-3.88-3.07Zm-6.36 32.2c.23-1.15.48-2.29.71-3.43s.47-2.28.71-3.42.46-2.31.7-3.45.46-2.3.68-3.45c.56-2.12 2.65-3.81 5.36-4.3l13.12-1.91c2.7-.3 4.27.87 4 2.94l-.66 3.47c-.22 1.15-.47 2.32-.67 3.46s-.47 2.3-.7 3.44-.47 2.3-.69 3.45c-.56 2.1-2.7 3.77-5.45 4.25l-13.2 1.86c-2.67.26-4.21-.88-3.88-2.93Zm-7 31.4c.26-1.11.51-2.21.77-3.34s.51-2.23.77-3.35.51-2.24.77-3.35.5-2.25.75-3.36c.6-2.08 2.73-3.7 5.47-4.19l13.21-1.81c2.72-.29 4.28.85 4 2.89-.25 1.14-.49 2.26-.75 3.39s-.49 2.25-.73 3.36-.51 2.25-.76 3.37-.5 2.24-.75 3.35c-.6 2.06-2.8 3.68-5.57 4.14l-13.29 1.76c-2.66.24-4.19-.89-3.86-2.88Zm-7.59 30.58c.29-1.08.57-2.17.84-3.24s.57-2.17.85-3.27.55-2.16.82-3.26.55-2.18.82-3.27c.65-2 2.83-3.61 5.58-4.06l13.33-1.72c2.73-.26 4.29.86 3.93 2.85-.26 1.1-.53 2.19-.8 3.29s-.54 2.19-.81 3.28-.53 2.17-.81 3.27-.54 2.17-.82 3.26c-.64 2-2.87 3.55-5.67 4l-13.41 1.65c-2.71.25-4.18-.84-3.81-2.8Zm-8.19 29.71c.3-1.06.6-2.1.9-3.17s.61-2.08.91-3.14.59-2.11.9-3.18l.88-3.16c.67-2 2.91-3.5 5.68-3.93l13.43-1.62c2.77-.24 4.3.84 3.92 2.77-.27 1.06-.57 2.13-.86 3.19s-.59 2.13-.88 3.19-.59 2.12-.88 3.18-.59 2.1-.9 3.15c-.68 1.93-2.95 3.44-5.79 3.88l-13.51 1.56c-2.68.21-4.19-.86-3.76-2.74Zm-8.83 28.76c.32-1 .65-2 1-3s.63-2 1-3 .65-2 1-3.06.63-2.06 1-3.07c.71-1.9 3-3.38 5.79-3.79l13.53-1.54c2.79-.22 4.33.84 3.9 2.7-.33 1-.62 2.08-1 3.09s-.62 2.07-.94 3.08-.62 2.06-.94 3.08-.64 2-1 3c-.74 1.88-3 3.34-5.91 3.76l-13.63 1.47c-2.74.14-4.22-.86-3.76-2.74Zm-9.5 27.78c.35-1 .71-2 1.06-2.94l1-2.94c.34-1 .68-2 1-3s.68-2 1-3c.76-1.83 3.07-3.25 5.88-3.64l13.67-1.45c2.82-.2 4.32.84 3.86 2.63-.33 1-.67 2-1 3s-.67 2-1 3-.67 2-1 3-.7 2-1 3c-.77 1.79-3.12 3.21-6 3.59l-13.75 1.39c-2.7.11-4.17-.91-3.68-2.66Zm-10.13 26.71 1.12-2.82c.37-1 .75-1.88 1.1-2.83s.76-1.9 1.11-2.85.74-1.89 1.1-2.85c.82-1.75 3.18-3.12 6-3.49l13.78-1.37c2.81-.17 4.33.82 3.82 2.55-.36 1-.71 1.92-1.08 2.86s-.71 1.93-1.09 2.87-.72 1.9-1.08 2.85-.74 1.9-1.11 2.83c-.81 1.73-3.22 3.06-6.12 3.42l-13.86 1.3c-2.72.15-4.19-.81-3.65-2.49Zm-10.8 25.56c.38-.89.79-1.8 1.18-2.69s.8-1.8 1.19-2.7.78-1.8 1.18-2.71.77-1.82 1.17-2.73c.85-1.7 3.26-3 6.14-3.35l13.89-1.27c2.85-.17 4.34.78 3.8 2.44l-1.15 2.76-1.15 2.73c-.4.9-.78 1.82-1.16 2.71s-.8 1.8-1.19 2.71c-.86 1.64-3.31 2.92-6.24 3.25l-14 1.22c-2.8.14-4.22-.76-3.59-2.39Zm-11.49 24.33c.42-.84.83-1.7 1.27-2.56s.83-1.69 1.26-2.54.83-1.73 1.25-2.61.82-1.72 1.24-2.59c.89-1.58 3.34-2.82 6.26-3.15l14-1.19c2.88-.17 4.35.75 3.76 2.33-.4.87-.8 1.75-1.22 2.61s-.82 1.75-1.22 2.6-.82 1.73-1.24 2.58-.83 1.71-1.24 2.56c-.9 1.57-3.42 2.79-6.38 3.1l-14.1 1.14c-2.8.13-4.22-.75-3.6-2.3Zm-12.19 23 1.35-2.41c.45-.79.89-1.61 1.33-2.42l1.33-2.44c.44-.81.87-1.64 1.32-2.46 1-1.52 3.45-2.69 6.37-3l14.13-1.12c2.91-.13 4.37.73 3.75 2.23-.45.81-.88 1.64-1.31 2.46s-.87 1.64-1.31 2.46l-1.31 2.44-1.31 2.42c-1 1.48-3.5 2.61-6.49 2.9l-14.24 1.06c-2.81.18-4.23-.64-3.57-2.1Zm-116.7 129.1-2.76.63-2.78.58c-.93.18-1.86.34-2.8.51s-1.85.32-2.8.46c-2.57.35-7.12.57-8.47.62l-15.4.61c-1 0-2.06.09-3.11 0 .19-.15.19-.15.66-.22 1-.15 1.88-.28 2.82-.45l2.82-.52c.94-.18 1.89-.38 2.81-.58s1.87-.4 2.8-.63a55.44 55.44 0 0 1 8.32-.93l15.28-.62c2.59-.07 2.95.05 3.3.16-.19.27-.19.27-.65.4Zm25.25-8.62-2.67 1.17-2.66 1.1-2.69 1.06-2.68 1a37 37 0 0 1-8.31 1.2l-15.24.63c-2.53.08-2.88-.1-3.2-.24.1-.3.1-.3.69-.52l2.73-1c.89-.33 1.81-.69 2.7-1s1.79-.72 2.7-1.1l2.69-1.16a28.28 28.28 0 0 1 8.16-1.51l15.12-.63c2.56-.08 2.94.16 3.27.39a1.16 1.16 0 0 1 0 .18 2.71 2.71 0 0 1-.61.43Zm24.54-13.8a2.94 2.94 0 0 1-.44.35c-.84.57-1.68 1.12-2.53 1.68l-2.54 1.6c-.86.52-1.71 1-2.57 1.55s-1.71 1-2.58 1.51a21.81 21.81 0 0 1-8.12 1.76l-15.07.65c-2.52.09-2.89-.21-3.21-.46 0-.24 0-.41.62-.8l2.61-1.52c.87-.51 1.75-1 2.59-1.54s1.74-1.06 2.59-1.61l2.57-1.65a19.64 19.64 0 0 1 7.94-2l15-.7c4.16-.16 3.24 1.03 3.14 1.16Zm22.71-17.78a2.29 2.29 0 0 1-.21.23c-.81.73-1.61 1.44-2.42 2.13s-1.6 1.39-2.41 2.09-1.63 1.36-2.44 2-1.62 1.35-2.44 2c-1.63 1.18-4.74 2.06-7.94 2.27l-14.9.71c-3.63.1-3.53-.91-2.88-1.55a1.5 1.5 0 0 1 .23-.2c.84-.65 1.66-1.3 2.48-2s1.65-1.33 2.47-2 1.64-1.38 2.44-2.08 1.64-1.39 2.44-2.12a15.2 15.2 0 0 1 7.77-2.53l14.79-.74c3.71-.11 3.66 1.06 3.02 1.77Zm20-20.19c-.3.33-.59.65-.87 1l-.9 1c-.28.33-.59.65-.87 1s-.6.64-.9 1-.68.73-1 1.11l-1 1.11c-.36.37-.7.74-1.06 1.1s-.7.74-1 1.1c-1.56 1.45-4.61 2.55-7.74 2.78l-14.73.78c-3 .1-4-.75-2.72-2.21.35-.37.71-.72 1.05-1.08l1.07-1.11c.36-.36.7-.74 1.06-1.1s.71-.73 1-1.1l.89-1c.3-.32.61-.64.9-1l.9-1c.3-.32.58-.65.89-1 1.14-1.09 3.83-1.95 6.86-2.18l14.64-.81c2.96-.13 4.37.49 3.55 1.59Zm14.53-17.65-1.52 2c-.51.65-1 1.3-1.55 2l-1.53 1.94c-.52.63-1 1.27-1.55 1.91-1.09 1.17-3.78 2.07-6.88 2.3l-14.59.85c-3 .11-4.3-.53-3.49-1.7.53-.62 1.06-1.26 1.57-1.89l1.56-1.93 1.57-2c.51-.65 1-1.3 1.54-2 1.1-1.23 3.73-2.16 6.73-2.4l14.52-.89c3.04-.11 4.41.59 3.64 1.79Zm13.8-19.33c-.47.71-1 1.43-1.45 2.15l-1.45 2.14c-.5.7-1 1.41-1.47 2.1s-1 1.41-1.47 2.11c-1 1.27-3.69 2.25-6.74 2.5l-14.47.91c-2.94.13-4.3-.59-3.53-1.85.5-.68 1-1.39 1.49-2.08s1-1.39 1.48-2.1 1-1.41 1.49-2.13 1-1.42 1.47-2.14c1-1.31 3.65-2.34 6.62-2.61l14.38-1c2.97-.1 4.4.66 3.67 1.98Zm.93-9-14.34 1c-2.89.14-4.29-.66-3.57-2l1.41-2.27c.47-.74 1-1.5 1.41-2.26l1.41-2.3c.46-.76.92-1.53 1.39-2.29 1-1.41 3.53-2.51 6.49-2.81l14.27-1c2.92-.15 4.36.66 3.68 2.07-.45.78-.91 1.56-1.36 2.32s-.93 1.55-1.38 2.3-.93 1.54-1.4 2.3-.93 1.51-1.38 2.26c-.94 1.28-3.58 2.35-6.61 2.63Zm197.25 7.49L1088.43 1337c-10 .42-11.72-2.52-10.21-5.17q9.1-13.3 17.66-28.2 8.47-14.7 16.38-30.87 7.82-16 15.1-33.32 7.2-17.16 13.87-35.55c3.69-7.14 12.06-9.24 16.73-9.84l170.18-17.2c5.1-.36 13.51.1 12.73 7.33q-5.4 19.23-11.31 37.21-6 18.15-12.52 34.91-6.6 17-13.72 32.41t-15 29.6c-4.32 5.37-14.21 6.93-19.74 7.38Zm-40.87 87.89c-.79.24-1.59.45-2.42.68l-2.41.59a87.29 87.29 0 0 1-4.89 1.01c-2.25.36-7.08.59-9 .67l-18 .71a24.51 24.51 0 0 1-4.22 0 1.74 1.74 0 0 1 .5-.17c.82-.15 1.65-.31 2.48-.49s1.66-.33 2.48-.52 1.65-.38 2.48-.6l2.45-.64a50.27 50.27 0 0 1 8.87-1l17.86-.71c3.4-.12 4 .06 4.33.18a1 1 0 0 1-.49.24Zm21.85-9.13-2.3 1.24c-.76.4-1.52.79-2.29 1.17l-2.32 1.11-2.32 1.06a34.35 34.35 0 0 1-8.85 1.3l-17.78.71c-3.35.12-3.88-.12-4.22-.31 0-.07 0-.18.06-.25s.27-.15.38-.22c.8-.33 1.58-.68 2.38-1s1.57-.73 2.34-1.12 1.59-.75 2.36-1.16 1.56-.8 2.34-1.22c1.63-.8 5-1.43 8.66-1.62l17.62-.74c4.16-.14 4.31.45 4.36.71a1.93 1.93 0 0 1-.4.29Zm20.86-14.45-.2.19-2.16 1.76c-.72.57-1.45 1.16-2.17 1.71s-1.45 1.12-2.19 1.67l-2.21 1.59c-1.52.94-4.83 1.68-8.63 1.88l-17.54.77c-3.68.12-4-.4-4.25-.73.1-.34.1-.34.43-.61.75-.52 1.51-1 2.26-1.59l2.26-1.69c.74-.56 1.5-1.13 2.24-1.71l2.21-1.75c1.53-1.11 4.85-2 8.41-2.18l17.39-.8c4.37-.13 4.65.88 4.17 1.44Zm19.21-18.86c-.66.78-1.34 1.52-2 2.28l-2 2.2c-.68.73-1.37 1.45-2.06 2.16s-1.37 1.42-2.08 2.12c-1.41 1.25-4.7 2.22-8.39 2.44l-17.29.82c-3.5.12-5-.6-3.87-1.85.7-.67 1.4-1.38 2.12-2.09s1.41-1.42 2.1-2.14 1.4-1.46 2.09-2.21l2.07-2.24c1.44-1.4 4.66-2.48 8.21-2.72l17.11-.88c3.48-.16 5.06.67 4.01 2.06Zm16.93-21.7c-.24.33-.48.69-.74 1s-.49.67-.72 1-.51.68-.74 1-.5.68-.74 1l-.87 1.17c-.28.41-.57.8-.86 1.19l-.87 1.17-.88 1.17c-1.35 1.54-4.56 2.72-8.16 3l-17.06.9c-3.44.1-5-.8-3.93-2.34.31-.38.62-.76.91-1.15l.89-1.15c.31-.41.6-.78.89-1.18s.59-.78.88-1.19.52-.67.76-1 .51-.69.74-1l.77-1c.24-.35.49-.69.74-1 1-1.16 3.92-2.1 7.4-2.35l16.91-1c3.49-.11 5.34.54 4.7 1.71Zm12-18.78-1.25 2.1c-.44.7-.84 1.41-1.27 2.09s-.86 1.38-1.28 2.05-.85 1.37-1.29 2c-.94 1.24-3.85 2.2-7.39 2.47l-16.86 1c-3.43.15-5.19-.52-4.55-1.76.44-.66.86-1.35 1.32-2s.86-1.36 1.3-2l1.29-2.06c.43-.7.87-1.4 1.28-2.1 1-1.28 3.81-2.29 7.26-2.57l16.74-1c3.49-.26 5.34.46 4.75 1.73Zm11.32-20.53c-.41.76-.81 1.53-1.19 2.28s-.78 1.53-1.19 2.27-.8 1.49-1.2 2.25-.81 1.48-1.21 2.22c-.89 1.36-3.75 2.42-7.25 2.7l-16.68 1.06c-3.42.14-5.16-.61-4.57-2 .4-.73.82-1.46 1.23-2.19s.82-1.51 1.22-2.25.82-1.51 1.22-2.25l1.21-2.27c.92-1.41 3.71-2.51 7.12-2.81l16.56-1.1c3.45-.15 5.31.65 4.78 2.04Zm10.61-22.21c-.38.82-.74 1.64-1.12 2.46s-.75 1.64-1.11 2.46-.74 1.6-1.12 2.42-.76 1.59-1.13 2.4c-.86 1.45-3.66 2.6-7.13 2.91l-16.5 1.12c-3.33.16-5.14-.66-4.6-2.09.4-.78.77-1.59 1.17-2.39l1.14-2.4c.4-.8.78-1.63 1.16-2.44s.75-1.63 1.14-2.45c.86-1.5 3.6-2.67 7-3l16.41-1.18c3.37-.22 5.22.64 4.74 2.13Zm9.91-23.73-1 2.63c-.36.87-.72 1.73-1.05 2.59s-.69 1.74-1.06 2.59l-1 2.58c-.8 1.55-3.55 2.76-7 3.1l-16.35 1.21c-3.29.18-5.11-.7-4.62-2.22.37-.85.74-1.7 1.1-2.55l1.08-2.58c.36-.86.71-1.72 1.07-2.59s.71-1.74 1.07-2.61c.82-1.6 3.49-2.85 6.83-3.19l16.24-1.27c3.31-.23 5.2.67 4.74 2.26Zm9.26-25.17c-.32.93-.64 1.86-1 2.77s-.64 1.84-1 2.74-.64 1.83-1 2.74-.66 1.83-1 2.73c-.77 1.66-3.45 3-6.86 3.3l-16.15 1.32c-3.28.18-5.09-.75-4.64-2.37.34-.9.68-1.81 1-2.72s.69-1.8 1-2.71.66-1.83 1-2.73.66-1.83 1-2.77c.77-1.68 3.4-3 6.7-3.38l16.06-1.35c3.49-.25 5.35.7 4.94 2.36Zm8.61-26.5c-.3 1-.59 1.94-.89 2.91s-.6 1.94-.91 2.9l-.9 2.87c-.31 1-.61 1.91-.92 2.86-.73 1.75-3.35 3.11-6.72 3.5l-16 1.38c-3.27.2-5.06-.75-4.64-2.47.31-1 .64-1.9.94-2.84l1-2.87c.3-1 .62-1.92.92-2.86s.63-1.93.93-2.91c.73-1.78 3.31-3.17 6.57-3.57l15.9-1.45c3.27-.25 5.15.75 4.77 2.5Zm8-27.75c-.28 1-.55 2-.83 3s-.55 2-.83 3l-.84 3c-.28 1-.56 2-.85 3-.67 1.83-3.26 3.26-6.58 3.67l-15.82 1.51c-3.2.21-5-.8-4.66-2.59.28-1 .58-2 .88-3s.58-2 .86-3 .59-2 .87-3 .57-2 .85-3c.69-1.85 3.23-3.31 6.45-3.73l15.74-1.54c3.25-.23 5.11.8 4.78 2.63Zm7.35-28.88c-.25 1-.5 2.1-.77 3.15s-.5 2.1-.75 3.16-.52 2.09-.78 3.13l-.78 3.12c-.65 1.9-3.17 3.4-6.45 3.83l-15.68 1.57c-3.18.24-5-.82-4.68-2.67.27-1 .53-2.07.8-3.1s.54-2.08.81-3.12.53-2.08.79-3.13.52-2.09.79-3.13c.63-1.93 3.13-3.47 6.33-3.89l15.57-1.65c3.2-.3 5.12.79 4.82 2.68Zm6.74-30c-.22 1.09-.45 2.18-.7 3.26s-.46 2.18-.69 3.26-.47 2.17-.71 3.24-.47 2.16-.72 3.24c-.6 2-3.09 3.55-6.32 4l-15.53 1.67c-3.14.25-5-.84-4.7-2.77l.75-3.22c.25-1.06.49-2.14.74-3.21s.5-2.15.72-3.25.5-2.16.74-3.25c.59-2 3-3.57 6.2-4l15.42-1.75c3.2-.31 5.09.84 4.82 2.76Zm5.54-27.6c-.22 1.12-.43 2.25-.65 3.36s-.44 2.24-.65 3.34-.44 2.24-.65 3.34c-.56 2.05-3 3.66-6.2 4.14l-15.37 1.79c-3.12.26-5-.86-4.71-2.84.22-1.1.45-2.21.68-3.33s.44-2.22.67-3.32.43-2.23.67-3.34.44-2.23.66-3.36c.55-2 2.94-3.7 6.07-4.19l15.28-1.84c3.15-.28 5 .85 4.81 2.88-.17 1.11-.39 2.23-.59 3.35Zm5.63-31.81c-.19 1.17-.39 2.3-.58 3.46s-.39 2.31-.59 3.45-.39 2.29-.58 3.43c-.52 2.09-2.91 3.79-6.09 4.27l-15.23 1.9c-3.13.29-4.94-.83-4.71-2.91.21-1.13.41-2.27.61-3.43s.41-2.27.61-3.42.4-2.29.61-3.44.4-2.3.59-3.46c.53-2.12 2.87-3.83 6-4.33l15.13-2c3.12-.29 5 .87 4.83 3Zm5.07-32.72c-.17 1.19-.33 2.38-.51 3.56s-.34 2.37-.52 3.54-.35 2.38-.53 3.55c-.5 2.16-2.83 3.89-6 4.4l-15.07 2c-3.06.29-4.93-.87-4.74-3 .19-1.16.37-2.33.56-3.51s.38-2.34.55-3.53.37-2.36.54-3.54.37-2.35.55-3.54c.48-2.17 2.78-3.92 5.85-4.46l15-2.06c3.08-.32 5 .86 4.84 3-.1 1.2-.32 2.39-.5 3.57Zm4.52-33.53c-.15 1.21-.3 2.43-.46 3.64s-.3 2.43-.46 3.64-.31 2.42-.48 3.62c-.44 2.21-2.74 4-5.85 4.54l-14.94 2.1c-3 .32-4.9-.86-4.74-3 .16-1.19.32-2.39.49-3.6s.33-2.4.49-3.61.32-2.42.49-3.63.32-2.4.48-3.62c.44-2.24 2.69-4 5.73-4.59l14.86-2.18c3.06-.32 5 .87 4.85 3.07-.13 1.17-.29 2.34-.44 3.6Zm4-34.32c-.13 1.24-.26 2.47-.4 3.72s-.27 2.47-.41 3.71-.27 2.48-.41 3.7c-.41 2.27-2.67 4.13-5.75 4.69l-14.8 2.2c-3 .34-4.87-.87-4.75-3.08.14-1.23.27-2.45.43-3.69s.29-2.45.42-3.69.29-2.46.43-3.7.29-2.47.42-3.7c.4-2.3 2.62-4.15 5.63-4.71l14.72-2.28c3-.36 4.95.86 4.86 3.1-.12 1.21-.26 2.47-.39 3.71Zm3.45-35.06c-.13 1.27-.24 2.53-.35 3.8s-.23 2.53-.35 3.78l-.36 3.79c-.36 2.32-2.58 4.19-5.63 4.78l-14.67 2.33c-3 .36-4.86-.86-4.78-3.12.14-1.25.26-2.51.39-3.76s.23-2.51.38-3.77.23-2.52.35-3.78.25-2.52.37-3.79c.37-2.33 2.54-4.24 5.53-4.84l14.58-2.39c3-.38 4.93.87 4.88 3.15-.11 1.27-.24 2.53-.34 3.8Zm2.93-35.79c-.11 1.31-.2 2.6-.3 3.9s-.2 2.58-.29 3.86-.21 2.57-.31 3.86c-.33 2.35-2.5 4.28-5.53 4.91l-14.54 2.43c-3 .37-4.84-.87-4.8-3.15.13-1.29.23-2.57.33-3.85l.33-3.86c.1-1.28.21-2.56.3-3.85s.21-2.57.31-3.87c.34-2.36 2.47-4.3 5.42-4.93l14.46-2.5c3-.4 4.92.85 4.9 3.18-.1 1.28-.2 2.57-.28 3.85Zm2.39-36.42c-.08 1.32-.15 2.64-.23 4s-.15 2.63-.24 4-.17 2.62-.25 3.92c-.3 2.42-2.44 4.37-5.43 5l-14.42 2.54c-2.92.39-4.81-.85-4.79-3.19.08-1.31.17-2.61.26-3.91l.27-3.93c.09-1.32.17-2.62.25-3.92s.18-2.62.25-3.93c.3-2.42 2.38-4.42 5.33-5.06l14.32-2.62c3-.41 4.9.84 4.91 3.22-.1 1.19-.1 2.55-.23 3.86Zm1.9-37.07c0 1.34-.12 2.69-.18 4s-.13 2.66-.18 4-.13 2.66-.2 4c-.27 2.46-2.35 4.49-5.33 5.14l-14.29 2.67c-2.91.41-4.79-.86-4.82-3.25.07-1.32.16-2.65.22-4s.13-2.67.2-4 .13-2.66.2-4 .14-2.65.2-4c.25-2.47 2.3-4.5 5.22-5.17l14.22-2.72c2.94-.44 4.88.82 4.9 3.23-.03 1.4-.1 2.74-.16 4.08Zm1.49-39.29c0 .92-.08 1.83-.11 2.75s-.07 1.84-.1 2.75l-.09 2.77v1.4c0 .46 0 .9-.05 1.37s0 .93 0 1.38v1.4c-.24 2.48-2.29 4.54-5.24 5.24l-14.17 2.76c-2.89.45-4.79-.85-4.84-3.25l.06-1.38c0-.46 0-.91.05-1.37s0-.92.06-1.38 0-.93 0-1.37c0-.94.07-1.85.1-2.77s.07-1.83.12-2.74l.12-2.72c0-.9.07-1.82.13-2.7.24-2.5 2.28-4.57 5.17-5.27l14.1-2.86c3-.46 4.82.8 4.88 3.28a26.6 26.6 0 0 0-.19 2.69Zm1.86-35.53c-.09 1.25-.18 2.54-.26 3.8s-.15 2.55-.23 3.85-.16 2.57-.24 3.88c-.28 2.41-2.34 4.42-5.26 5.14l-14.05 2.88c-2.87.48-4.72-.74-4.72-3.08.08-1.29.17-2.57.25-3.86s.18-2.55.26-3.83.18-2.51.28-3.79.18-2.49.27-3.73c.33-2.29 2.37-4.23 5.25-4.94l14-2.94c2.93-.51 4.73.59 4.72 2.85-.1 1.24-.2 2.48-.27 3.75Zm2.79-33.5c-.1 1.14-.23 2.29-.33 3.43s-.23 2.31-.34 3.47-.22 2.34-.31 3.52c-.35 2.19-2.44 4.07-5.33 4.79l-13.93 3c-2.85.5-4.64-.55-4.58-2.66.1-1.16.23-2.33.35-3.5s.23-2.31.34-3.45.26-2.29.38-3.41.24-2.27.37-3.38c.38-2.09 2.41-3.83 5.29-4.57l13.86-3c2.9-.52 4.66.4 4.58 2.42-.1 1.04-.26 2.19-.35 3.32Zm3.65-30c-.14 1-.28 2-.43 3.06s-.28 2.06-.43 3.1-.27 2.1-.4 3.15c-.4 1.95-2.51 3.68-5.38 4.42l-13.82 3.06c-2.8.53-4.54-.36-4.42-2.24.15-1 .3-2.08.42-3.12s.31-2.07.44-3.08.31-2 .46-3 .31-2 .47-3c.42-1.84 2.52-3.49 5.35-4.21l13.73-3.1c2.86-.56 4.57.21 4.45 2-.14.92-.29 1.92-.44 2.93Zm4.43-26.54c-.16.9-.34 1.79-.51 2.69l-.51 2.72c-.15.93-.33 1.85-.49 2.77-.43 1.74-2.57 3.34-5.41 4.07l-13.69 3.12c-2.79.57-4.48-.16-4.3-1.82.16-.94.34-1.85.51-2.75s.35-1.82.53-2.73.35-1.78.54-2.67.36-1.76.54-2.63c.47-1.62 2.53-3.1 5.39-3.84l13.6-3.16c2.85-.59 4.51 0 4.33 1.6-.17.87-.35 1.72-.52 2.6Zm5.77-25.34c-.19.74-.4 1.51-.59 2.27s-.39 1.53-.59 2.31-.4 1.57-.58 2.36-.39 1.58-.58 2.38c-.49 1.52-2.64 3-5.45 3.7l-13.57 3.17c-2.75.59-4.39 0-4.16-1.41.18-.8.39-1.59.59-2.38s.39-1.57.59-2.35.42-1.54.62-2.3.41-1.52.62-2.27c.52-1.39 2.65-2.75 5.42-3.48l13.49-3.2c2.81-.64 4.43-.22 4.19 1.17Zm5.94-19.3c-.23.62-.45 1.26-.67 1.91s-.44 1.28-.66 1.94-.44 1.33-.65 2-.43 1.35-.66 2c-.52 1.29-2.69 2.6-5.47 3.32l-13.44 3.22c-2.74.59-4.34.19-4.07-1 .23-.69.44-1.35.67-2s.46-1.34.68-2 .45-1.31.68-2 .46-1.28.7-1.92c.56-1.15 2.69-2.37 5.45-3.09l13.36-3.24c2.79-.6 4.38-.26 4.08.83Zm6.58-15.91c-.25.5-.5 1-.73 1.54s-.5 1-.73 1.59-.49 1.08-.74 1.63-.46 1.11-.71 1.66c-.57 1.07-2.74 2.24-5.51 2.95l-13.32 3.25c-2.7.6-4.25.36-3.94-.63.24-.57.48-1.12.73-1.67s.5-1.09.75-1.63.51-1.06.75-1.58.51-1 .76-1.54c.59-1 2.7-2 5.48-2.74l13.25-3.25c2.74-.67 4.28-.51 3.96.39Zm7.16-12.58-.8 1.18c-.27.41-.52.82-.79 1.23l-.78 1.29c-.26.41-.52.85-.77 1.3-.63.85-2.81 1.86-5.54 2.58l-13.21 3.26c-3.43.8-3.78.19-3.9 0a2.13 2.13 0 0 1 .07-.27l.81-1.3c.26-.44.53-.86.8-1.27s.55-.82.8-1.24.56-.78.83-1.19c.63-.73 2.74-1.63 5.5-2.36l13.12-3.26c3.47-.82 3.81-.36 3.94-.18-.04.04-.05.14-.08.2Zm7.71-9.3c-.29.28-.57.57-.85.85l-.85.87-.84.93c-.29.3-.56.62-.84.94-.65.64-2.83 1.52-5.55 2.21l-13.07 3.26c-3.08.74-3.58.49-3.79.37a.44.44 0 0 1 .06-.25l.85-1 .86-.92q.43-.45.87-.87c.3-.3.58-.58.87-.85a20.47 20.47 0 0 1 5.53-2l13-3.25c3.11-.77 3.58-.61 3.82-.52a1.46 1.46 0 0 0-.07.2Zm8.24-6.08c-.32.18-.62.34-.92.53s-.6.34-.91.53l-.89.57-.88.6a28.63 28.63 0 0 1-5.58 1.85l-13 3.24c-3 .75-3.5.66-3.71.62l.08-.16.9-.6c.31-.2.61-.4.93-.57s.6-.37.91-.54.62-.35.93-.5a47.61 47.61 0 0 1 5.54-1.64l12.88-3.24a22.88 22.88 0 0 1 3.73-.78.31.31 0 0 1-.01.06Z" class="color0a0909 svgShape"></path><path fill="#0a0909" d="m1487.05 566-.68.17.65-.16ZM1487.24 565.93l-.19.05.44-.11ZM1487.57 565.85h-.08l-.44.11Z" class="color0a0909 svgShape"></path><path fill="#e6336b" d="m1264.49 1332.43-180.71 11c-13.49 1.32-17.89 5.41-18.91 6.63q-1.8 2.28-3.61 4.5c-1.21 1.49-2.41 3-3.63 4.41s-2.47 2.87-3.7 4.28-2.48 2.81-3.74 4.17a237.84 237.84 0 0 1-24.17 23.13 186.68 186.68 0 0 1-25.67 17.93 151.05 151.05 0 0 1-27.05 12.29 132.86 132.86 0 0 1-28.33 6.27c-.51.06-1.21.15-1.73.2 1.89.09 1.89.09 9-.19l194-7.56c16.21-.62 20.4-.84 24.86-1.28a103 103 0 0 0 25.44-6.48 123.27 123.27 0 0 0 24.06-12.9 162.77 162.77 0 0 0 22.58-18.82 222 222 0 0 0 21-24.32q1.62-2.16 3.24-4.38c1-1.48 2.13-3 3.18-4.52s2.1-3 3.14-4.62 2.07-3.13 3.11-4.73c.11-.51.27-1.21.38-1.74-1.38-1.93-3.43-3.7-12.74-3.27ZM1328.14 1176.85l-170.14 17.2c-9.26 1.22-15.18 6-16.73 9.84q-6.66 18.39-13.87 35.55-7.27 17.31-15.1 33.32-7.9 16.17-16.38 30.87-8.55 14.88-17.66 28.2c-.48 1.41-1.93 5.68 10.21 5.17l180.15-11.31c9.61-.78 17.18-3.61 19.74-7.38q7.79-14 15-29.6 7.14-15.45 13.72-32.41 6.53-16.75 12.52-34.91 5.91-17.94 11.31-37.21c.74-7.18-7.67-7.69-12.77-7.33ZM1366.38 975.21l-160.77 24.54c-10.08 1.92-14 8.57-14.81 12.21q-4 22.29-8.44 43.69-4.48 21.58-9.53 42.22-5.07 20.85-10.66 40.64-5.67 20-11.83 38.9c-1.22 7.09 6.24 7.6 10.81 7.26l169.64-17.55c8.83-1.18 15.67-5.36 17.43-10.65q5-19.76 9.38-40.67 4.39-20.68 8.3-42.45 3.87-21.52 7.24-44.07 3.34-22.34 6.22-45.58c-.11-8.7-8.19-9.05-12.98-8.49ZM1384 745.24l-152.73 32.32c-8.44 2.12-13 8-13.71 12.93-.42 3.35-.8 6.73-1.18 10.16s-.75 6.91-1.09 10.44-.71 7.09-1 10.72-.63 7.28-.93 11q-1.56 19.19-3.36 37.86t-4 37.19q-2.15 18.5-4.6 36.5t-5.26 35.75c-.28 8.45 7 8.86 11.32 8.37l160.31-25c8.28-1.6 14.33-6.71 15.41-13q1.92-18.39 3.61-37.27t3-38c.89-12.76 1.72-25.67 2.42-38.74s1.34-26.12 1.89-39.42q.21-5.79.49-11.44c.19-3.76.39-7.49.59-11.15s.44-7.28.67-10.84.49-7.08.76-10.55c-.43-8.64-8.11-8.61-12.61-7.83ZM1419.08 599l-144.68 35.79c-8.16 2.11-13.18 5-14.54 6.85a145.53 145.53 0 0 0-11.36 20.67 248.65 248.65 0 0 0-10.22 26.51q-4.8 14.79-8.91 32.42-4.12 17.79-7.48 38.38c-.25 8.1 7.51 7.61 10.86 7L1385.06 734c7.79-2 13.5-7 14.53-12.92q2.36-21.3 5.49-39.68 3.09-18.18 6.9-33.4a268.87 268.87 0 0 1 8.2-27.16 151.2 151.2 0 0 1 9.38-21c0-.4-.09-.94-.13-1.34-1.43-.5-3.12-1.18-10.35.5ZM1286.67 616.94a45.22 45.22 0 0 0-6.22 3.34 54.52 54.52 0 0 0-6 4.5 53.13 53.13 0 0 0-6.2 6.25c.81.82 1.52 1.53 9.21-.2 155.51-38.57 155.51-38.57 159.43-42.26a62.1 62.1 0 0 1 5-5.64 46.88 46.88 0 0 1 5.16-4.41 37.06 37.06 0 0 1 5.33-3.2 28.25 28.25 0 0 1 5.51-2L1293 614.74a39 39 0 0 0-6.33 2.2Z" class="colore6336b svgShape"></path><path fill="none" d="M1226.91 643.1c-8.75 10.16-16.76 24.18-23.88 42q-10.87 27.16-18.83 65.9-8 39.31-12.57 90.08c-5.08 57.25-12.24 111.69-21.43 162.69-9.46 52.54-21.09 101.64-34.79 146.46-14.16 46.37-30.59 88.33-49.16 124.84-19.26 37.89-40.89 70-64.72 95.09a242.25 242.25 0 0 1-26.73 24.4 188.83 188.83 0 0 1-28.43 18.37 155 155 0 0 1-30 11.91 137.75 137.75 0 0 1-31.41 4.91l336.57-13.12a92.51 92.51 0 0 0 26.84-5.09 109.49 109.49 0 0 0 25.23-12.76 149.28 149.28 0 0 0 23.53-19.76 217.76 217.76 0 0 0 21.74-26.25c19.17-27 36.13-61.49 50.81-102.19 14.09-39.1 26.12-84 36-133.57 9.58-47.8 17.22-100.12 22.91-156.06 5.5-54.2 9.18-112 11-172.84q1.6-53.73 6.65-95.2 4.9-40.62 12.79-68.85c5.11-18.42 11.12-32.77 17.88-43 6.65-10 14-16.07 22.08-18.08l-244.23 61.39c-9.88 2.48-19.24 8.76-27.85 18.73Z"></path><g style="isolation:isolate" fill="#000000" class="color000 svgShape"><path fill="#b3b3b3" d="M1106.79 1056.91c-.06 0-.13-.06-.21-.08l-.23-.09-339.25 47.79.26.07a1.17 1.17 0 0 0 .25.07l.26.08.27.09 339.12-47.72a1.15 1.15 0 0 0-.23-.1 2.56 2.56 0 0 1-.24-.11Z" class="colorb3b3b3 svgShape"></path><path fill="#adadad" d="m1105 1056.24-.68-.21-.71-.19-339.61 48 .78.14.78.18c.26 0 .53.11.79.18l.78.22 339.25-47.79c-.23-.1-.46-.18-.7-.26s-.48-.2-.68-.27Z" class="coloradadad svgShape"></path><path fill="#a8a8a8" d="m1102.28 1055.54-.66-.12-.67-.09-340 48.09.75.07.75.08.75.1c.25.06.5.09.75.14l339.61-48-.66-.16Z" class="colora8a8a8 svgShape"></path><path fill="#a3a3a3" d="M1099.65 1055.2h-1.32L758 1103.37h1.51a5.93 5.93 0 0 1 .73 0h.76l340-48.09-.65-.08Z" class="colora3a3a3 svgShape"></path><path fill="#9e9e9e" d="M1097 1055.21h-.65l-.66.08L755 1103.62c.25 0 .52-.07.76-.09l.76-.08h.74a6.81 6.81 0 0 1 .78-.05l340.34-48.2h-.66c-.27-.03-.49-.01-.72.01Z" class="color9e9e9e svgShape"></path><path fill="#999999" d="M1095.66 1055.34ZM754.93 1103.62l234.19-33.18-234.22 33.18ZM1095.6 1055.36v-.01l-106.46 15.09 106.46-15.08zM754.87 1103.62Z" class="color999 svgShape"></path></g><path fill="#0a0909" d="M758.19 1103.35a25.18 25.18 0 0 1 3.36.14 26.94 26.94 0 0 1 3.31.48c1.09.23 2.2.53 3.28.87l12.55-1.77c-.61-.19-1.2-.37-1.79-.52s-1.21-.3-1.82-.42-1.21-.22-1.81-.3-1.21-.14-1.82-.19a32.73 32.73 0 0 1 5.76-1.46l-24.37 3.45a31.74 31.74 0 0 1 3.35-.28ZM785.06 1099.35c-1.95.22-3.94.49-5.85.83ZM1048.27 1065.42l-74.36 10.46 74.36-10.46zM1068.9 1059.14a110.77 110.77 0 0 0-11.19 1.58Z" class="color0a0909 svgShape"></path><path fill="#0a0909" d="M1039.28 1063.56a19 19 0 0 1 3 .21 23.13 23.13 0 0 1 3 .61 28.5 28.5 0 0 1 3 1l11.16-1.57a28.82 28.82 0 0 0-3.28-1.11 30.88 30.88 0 0 0-3.28-.64 34 34 0 0 1 4.84-1.38l-21.39 3a22.63 22.63 0 0 1 2.95-.12ZM1101.43 1055.4a17.91 17.91 0 0 0-2.93-.23 16.81 16.81 0 0 0-2.91.19l-26.69 3.78c2.08-.22 4.08-.43 5.89-.69 4.51-.59 4.9-.62 7.88-.82a18.67 18.67 0 0 1 3.27.29 31.61 31.61 0 0 1 3.24.9c.53.18 1.07.38 1.6.61l16.48-2.31a25.61 25.61 0 0 0-2.9-1.07 21.65 21.65 0 0 0-2.93-.65ZM816.37 1096.7a30.86 30.86 0 0 0-3.27-.52 32.46 32.46 0 0 0-3.28-.13 25.75 25.75 0 0 0-3.29.26l185.17-26.23-206.64 29.27c2.17-.26 4.29-.47 6.16-.74 3.93-.51 4.44-.55 7.15-.74a24.67 24.67 0 0 1 3.52.2 26.722 26.722 0 0 1 3.58.73c.58.16 1.2.34 1.79.54l166.65-23.46-154.29 21.71a32.72 32.72 0 0 0-3.25-.89ZM1036.27 1063.76l-44.57 6.32 44.62-6.33Z" class="color0a0909 svgShape"></path><path fill="#ffffff" d="M1042.29 1063.77a19 19 0 0 0-3-.21 21.84 21.84 0 0 0-3 .2l-229.74 32.55a25.75 25.75 0 0 1 3.29-.26 32.46 32.46 0 0 1 3.28.13 30.86 30.86 0 0 1 3.27.52 32.72 32.72 0 0 1 3.25.89l228.65-32.17a28.5 28.5 0 0 0-3-1 23.13 23.13 0 0 0-3-.65Z" class="colorfff svgShape"></path><path fill="none" d="M1101.45 1055.4a19.4 19.4 0 0 0-2.93-.24 17.92 17.92 0 0 0-2.92.2l-340.78 48.27a32.57 32.57 0 0 1 3.37-.28 28.86 28.86 0 0 1 3.35.13 29.55 29.55 0 0 1 3.32.49c1.08.23 2.17.53 3.28.87l339.12-47.72a22.11 22.11 0 0 0-2.9-1.07 21.71 21.71 0 0 0-2.91-.65Z"></path><path fill="#0a0909" d="M1162.85 1422h-.28l-89.33 3.41ZM1173.9 1421.57l31-1.18h-.32l-31.23 1.19ZM897 1432.13l11.93-.46-12.1.46Z" class="color0a0909 svgShape"></path><path fill="#0a0909" d="M1208.93 1419.42a99.93 99.93 0 0 1-12.59-2 112.48 112.48 0 0 1-12.81-3.69 128.52 128.52 0 0 1-13.07-5.44 179.2 179.2 0 0 1-41-27.5 207.14 207.14 0 0 1-34.56-39.85 249.64 249.64 0 0 1-26-50.9 304.7 304.7 0 0 1-15.78-60c-.25-1.67-.49-3.33-.73-5s-.46-3.31-.68-5-.42-3.3-.61-5-.36-3.31-.52-4.94a332.06 332.06 0 0 1-1.34-46.39 286.66 286.66 0 0 1 4.54-40.35 201.57 201.57 0 0 1 8.65-32.34 105.92 105.92 0 0 1 11.13-22.72 60.22 60.22 0 0 1 4.81-6.2 37.53 37.53 0 0 1 5-4.61 24.12 24.12 0 0 1 5-3.07 18.14 18.14 0 0 1 5-1.48l-16.87 2.39-.58.08c-6.08 1-6.08 1-26.34 3.87-4.68.59-10.9 1.47-15.57 2.1a19.68 19.68 0 0 0-5.2 1.5 26.12 26.12 0 0 0-5.18 3.06 40 40 0 0 0-5.13 4.57 61.3 61.3 0 0 0-5 6.12 88.68 88.68 0 0 0-6.79 11.47 139 139 0 0 0-6.22 14.7c-1.95 5.42-3.76 11.33-5.37 17.67s-3 13.18-4.18 20.37c-5 16.16-5 16.16-222.63 41.69-12.33.32-13.17-7.1-13.62-11.08a182.25 182.25 0 0 1 5.36-21.13 168.69 168.69 0 0 1 6.32-16.65 127.44 127.44 0 0 1 7.19-13.9 83.24 83.24 0 0 1 7.64-10.77 60.88 60.88 0 0 1 5.63-5.86 44.49 44.49 0 0 1 5.71-4.41 32.38 32.38 0 0 1 5.75-3 25.18 25.18 0 0 1 5.72-1.54l-12.64 1.81-.58.08c-5.73.94-5.73.94-22.79 3.37-.85.1-2 .25-2.86.28l-12.84 1.83a27.21 27.21 0 0 0-5.82 1.53 34.67 34.67 0 0 0-5.86 3 45.45 45.45 0 0 0-5.82 4.36 64.33 64.33 0 0 0-5.76 5.79 98.59 98.59 0 0 0-13.59 21 167.24 167.24 0 0 0-11.14 29.58 216 216 0 0 0-6.75 36.66 237.18 237.18 0 0 0-.33 41.9c.1 1.48.24 3 .41 4.44s.32 3 .47 4.47.37 3 .57 4.49.43 3 .66 4.48a218.89 218.89 0 0 0 15.51 53.83 197.37 197.37 0 0 0 27.61 45.56 191.53 191.53 0 0 0 37.85 35.57 201.88 201.88 0 0 0 46 24.46q7.43 2.79 14.81 4.8a147.23 147.23 0 0 0 14.67 3.23 137.46 137.46 0 0 0 14.46 1.68 135.89 135.89 0 0 0 14.26.2l12.34-.47h-9.86c.24-.13.36-.17 3.17-.29l15.53-.6c4.35-.15 7.27-.11 8.63-.09.77 0 1.53 0 2.3.06h4.59c.76 0 1.51 0 2.29-.07l-14.55.56 164.31-6.26-137.47 5.23a131.54 131.54 0 0 1-13.46-.17 136.86 136.86 0 0 1-13.65-1.57c-4.59-.77-9.21-1.77-13.83-3s-9.34-2.76-14-4.5a9.19 9.19 0 0 1-2.95-2.35c1.79-1.68 2.17-2 8.52-2.52l198.91-8.55c11-.14 20.19 1.14 27.42 3.8a130.24 130.24 0 0 0 12.86 4.89 114.78 114.78 0 0 0 12.67 3.3 103.13 103.13 0 0 0 12.42 1.77 98.92 98.92 0 0 0 11.91.28l10.82-.41h-5.6c-.62 0-1.4 0-2.07-.07h-.43c.45-.17.56-.23 4.12-.38l18.23-.69c5.28-.17 8.23-.12 9.25-.09l2 .08h5.7l16.62-.64a90.67 90.67 0 0 1-12.32-.42Zm-119.23-61.28a169.327 169.327 0 0 0 5.34 6.26c.91 1.02 1.81 2 2.73 3s1.86 2 2.79 2.95c1.51 1.78 0 3.06-3.84 3.36l-19 1c-4 .11-7.78-.93-9.68-2.64-.95-1-1.89-1.93-2.81-2.91s-1.86-2-2.78-3-1.82-2-2.72-3-1.79-2.08-2.69-3.13c-1.41-2 .14-3.42 4-3.73l19-1.12c4.08-.18 7.86 1.02 9.66 2.96Zm-22.26-32.67c.71 1.28 1.43 2.53 2.16 3.8s1.47 2.47 2.23 3.7 1.51 2.44 2.27 3.65 1.55 2.41 2.34 3.59c1.25 2.19-.42 3.78-4.35 4.13l-19.1 1.17c-4 .13-7.62-1.16-9.27-3.26-.8-1.18-1.58-2.36-2.34-3.55s-1.55-2.41-2.31-3.62-1.51-2.44-2.24-3.68-1.47-2.49-2.18-3.75c-1.12-2.32.66-4.06 4.52-4.44l19.17-1.3c4.01-.16 7.59 1.25 9.1 3.56Zm-17.44-38.09c.53 1.44 1.08 2.88 1.63 4.32s1.11 2.86 1.66 4.27 1.15 2.82 1.76 4.22 1.18 2.78 1.8 4.17c.92 2.54-1 4.37-4.94 4.79l-19.19 1.36c-4 .16-7.41-1.32-8.73-3.77-.62-1.37-1.21-2.73-1.8-4.12s-1.19-2.77-1.77-4.18-1.13-2.81-1.68-4.23-1.09-2.85-1.62-4.29c-.78-2.64 1.24-4.63 5.14-5.09l19.21-1.51c4.02-.18 7.38 1.41 8.53 4.06Zm-40.42-21.09c-.41-1.53-.82-3.06-1.2-4.6s-.77-3.1-1.13-4.65-.74-3.12-1.08-4.7-.68-3.14-1-4.72c-.4-2.93 1.88-5.15 5.79-5.66l19.21-1.76c4-.2 7.09 1.53 7.89 4.47.32 1.58.66 3.18 1 4.76s.71 3.17 1.08 4.74.75 3.13 1.14 4.69.8 3.1 1.21 4.65c.57 2.84-1.57 4.91-5.58 5.4l-19.21 1.58c-3.97.2-7.16-1.49-8.11-4.2Zm12.29-186.66c.23-.39.47-.78.71-1.17s.49-.75.73-1.12.48-.72.73-1.09l.72-1c.5-.73 1-1.43 1.54-2.09s1-1.31 1.55-1.93 1.05-1.22 1.57-1.79 1-1.11 1.57-1.62c2.61-2.32 7.91-3.3 9.47-3.54l18.54-2.61c5.15-.66 4.55.75 4 1.38l-.26.3c-.52.51-1 1.06-1.55 1.64s-1 1.15-1.52 1.79-1 1.25-1.53 1.93-1 1.37-1.51 2.1c-.24.34-.48.69-.72 1.06s-.48.71-.72 1.09l-.69 1.14c-.24.38-.48.77-.71 1.18-1.23 1.77-4.52 3.32-8.42 3.94l-18.69 2.55c-3.68.4-5.63-.45-4.8-2.14Zm-13.89 34c.43-1.5.85-3 1.28-4.41s.89-2.87 1.35-4.25.93-2.74 1.4-4.06 1-2.61 1.47-3.88c1.06-2.3 4.21-4.11 8.19-4.75l18.76-2.53c3.88-.41 5.87.73 5.2 3-.48 1.27-1 2.58-1.41 3.91s-.92 2.71-1.36 4.09-.89 2.82-1.32 4.28-.84 2.93-1.26 4.45c-.94 2.84-4.1 5.09-8 5.72l-18.91 2.4c-3.79.4-5.95-1.2-5.37-3.92Zm-7.72 42.76c.2-1.91.38-3.8.61-5.66s.44-3.73.7-5.54.51-3.64.79-5.41c.71-3.25 3.62-5.68 7.61-6.33l19-2.31c4-.34 6.21 1.46 5.91 4.69q-.39 2.7-.75 5.46c-.23 1.84-.46 3.7-.66 5.59s-.4 3.79-.58 5.72-.33 3.88-.46 5.86a8.24 8.24 0 0 1-7.23 7l-19.08 2.17c-3.9.23-6.38-1.9-6.32-5.46.12-1.87.28-3.82.47-5.73Zm5.42 31.07 19.12-2c4-.24 6.7 2.07 7 6 .05 1.67.13 3.35.21 5s.19 3.38.3 5.09.24 3.42.38 5.14.3 3.46.47 5.2c0 .42.08.83.12 1.24s.1.84.14 1.26.08.84.13 1.27.09.82.14 1.25c.18 3.38-2.24 5.94-6.18 6.48l-19.2 1.85c-4 .21-6.88-1.81-7.45-5.12-.06-.41-.1-.83-.15-1.24s-.09-.82-.14-1.24-.07-.84-.11-1.24-.09-.84-.12-1.24c-.18-1.72-.32-3.45-.46-5.15s-.27-3.4-.37-5.09-.2-3.38-.27-5.06-.16-3.34-.21-5a7.46 7.46 0 0 1 6.66-7.35Zm-267.3-68.84.83-1.09.84-1.06c.29-.33.57-.68.84-1l.84-1c.61-.69 1.18-1.34 1.79-2s1.18-1.23 1.78-1.82 1.19-1.13 1.81-1.69 1.19-1 1.78-1.53c2.9-2.21 7.52-3.07 8.89-3.28l15.66-2.23c3.58-.43 3.55.42 2.87 1.19a3.58 3.58 0 0 1-.57.53c-.58.5-1.17 1-1.77 1.56s-1.19 1.11-1.78 1.69-1.18 1.2-1.77 1.85-1.16 1.29-1.74 2c-.3.32-.57.66-.83 1s-.56.69-.85 1-.54.71-.82 1.08-.56.71-.82 1.1c-1.39 1.66-4.38 3.07-7.66 3.6l-15.7 2.21c-3.21.36-4.64-.47-3.61-2.06Zm-16.5 31.76c.52-1.39 1-2.75 1.57-4.09s1.06-2.66 1.61-3.94 1.13-2.56 1.7-3.79 1.14-2.43 1.74-3.63c1.21-2.12 4.08-3.79 7.45-4.35l15.82-2.12c3.24-.34 4.71.76 3.83 2.88-.59 1.19-1.16 2.4-1.72 3.64s-1.13 2.53-1.65 3.8-1.09 2.63-1.62 4-1 2.73-1.55 4.13a9.46 9.46 0 0 1-7.25 5.25l-15.9 2c-3.16.32-4.78-1.16-4.02-3.73ZM712 1190c.26-1.77.55-3.51.84-5.24s.62-3.44 1-5.12.68-3.34 1.05-5a8.35 8.35 0 0 1 6.83-5.78l15.94-2c3.3-.27 5 1.43 4.56 4.42-.38 1.67-.72 3.35-1 5s-.65 3.42-.94 5.16-.56 3.5-.82 5.28-.48 3.58-.71 5.4a7.67 7.67 0 0 1-6.39 6.41l-16 1.81c-3.28.2-5.24-1.78-5-5.09q.21-2.59.64-5.25Zm-1.34 58.63c0-.37-.07-.75-.11-1.13s-.07-.77-.11-1.15-.06-.77-.1-1.14 0-.75-.08-1.13c-.16-1.59-.25-3.16-.34-4.73s-.17-3.13-.25-4.67-.11-3.11-.13-4.64-.07-3.09-.09-4.61a6.82 6.82 0 0 1 5.74-6.76l16.05-1.71c3.34-.18 5.53 2 5.72 5.58 0 1.53 0 3.08.08 4.64s.08 3.1.16 4.67.15 3.15.25 4.72.21 3.16.34 4.76c0 .38.07.77.1 1.15s.07.76.12 1.15a11.13 11.13 0 0 0 .09 1.15c0 .39.07.76.12 1.16.16 3.1-1.87 5.4-5.18 5.88l-16.1 1.57c-3.36.17-5.83-1.69-6.31-4.74Zm8.13 42.22c-.41-1.39-.81-2.8-1.19-4.2s-.76-2.84-1.11-4.26-.7-2.86-1-4.3-.65-2.87-1-4.33c-.39-2.68 1.49-4.68 4.76-5.13l16.13-1.47c3.34-.15 6 1.46 6.7 4.12l1 4.38c.33 1.45.67 2.89 1 4.33s.74 2.86 1.1 4.29.78 2.84 1.2 4.24c.57 2.61-1.13 4.48-4.47 4.89l-16.12 1.34c-3.37.18-6.13-1.36-7.03-3.88Zm22.36 40.45c-3.37.13-6.4-1.24-7.71-3.47-.63-1.25-1.25-2.52-1.88-3.77s-1.22-2.53-1.8-3.82-1.18-2.56-1.74-3.86-1.13-2.6-1.65-3.92c-.84-2.41.74-4.21 4-4.6l16.12-1.27c3.38-.14 6.29 1.32 7.45 3.73.55 1.32 1.11 2.64 1.67 4s1.12 2.59 1.71 3.89 1.21 2.57 1.81 3.85 1.24 2.53 1.88 3.8c1 2.32-.45 4-3.77 4.33Zm13 28.91c-.84-1.07-1.67-2.16-2.5-3.24s-1.63-2.19-2.41-3.3-1.61-2.23-2.38-3.34-1.55-2.28-2.3-3.42c-1.23-2.13.09-3.69 3.33-4l16.11-1.09c3.38-.11 6.58 1.17 8.12 3.29.75 1.14 1.52 2.3 2.29 3.44s1.57 2.26 2.36 3.38 1.61 2.24 2.43 3.34 1.64 2.17 2.48 3.27c1.38 2 .19 3.43-3.07 3.72l-16.08 1c-3.43.07-6.71-1.11-8.41-3.03Zm26.1 27.2c-1-.87-2-1.77-3-2.66s-2-1.81-3-2.72-2-1.85-2.93-2.79-1.92-1.89-2.89-2.86c-1.56-1.77-.48-3.09 2.73-3.37l16-.93c3.37-.11 6.78 1 8.68 2.75 1 1 1.9 1.93 2.88 2.87s1.91 1.89 2.89 2.82 2 1.84 3 2.74 2 1.8 3 2.68c1.69 1.62.73 2.78-2.53 3l-16 .84c-3.36.16-6.86-.78-8.86-2.35Zm39.95 23.28a20.71 20.71 0 0 1-9.29-1.79c-1.18-.67-2.35-1.35-3.5-2s-2.29-1.39-3.44-2.11-2.27-1.43-3.4-2.16-2.25-1.48-3.35-2.25c-2.59-1.91.72-2.51 1.11-2.57s.72-.08 1.06-.11l15.94-.8a17.42 17.42 0 0 1 9.15 2.16l3.36 2.25c1.11.75 2.23 1.47 3.38 2.19s2.26 1.43 3.42 2.12 2.29 1.36 3.46 2.05c2.31 1.44.2 2-.5 2.15a9.68 9.68 0 0 1-1.53.17Zm32.56 14.08a31.39 31.39 0 0 1-8.76-.77c-.41-.16-.83-.3-1.25-.45l-1.23-.44-1.25-.45c-.41-.16-.82-.32-1.24-.46-.75-.3-1.51-.58-2.25-.89l-2.24-.9c-.73-.29-1.47-.61-2.22-.92s-1.49-.62-2.21-.94c-1.93-.92-1.14-1.44-.51-1.66a9.85 9.85 0 0 1 2.19-.34l15.82-.67a25.72 25.72 0 0 1 9.55 1.5l2.2 1c.72.29 1.47.62 2.19.93l2.22.9c.76.29 1.49.59 2.24.89l1.24.47c.4.15.81.31 1.23.45s.83.3 1.23.46l1.24.42a3.27 3.27 0 0 1 .79.46 2.64 2.64 0 0 0-.07.3c-.44.22-.85.44-3.21.55Zm25.41 2.17a42 42 0 0 1 8.75.55c1 .23 2 .45 3 .66s2 .41 3 .6 2 .37 3 .53l3 .47a3.76 3.76 0 0 1 .77.19c-.26.21-.39.32-3.25.44l-15.6.6a59.66 59.66 0 0 1-8.63-.2c-1-.14-2-.29-3-.46l-3-.51-3-.59-3-.67a5 5 0 0 1-.79-.29 1.28 1.28 0 0 1 .06-.23 8.25 8.25 0 0 1 3.12-.46Zm196.48-24.91L875 1411c-5.72.16-16.73-.28-26.05-4.94a194.87 194.87 0 0 1-63.08-60.36 207 207 0 0 1-20.87-40.87 231.52 231.52 0 0 1-12.27-46.57l-.66-4.56c-.2-1.52-.4-3-.59-4.55s-.33-3-.5-4.55-.29-3-.41-4.52c-.16-1.8-.29-3.6-.4-5.4s-.2-3.58-.26-5.34-.13-3.54-.16-5.3 0-3.49 0-5.23a19.31 19.31 0 0 1 16.7-18.65l202.74-22.58c10.67-.67 17.47 5.31 18.24 16 0 1.85.09 3.72.17 5.6s.18 3.78.28 5.67.25 3.81.39 5.74.31 3.85.5 5.78c.15 1.62.31 3.23.49 4.85s.39 3.26.61 4.89.42 3.25.65 4.88.46 3.27.71 4.89a290.58 290.58 0 0 0 12.5 50.07 248.93 248.93 0 0 0 20.21 44 215.62 215.62 0 0 0 26.89 36.71 192.82 192.82 0 0 0 32.41 28.45 9.66 9.66 0 0 1 2.27 3.09c-1.1 1.8-2.02 3.3-10.89 3.85Zm31.69-4.36c-4 .12-7.9-.65-10-2-1.07-.73-2.14-1.47-3.19-2.24s-2.12-1.53-3.15-2.31-2.09-1.56-3.12-2.38-2.07-1.61-3.09-2.45c-1.66-1.51-.26-2.72 3.47-3l18.9-.94c4-.12 7.87.81 9.92 2.34 1 .83 2 1.67 3.06 2.48s2.05 1.63 3.07 2.42 2.08 1.56 3.12 2.32 2.1 1.52 3.17 2.26c2.31 1.81-1.37 2.39-2.12 2.48-.38 0-.91.09-1.28.11Zm29.53 15.55c-4 .12-7.59-.22-9.42-.91-.38-.16-.75-.33-1.13-.47l-1.11-.5-1.14-.5-1.13-.52c-.67-.33-1.35-.64-2-1l-2-1-2-1c-.68-.34-1.35-.7-2-1-1.64-1-.72-1.54.33-1.84a14.47 14.47 0 0 1 2.71-.38l18.68-.81c4-.11 8 .54 10.2 1.65l2 1.07 2 1c.68.36 1.35.68 2 1s1.34.66 2 1l1.1.52c.37.18.74.34 1.12.51l1.1.5c.37.15.74.33 1.1.48a2.21 2.21 0 0 1 .55.37 1 1 0 0 1 0 .24c-.32.26-.81.68-4.36.85Zm43.38 6.23-18.3.7a59.86 59.86 0 0 1-9.26-.21c-.89-.18-1.78-.34-2.66-.53s-1.8-.38-2.69-.58-1.78-.43-2.68-.67-1.8-.48-2.7-.74a2.83 2.83 0 0 1-.57-.25l.08-.25c.5-.21 1.08-.44 4.16-.59l18.44-.75a41.28 41.28 0 0 1 9.43.6c.88.26 1.77.51 2.65.74l2.66.68c.89.21 1.76.4 2.64.59s1.74.37 2.63.52a4.51 4.51 0 0 1 .52.17c-.34.26-.6.43-4.38.59Z" class="color0a0909 svgShape"></path><path fill="#e6336b" d="M1150.66 1421.72a103.13 103.13 0 0 1-12.42-1.77 114.78 114.78 0 0 1-12.67-3.3 130.24 130.24 0 0 1-12.86-4.89c-7.23-2.66-16.45-3.94-27.42-3.8-2 .08-202.12 6.11-207.43 11.07a9.19 9.19 0 0 0 2.95 2.35q7 2.61 14 4.5c4.62 1.25 9.24 2.25 13.83 3a136.86 136.86 0 0 0 13.65 1.57 131.54 131.54 0 0 0 13.46.17l227.08-8.65a101.52 101.52 0 0 1-12.17-.25ZM1083.2 1395.12a192.82 192.82 0 0 1-32.41-28.45 215.62 215.62 0 0 1-26.89-36.67 248.93 248.93 0 0 1-20.21-44 290.58 290.58 0 0 1-12.5-50.07c-.25-1.62-.49-3.26-.71-4.89s-.44-3.26-.65-4.88-.42-3.27-.61-4.89-.34-3.23-.49-4.85c-.19-1.93-.35-3.86-.5-5.78s-.28-3.83-.39-5.74-.2-3.78-.28-5.67-.14-3.75-.17-5.6c-.77-10.7-7.57-16.68-18.24-16l-202.74 22.58c-11.24 1.83-16.49 10.69-16.7 18.65v5.23c0 1.75.07 3.52.16 5.3s.15 3.55.26 5.34.24 3.6.4 5.4c.12 1.51.27 3 .41 4.52s.32 3 .5 4.55.39 3 .59 4.55l.66 4.56a231.52 231.52 0 0 0 12.31 46.52 207 207 0 0 0 20.83 40.84 194.87 194.87 0 0 0 63.08 60.33c9.32 4.66 20.33 5.1 26.05 4.94l199.66-8.92c8.87-.55 9.79-2.08 10.85-3.84a9.66 9.66 0 0 0-2.27-3.06ZM798.29 1095.8a32.38 32.38 0 0 0-5.75 3 44.49 44.49 0 0 0-5.71 4.41 60.88 60.88 0 0 0-5.63 5.86 83.24 83.24 0 0 0-7.72 10.88 127.44 127.44 0 0 0-7.19 13.9 168.69 168.69 0 0 0-6.32 16.65c-1.91 6-3.64 12.38-5.08 19.12-1.18 8.61 3.94 13.61 13.34 13.09 61.39-7.17 143.84-12.63 204.57-24 .15 0 14.6-3.13 18.06-17.69 1.16-7.19 2.58-14 4.18-20.37s3.42-12.25 5.37-17.67a139 139 0 0 1 6.22-14.7 88.68 88.68 0 0 1 6.79-11.47 61.3 61.3 0 0 1 5-6.12 40 40 0 0 1 5.13-4.57 26.12 26.12 0 0 1 5.18-3.06 19.68 19.68 0 0 1 5.2-1.5L804 1094.26a25.18 25.18 0 0 0-5.71 1.54Z" class="colore6336b svgShape"></path><path fill="none" d="M1208.93 1419.42a99.06 99.06 0 0 1-12.57-2 112.79 112.79 0 0 1-12.83-3.69 128.52 128.52 0 0 1-13.07-5.44 179.63 179.63 0 0 1-41-27.5 208.14 208.14 0 0 1-34.56-39.85 249.64 249.64 0 0 1-26-50.9 304.7 304.7 0 0 1-15.78-60q-.37-2.5-.72-5c-.24-1.67-.45-3.33-.68-5s-.42-3.3-.62-5-.35-3.31-.52-4.94a332 332 0 0 1-1.32-46.39 286.61 286.61 0 0 1 4.52-40.35 199.83 199.83 0 0 1 8.67-32.35 105.71 105.71 0 0 1 11.12-22.72 57.15 57.15 0 0 1 4.82-6.19 36.18 36.18 0 0 1 5-4.61 23.81 23.81 0 0 1 5-3.07 18 18 0 0 1 5-1.49l-341 48.56a27.2 27.2 0 0 0-5.83 1.54 33.44 33.44 0 0 0-5.85 2.95 45.53 45.53 0 0 0-5.83 4.36 64.21 64.21 0 0 0-5.74 5.79 97.44 97.44 0 0 0-13.59 21 165.69 165.69 0 0 0-11.14 29.58 216 216 0 0 0-6.75 36.66 237.16 237.16 0 0 0-.34 41.9c.11 1.48.25 3 .39 4.45s.33 3 .5 4.46.37 3 .57 4.49.43 3 .66 4.48a218 218 0 0 0 15.51 53.83 196.71 196.71 0 0 0 27.58 45.56 192.75 192.75 0 0 0 37.86 35.58 201.92 201.92 0 0 0 46 24.45q7.44 2.79 14.82 4.8a144.3 144.3 0 0 0 14.66 3.23 138.08 138.08 0 0 0 14.46 1.68 133.37 133.37 0 0 0 14.27.2l336.75-12.84a90.67 90.67 0 0 1-12.42-.22Z"></path><path fill="#8d8d8d" d="M1602.65 704.22q-6-17.43-12.35-33.38t-13.3-30.32q-6.87-14.26-13.83-26.12a221.59 221.59 0 0 0-14.08-21.35 129.4 129.4 0 0 0-14.21-16.15 65.21 65.21 0 0 0-14.16-10.45c-10.85-5.73-20.89-5.65-29.94.13-9.29 5.95-17.55 17.94-24.59 35.82-7.21 18.34-13.16 42.87-17.64 73.45-4.58 31.26-7.62 68.77-8.92 112.22-1.82 60.81-5.5 118.64-11 172.84-5.69 55.94-13.33 108.26-22.91 156.06-9.92 49.58-22 94.47-36 133.57-14.68 40.7-31.64 75.24-50.81 102.19a199.92 199.92 0 0 1-31.91 35.8c-11.37 9.81-23.25 17.14-35.54 21.85a92.55 92.55 0 0 1-38.87 6.13c-13.61-.79-27.57-4.56-41.74-11.46a178 178 0 0 1-40.55-27.17 204.63 204.63 0 0 1-34.08-39.31 248 248 0 0 1-25.68-50.15 299 299 0 0 1-15.51-59 293.774 293.774 0 0 1-1.43-9.81c-.21-1.63-.39-3.25-.57-4.87s-.37-3.21-.52-4.83a324.84 324.84 0 0 1-1.32-45.37 282.14 282.14 0 0 1 4.37-39.51 200.5 200.5 0 0 1 8.44-31.66 102.34 102.34 0 0 1 10.86-22.23 48.5 48.5 0 0 1 7.85-9.26 27.34 27.34 0 0 1 8.11-5.21 20.09 20.09 0 0 1 8.25-1.48 22.48 22.48 0 0 1 8.22 1.95 21 21 0 0 0-8.44-3.91 16.74 16.74 0 0 0-8.58.58 24.72 24.72 0 0 0-8.51 5.07 49.38 49.38 0 0 0-8.25 9.57 105.71 105.71 0 0 0-11.12 22.72 199.83 199.83 0 0 0-8.67 32.35 286.61 286.61 0 0 0-4.52 40.35 332 332 0 0 0 1.32 46.39c.17 1.63.34 3.28.52 4.94s.41 3.3.62 5 .44 3.32.68 5 .47 3.31.72 5a304.7 304.7 0 0 0 15.78 60 249.64 249.64 0 0 0 26 50.9 208.14 208.14 0 0 0 34.56 39.85 179.63 179.63 0 0 0 41 27.5c14.32 6.88 28.38 10.63 42.12 11.38a93.78 93.78 0 0 0 39.18-6.29c12.39-4.78 24.34-12.19 35.8-22.09 11.21-9.68 21.94-21.75 32.13-36.09 19.21-27.12 36.2-61.82 50.91-102.68 14.12-39.25 26.17-84.29 36.1-134 9.57-47.92 17.22-100.34 22.91-156.41 5.51-54.31 9.17-112.23 11-173.12 1.29-43.22 4.29-80.5 8.83-111.61 4.44-30.41 10.32-54.82 17.48-73.08 7-17.83 15.16-29.76 24.37-35.71 9-5.8 18.94-5.92 29.71-.25 9.36 4.91 19 14.18 28.51 27 9.34 12.53 18.65 28.48 27.6 47.11a586 586 0 0 1 25.28 62.33c7.86 22.76 15.19 47.57 21.74 73.91q-4.8-19.77-10.18-38.4t-11.24-36.23Z" class="color8d8d8d svgShape"></path></g><path fill="#fd3873" d="M3940.92 1209.91h-260a31.74 31.74 0 0 0-31.74 31.74v260a31.74 31.74 0 0 0 31.74 31.74H3890a17.42 17.42 0 0 1 11.71 4.53l41.87 38.06a17.41 17.41 0 0 0 29.12-12.88v-321.45a31.74 31.74 0 0 0-31.78-31.74Z" class="colorfd3873 svgShape"></path><path fill="#a8d0fe" d="m3867 1426.38.13-.14-.12.07a.2.2 0 0 0-.01.07Z" class="colora8d0fe svgShape"></path><path fill="#ffffff" d="m3886.85 1456.02 9.63-48.16-29.4 18.38 19.77 29.78zM3892.23 1408l-201.37-105.32-.32-.18-1.13-.58 175.89 120.54a4 4 0 0 1 1.66 3.85l.12-.07 29.4-18.38-.17-.08a4 4 0 0 1-4.08.22Z" class="colorfff svgShape"></path><path fill="#4c65ba" d="m3892.23 1408-201.37-105.32-.32-.18-1.13-.58 175.89 120.54a4 4 0 0 1 1.66 3.85l.12-.07 19.77 29.78 9.63-48.16-.17-.08a4 4 0 0 1-4.08.22Z" opacity=".18" class="color4c65ba svgShape"></path><path fill="#ffffff" d="m3865.3 1422.46-175.89-120.54 87.13 167a28.63 28.63 0 0 0 45.68 5.65l31.58-33.19 13.15-15a.2.2 0 0 1 0-.07 4 4 0 0 0-1.65-3.85ZM3932.54 1351 3691 1302.25c-1.17-.24-.84 0-.48.25l.32.18L3892.23 1408a4 4 0 0 0 4.08-.22c.1-.07.21-.1.3-.17l41.44-32.4a13.75 13.75 0 0 0-5.51-24.21Z" class="colorfff svgShape"></path><path fill="#ffffff" d="m3867.08 1426.24-.13.14-13.15 15.01h-.01l33.06 14.63-19.77-29.78z" class="colorfff svgShape"></path><path fill="#4c65ba" d="m3867.08 1426.24-.13.14-13.15 15.01h-.01l33.06 14.63-19.77-29.78z" opacity=".29" class="color4c65ba svgShape"></path></g></svg></g></svg>