<svg id="SvgjsSvg5041" width="550" height="550" xmlns="http://www.w3.org/2000/svg" version="1.1"
    xmlns:xlink="http://www.w3.org/1999/xlink" xmlns:svgjs="http://svgjs.com/svgjs">
    <defs id="SvgjsDefs5042"></defs>
    <g id="SvgjsG5043">
        <svg xmlns="http://www.w3.org/2000/svg" enable-background="new 0 0 1199.829 1200"
            viewBox="0 0 1199.829 1200" width="550" height="550">
            <path fill="#fce5eb"
                d="M963.582 463.75c-3.337 26.242-25.492 45.734-38.161 67.649-15.113 26.142-17.372 59.952-8.931 88.717 1.626 5.542 11.083 4.788 10.491-1.42-1.472-15.434-3.81-30.673-2.222-46.219 1.518-14.854 6.825-28.375 14.777-40.914 13.792-21.748 32.361-40.988 34.876-67.813.657-7.018-9.971-6.76-10.83 0z"
                class="colorfce5eb svgShape"></path>
            <path fill="#5f7ab3"
                d="M582.665 273.239s23.102 10.501 44.104 31.503 61.528 95.529 75.606 100.808c8.401 3.15 73.504-29.402 73.506-29.402.352-.176 35.717 33.376 35.703 36.753-.028 6.555-70.338 40.883-83.312 42.704-6.66.935-13.418.782-20.137 1.08-9.277.411-18.559 1.747-27.86 1.302-3.579-.171-6.213-.987-9.492-2.132-3.104-1.084-6.451-1.046-9.496-2.353-2.559-1.098-4.74-2.905-6.845-4.728-8.915-7.718-16.965-16.383-25.915-24.043-4.865-4.164-10.208-7.814-14.527-12.542-3.584-3.924-6.372-8.493-9.491-12.797-5.072-6.998-10.987-13.046-18.346-17.633-1.01-.63-5.625-2.205-5.599-3.52.021-.991 2.101-105 2.101-105z"
                class="color5f7ab3 svgShape"></path>
            <path fill="#1a1a1a"
                d="M799.63 410.895c3.071 1.796 6.637 3.001 10.582 2.822 7.692-.35-1.033-22.961-1.033-22.961s-16.992 15.787-9.549 20.139z"
                class="color1a1a1a svgShape"></path>
            <path fill="#f49d7b"
                d="M799.939 411.095c9.314-7.442 28.144-19.895 34.319-29.687 1.349-2.139 2.572-4.704 1.808-7.114-.439-1.383-1.488-2.516-1.892-3.91-.981-3.385 2.047-7.293.294-10.351-.864-1.507-2.693-2.305-3.433-3.877-1.86-3.95 4.478-8.35 2.585-12.284-.694-1.442-2.362-2.214-3.961-2.275-1.599-.062-3.157.464-4.659 1.015-10.587 3.882-20.52 9.351-30.179 15.171-4.66 2.808-9.028 6.042-13.233 9.494-6.627 5.44-4.491 10.015-1.843 17.245 6.077 16.592 20.194 26.573 20.194 26.573z"
                class="colorf49d7b svgShape"></path>
            <path fill="#de835c"
                d="M831.136 381.588c-5.351.45-10.666 1.474-15.843 2.893-2.802.768-6.32 2.302-9.183.88-3.316-1.647-2.555-5.662-1.23-8.334.657-1.325-1.371-2.312-2.056-1.01-2.49 4.734-1.872 11.094 4.271 12.247 3.42.641 6.893-.845 10.135-1.69 4.645-1.211 9.347-1.944 14.108-2.504 1.584-.187 1.404-2.617-.202-2.482zM828.556 368.366c-6.232-.216-12.248 1.393-17.649 4.486-1.935 1.108-.53 4.278 1.472 3.187 4.958-2.701 10.193-3.979 15.829-4.076 2.271-.039 2.714-3.515.348-3.597zM826.436 354.928c-2.77.271-5.294 1.955-7.87 2.947a74.998 74.998 0 0 1-9.463 2.936c-1.916.459-1.451 3.392.531 3.046 3.378-.589 6.66-1.379 9.894-2.529 2.885-1.025 6.13-2.003 8.177-4.371.803-.927-.253-2.128-1.269-2.029z"
                class="colorde835c svgShape"></path>
            <path fill="#4a4859"
                d="M816.524 368.596c-.46-1.932-2.029-4.51-4.06-4.125-.211-7.471-.568-14.625-.843-14.96-.573-.696-40.205-1.328-41.658.452-1.453 1.78-.469 31.325-.469 31.325s42.108 1.512 42.865.305c.189-.301.273-2.406.284-5.405.111-.008.224-.025.342-.065 3.09-1.031 4.244-4.566 3.539-7.527z"
                class="color4a4859 svgShape"></path>
            <path fill="#f49d7b"
                d="M810.687 360.697c2.045.019 3.993-.805 5.871-1.615l5.334-2.3c3.391-1.462 7.086-3.219 8.528-6.618.631-1.488.684-3.376-.404-4.572-1.373-1.51-3.778-1.259-5.771-.823-5.552 1.214-20.559 3.524-18.491 12.513.505 2.201 2.807 3.395 4.933 3.415z"
                class="colorf49d7b svgShape"></path>
            <path fill="#31303f"
                d="M788.279 365.572c-1.188-1.704-4.165-3.067-6.378-2.497-3.472-.607-7.784.243-9.944 3.272-2.228 3.124-.671 7.32 1.75 9.828.518.537 1.333-.127.895-.737-1.843-2.569-3.799-6.003-1.215-8.846 1.711-1.883 4.376-2.605 6.897-2.541-.056.063-.117.116-.169.185a1.631 1.631 0 0 0-.156.255c-.047.034-.095.061-.14.101-5.146 4.622 2.027 16.013 7.094 10.022 2.042-2.412 3.342-6.209 1.366-9.042zM816.659 369.644a6.426 6.426 0 0 0-.139-.949c-.013-.063-.028-.125-.042-.187l-.014-.057a7.105 7.105 0 0 0-.841-2.081l-.015-.028c-.601-1.072-1.643-2.103-2.791-2.283.011-.233-.089-.461-.354-.526-3.633-.887-8.748-.927-10.721 2.899-1.794 3.48-.564 7.826 3.112 9.398.744.318 1.147-.812.443-1.158-3.132-1.542-4.165-5.581-1.965-8.42 1.422-1.836 4.053-2.135 6.432-1.951-2.558 2.222-2.935 6.221-1.845 9.309.515 1.459 1.728 2.758 3.362 2.856.511.031.992-.057 1.432-.224.58.297 1.291.301 1.847-.223 1.594-1.501 2.314-4.017 2.099-6.375z"
                class="color31303f svgShape"></path>
            <path fill="#31303f"
                d="m771.68 349.668.553 31.729-12.029-.047s-1.679-28.972-.288-30.118c1.392-1.145 11.764-1.564 11.764-1.564z"
                class="color31303f svgShape"></path>
            <path fill="#4a4859"
                d="M604.266 196.688s1.29 23.02-15.705 27.543c-15.464 4.115-25.867-10.331-25.289-21.715.365-7.2 1.409-21.197 17-24.526 14.356-3.066 21.959 6.124 23.994 18.698z"
                class="color4a4859 svgShape"></path>
            <path fill="#847795"
                d="M960.696 1117.638c.013-8.857-35.703-10.632-369.653-7.345-178.118 1.753-271.109-.577-268.936 7.345 1.37 4.995 95.638 6.17 273.764 6.17s364.817-.528 364.825-6.17z"
                class="color847795 svgShape"></path>
            <path fill="#f49d7b"
                d="M572.034 1032.359c8.386-1.948 9.843-3.515 18.281-5.279 9.891-2.068 19.644-5.606 29.627-7.428-.286 8.349-1.596 16.79-.715 25.129 1.069 10.117 9.04 19.183 16.028 25.606 8.313 7.641 18.781 14.204 29.31 18.542 16.233 6.684 29.602 9.549 33.422 18.143 3.657 8.232.955 9.549-1.91 10.504-2.865.955-107.843 2.876-118.347-2.854-8.547-4.66-10.435-13.679-9.11-33.544.582-8.719 3.99-11.773 3.414-48.819z"
                class="colorf49d7b svgShape"></path>
            <path fill="#842a2e"
                d="M563.534 1106.174c1.212-7.471.653-16.538 5.087-24.996 10.894 4.994 16.282 8.616 27.509 2.827 6.406-3.303 9.495-9.301 14.195-14.411 3.591-3.904 7.685-4.511 12.142-4.394a20.035 20.035 0 0 1 12.68 4.951c9.464 8.313 21.064 15.335 29.419 18.776 16.233 6.684 29.602 9.549 33.422 18.143 1.423 3.208 1.881 5.367 1.738 6.866-.22 2.34-1.9 3.056-3.648 3.638-2.865.955-117.875 5.729-128.379 0-3.449-1.88-5.015-6.11-4.165-11.4z"
                class="color842a2e svgShape"></path>
            <path fill="#f49d7b"
                d="M373.374 1116.468c.04.12.08.241.13.361.181.472.411.933.702 1.365.1.161.211.321.341.482 2.147 2.689 73.957 1.605 76.816-2.217.241-.321-6.853-22.876-7.023-23.077-7.034-8.207-8.298-23.86-8.027-34.114.301-11.298 1.615-17.88 3.843-28.956-15.09-1.184-30.181-2.358-45.271-3.542 1.345.1-.311 23.197-.773 25.284a117.581 117.581 0 0 1-8.809 25.405c-1.977 4.104-4.254 7.635-6.241 11.318-1.716 3.171-3.221 6.462-4.134 10.344-.582 2.478-1.585 6.151-1.997 9.803-.319 2.698-.299 5.387.443 7.544z"
                class="colorf49d7b svgShape"></path>
            <path fill="#842a2e"
                d="M373.374 1116.468c.04.12.08.241.13.361.181.472.411.933.702 1.365.1.161.211.321.341.482 1.725 2.158 10.297 1.519 12.656 1.658 8.686.514 15.388.707 24.087.779 8.758.073 17.53.029 26.279-.399 3.14-.153 6.295-.325 9.413-.739 4.177-.555 7.041-2.143 6.965-7.109-.039-2.521-.958-4.94-1.973-7.248-1.074-2.443-5.098-10.712-7.126-12.437-1.157-.984-12.725-20.327-25.978-22.392-23.742-3.699-36.555 12.258-39.81 17.987-1.716 3.171-3.221 6.462-4.134 10.344-.582 2.478-1.585 6.151-1.997 9.803-.097 2.529-.327 5.238.445 7.545z"
                class="color842a2e svgShape"></path>
            <path fill="#6c4e4e"
                d="M620.678 1034.981s-.598.305-1.701.851c-6.196 3.087-28.195 13.914-47.327 21.8-8.443 3.486-16.329 6.395-22.052 7.813-4.872 1.218-8.18 1.355-8.936-.157-.914-1.817-1.89-17.085-3.224-41.258-3.822-68.823-10.595-209.912-27.239-318.984a885.18 885.18 0 0 0-.903-5.828l-.662 4.421c-6.364 43.001-11.939 88.102-20.435 145.447-12.801 86.506-26.735 172.823-31.188 210.647-.788 6.71-6.616 7.225-13.326 6.489a285.752 285.752 0 0 1-7.34-.892c-13.514-1.817-30.851-4.946-43.452-8.317-9.755-2.604-16.686-5.366-16.78-7.781-.336-7.76 36.091-529.117 36.091-529.117l178.052-3.255s23.648 173.18 28.667 254.446c5.021 81.275 1.755 263.675 1.755 263.675z"
                class="color6c4e4e svgShape"></path>
            <path fill="#4a3333"
                d="M543.819 578.886c-2.655 4.654-5.644 9.074-9.116 13.162-2.119 2.495-4.585 4.689-6.912 6.989l3.914-27.627a2.006 2.006 0 1 0-3.973-.563l-19.157 131.952a2.006 2.006 0 1 0 3.973.563l14.45-98.727c8.429-5.222 15.084-15.623 19.744-24.039 1.057-1.91-1.843-3.604-2.923-1.71zM427.443 593.865c11.342-8.223 19.157-19.412 26.78-30.978 1.265-1.919 4.365-.135 3.1 1.812-7.764 11.95-15.881 24.406-27.988 32.401-2.042 1.348-3.81-1.845-1.892-3.235z"
                class="color4a3333 svgShape"></path>
            <path fill="#4a3333"
                d="M522.236 656.558a1941.683 1941.683 0 0 1 24.515 133.834 1843.46 1843.46 0 0 1 5.123 37.389c.157 1.244-1.793 1.229-1.952 0-5.792-44.745-12.967-89.299-21.73-133.56a2110.685 2110.685 0 0 0-7.702-37.181c-.246-1.136 1.496-1.622 1.746-.482zM551.806 849.823c-.079-1.174 1.747-1.168 1.826 0a2188.655 2188.655 0 0 1 5.028 141.844c.039 13.449-.06 26.897-.32 40.344-.023 1.184-1.857 1.188-1.842 0 .578-47.322-.051-94.638-2.355-141.912a2201.929 2201.929 0 0 0-2.337-40.276z"
                class="color4a3333 svgShape"></path>
            <path fill="#3a1714"
                d="M414.533 1088.641c7.899.692 15.834 1.422 23.378 4.024 4.377 1.509 10.232 3.154 12.305 7.709 1.062 2.333-2.396 4.376-3.465 2.026-1.906-4.19-9.311-5.82-13.362-6.941-6.151-1.702-12.52-2.249-18.854-2.804-2.556-.224-2.579-4.239-.002-4.014zM638.668 1092.106c12.828-.329 25.64-3.983 38.294-.275 2.473.725 1.421 4.599-1.067 3.87-12.241-3.587-24.81.1-37.227.418-2.584.066-2.582-3.947 0-4.013z"
                class="color3a1714 svgShape"></path>
            <path fill="#31303f"
                d="M744.172 990.589a6.23 6.23 0 0 0 1.556 1.693l5.829 124.034c3.166-.101 6.332-.181 9.498-.228.008-23.809-1.101-69.569-2.79-125.335.8-.174 1.522-.759 1.636-1.771.526-4.679.977-9.365 1.435-14.052.337-3.439 1.246-7.379.85-10.835-.355-3.097-2.265-5.479-4.928-5.687-1.995-62.475-4.526-133.622-6.957-199.321.56-.405 1.053-1.003 1.452-1.885 2.115-4.671 2.443-11.177 2.907-16.249.464-5.065 1.496-11.702-.174-16.643-.96-2.842-3.234-3.786-5.655-4.664-3.784-100.68-6.98-179.999-6.98-179.999L724.616 543l8.395 178.636c-1.579.361-2.984.868-4.032 3.104-1.799 3.836-1.563 8.607-1.023 12.694a.398.398 0 0 0 .005.034c.127 4.301.833 8.652 2.179 12.761.357 1.721.731 3.432 1.133 5.116.631 2.644 1.54 5.109 3.639 6.725l9.186 195.463c-1.217.375-1.583 1.792-1.045 2.756-1.748.707-3.268 1.734-3.823 3.378-.616 1.826.419 3.555 1.02 5.249.942 2.658 1.748 5.338 2.235 8.113.707 4.059-.58 9.919 1.687 13.56z"
                class="color31303f svgShape"></path>
            <path fill="#5f7ab3"
                d="M606.828 287.932c-2.565-3.107-7.56-5.602-10.193-7.365-5.061-3.389-10.257-6.575-15.514-9.65-5.845-3.419-11.761-6.742-17.783-9.84l-9.048-.186s.187 31.605-3.127 71.154c-3.17 37.841-3.665 42.17-4.725 79.281-.329 11.501-.81 34.738 0 46.204.989 13.99 1.612 18.72 4.2 32.553 1.738 9.287 3.01 16.879 4.2 26.252 1.275 10.036 4.6 15.093 4.2 25.202-.18 4.545-.131 10.921 2.625 14.176 1.297 1.531 36.093-11.489 35.703-14.701-1.427-11.739-6.128-26.215-8.4-37.803-4.296-21.909-4.019-38.607-4.201-60.905-.088-10.782 1.738-27.674 3.675-38.328 2.1-11.551 4.664-20.917 8.401-31.503 9.401-26.634 13.566-52.844 11.585-81.019-.087-1.248-.691-2.423-1.598-3.522z"
                class="color5f7ab3 svgShape"></path>
            <path fill="#464c7b"
                d="M556.991 328.425c5.038 2.117 9.592 5.234 13.661 8.872.594-13.494-1.21-27.106-3.262-40.406-2.177-14.109-5.659-27.993-12.292-40.711-.965-1.849 2.259-3.563 3.263-1.714 6.964 12.837 10.611 26.804 12.948 41.145 2.506 15.38 4.491 31.11 3.226 46.7-.124 1.524-2.37 2.302-3.43 1.224-4.709-4.794-9.955-8.285-15.861-11.439-2.309-1.232-.674-4.688 1.747-3.671z"
                class="color464c7b svgShape"></path>
            <path fill="#812a2e"
                d="M593.134 190.86s25.176-10.667 19.265-37.983c-6.318-29.195-39.813-15.15-39.813-15.15 4.078-2.383 8.412-13.628-3.884-13.646-13.543-.02-38.015 20.524-38.015 20.524s-.147-11.252-7.351-9.451c-4.2 1.05 0 15.751 0 15.751s-5.993 3.585-10.501 12.601c-5.25 10.501-3.2 59.003 3.15 64.055 10.49 8.346 51.045-15.669 51.045-15.669l26.104-21.032z"
                class="color812a2e svgShape"></path>
            <path fill="#e7926b"
                d="M500.392 245.169c5.706 6.975 6.451 57.618 10.768 62.9 5.995 7.348 39.573 24.899 39.573 24.899l3.562-38.365.287-20.092.219-15.57-2.837-.497-4.646-10.806-5.396-12.575-8.147-18.969-7.587-3.069-7.735-8.412c.001.002-2.085 28.799-18.061 40.556z"
                class="colore7926b svgShape"></path>
            <path fill="#812a2e"
                d="M525.358 160.565a1.67 1.67 0 0 1-1.614-1.38c-.006-.035-.774-4.054-3.806-5.796-1.912-1.097-4.416-1.099-7.444-.008-2.111.762-3.959 1.877-5.491 3.313a1.67 1.67 0 0 1-2.284-2.436c1.866-1.748 4.1-3.101 6.641-4.017 4.009-1.449 7.464-1.356 10.271.27 4.379 2.538 5.362 7.87 5.403 8.095a1.67 1.67 0 0 1-1.676 1.959z"
                class="color812a2e svgShape"></path>
            <path fill="#e7926b"
                d="M597.465 187.257c-2.05 12.197-9.753 53.855-20.622 62.371-6.747 5.286-21.951 3.156-28.95.953-21.55-6.784-33.287-17.201-29.528-40.648 0 0-14.001-8.653-4.48-23.933 7.548-12.114 14.66.13 14.66.13s5.645 4.338 11.931-10.062c11.441 3.925 35.324-1.864 49.392-5.82 8.741-2.457 7.942 14.956 7.597 17.009z"
                class="colore7926b svgShape"></path>
            <path fill="#1a1a1a"
                d="M557.323 195.511c-.485-.706-1.123-1.162-1.916-1.219a3.215 3.215 0 0 0-.264-.05c-.032-.009-.06-.024-.096-.027-.033-.003-.059.006-.092.004-2.729-.241-4.152 3.285-3.249 5.572.071.523.247 1.016.631 1.382.379.362.884.579 1.41.653.041.029.076.062.129.083 1.206.475 2.21-.076 2.889-1.054 1.424-1.273 1.698-3.686.558-5.344zM592.164 201.205c-.829-1.681-2.913-2.326-4.534-1.362a2.594 2.594 0 0 0-.4.3 2.242 2.242 0 0 0-.806 1.413 1.977 1.977 0 0 0-.027.201c-.001.021-.008.04-.008.061-.034 1.026-.046 2.071.398 3.024.855 1.838 3.216 1.999 4.642.755 1.239-1.081 1.442-2.957.735-4.392z"
                class="color1a1a1a svgShape"></path>
            <path fill="#d25c48"
                d="M573.563 218.947c.032-.935-.737-1.774-1.679-1.797l-2.782-.068c-.939-.023-1.764.735-1.797 1.679-.032.935.737 1.774 1.679 1.797l2.782.068c.938.024 1.764-.734 1.797-1.679z"
                class="colord25c48 svgShape"></path>
            <path fill="#812a2e"
                d="M563.344 183.75c-2.323.71-4.735 1.05-7.021 1.887-2.32.85-4.527 1.988-6.811 2.926-2.06.846-.922 4.131 1.156 3.278 2.283-.937 4.489-2.085 6.811-2.926 2.289-.829 4.698-1.177 7.021-1.887 2.139-.654.984-3.932-1.156-3.278zM588.1 190.254a1.67 1.67 0 0 1 2.644-1.901c.164.145 4.034 3.586 5.957 8.627a1.668 1.668 0 0 1-.96 2.157c-.861.331-1.847-.075-2.158-.96-1.652-4.266-5.02-7.294-5.053-7.324a1.672 1.672 0 0 1-.43-.599z"
                class="color812a2e svgShape"></path>
            <path fill="#ffffff"
                d="m445.104 443.353 46.204 79.807c6.3 3.15 74.98 5.155 81.907-10.501 12.749-28.814-26.428-141.55-22.553-177.995 1.323-12.426 2.603-25.139 3.141-35.197-3.062 5.849-8.536 10.134-16.516 8.025-16.003-4.239-34.188-38.334-34.188-38.334l-57.995 174.195z"
                class="colorfff svgShape"></path>
            <path fill="#1a1a1a"
                d="m554.582 274.512.219-15.57-2.837-.497-4.646-10.806-5.396-12.575-18.009-11.498c0 .001-2.11 39.707 30.669 50.946z"
                class="color1a1a1a svgShape"></path>
            <path fill="#812a2e"
                d="M545.697 174.133s-1.339 9.83-9.569 12.059c0 0-.895 23.028 8.177 32.314 9.073 9.285 16.157 4.911 25.048 5.42 8.503.487 13.594 2.893 16.151 4.952a4.269 4.269 0 0 1 1.58 3.558c-.397 7.607-3.815 35.539-32.675 31.298-16.366-2.405-27.378-15.189-30.643-33.975-1.493-8.587-.902-17.405 1.309-25.837l1.55-5.91c.847-3.23.783-9.622 2.436-18.534 1.721-9.281 11.239-11.512 11.239-11.512l5.397 6.167z"
                class="color812a2e svgShape"></path>
            <path fill="#ffffff"
                d="M575.145 232.802s-3.682 8.154-9.426 7.873c-7.081-.346-10.883-11.672-10.883-11.672l20.309 3.799z"
                class="colorfff svgShape"></path>
            <path fill="#5f7ab3"
                d="M559.038 541.536a67.813 67.813 0 0 0-.048 2.501c2.252-2.745 9.081-2.109 11.074-5.126 5.667-8.581 5.983-7.941 8.401-17.851 5.151-21.112 3.129-56.366.947-77.857-2.073-20.423-5.746-40.465-12.682-59.82-3.478-9.705-7.628-19.126-11.626-28.622-1.304-3.099-1.558-30.126-2.891-33.217-2.266 23.901-4.908 59.439-5.775 89.782-.329 11.501-.81 34.738 0 46.204.989 13.99 1.612 18.72 4.2 32.553 1.738 9.287 3.01 16.879 4.2 26.252 1.275 10.035 4.6 15.092 4.2 25.201zM516.363 350.788c-1.628 12.381-1.113 24.918-2.468 37.32-1.145 10.564-3.665 20.918-5.555 31.376-8.254 45.721-4.295 92.659-.315 138.947-.966 6.731-62.375-2.489-100.724-19.521-.063-.43.388-5.303.347-5.733-.504-5.534.819-11.11 1.838-16.602a159.843 159.843 0 0 0-1.071-63.688c-5.387-24.372-16.612-47.705-17.547-72.96-.431-11.593 1.271-23.868 2.835-35.388 1.449-10.732 3.57-21.81 8.464-31.576.998-2.006 2.121-3.948 3.423-5.786 23.543-33.361 85.214-56.663 85.214-56.663s2.667-9.797 16.245-13.452c0 0 15.426 62.092 16.192 79.869.514 11.963-5.335 22.138-6.878 33.857z"
                class="color5f7ab3 svgShape"></path>
            <path fill="#464c7b"
                d="M491.775 257.964c-.418-2.587 3.508-3.738 3.983-1.105 2.4 13.305 2.613 26.921 2.974 40.403.319 11.946.019 23.813-1.608 35.629 7.245-3.6 15.375-5.156 22.43-9.241 2.151-1.245 4.051 2.015 1.948 3.32-8.174 5.074-18.003 6.381-26.031 11.712-1.694 1.125-3.374-.72-3.108-2.382 2.069-12.963 2.477-25.927 2.129-39.032-.348-13.118-.621-26.325-2.717-39.304z"
                class="color464c7b svgShape"></path>
            <path fill="#323756"
                d="M478.707 526.31s-71.197 4.098-71.128 2.711c.207-4.16 1.142-8.327 1.906-12.445a157.83 157.83 0 0 0 1.46-9.409l67.762 19.143z"
                class="color323756 svgShape"></path>
            <path fill="#fce5eb"
                d="M609.844 329.603c.213-2.048-3.219-2.518-3.61-.489-3.638 18.93-8.996 37.303-13.583 56.005-4.319 17.608-7.564 36.11-4.996 54.24.319 2.25 4.201 1.742 3.996-.541-1.728-19.272 1.228-37.793 5.993-56.449 4.453-17.427 10.329-34.8 12.2-52.766z"
                class="colorfce5eb svgShape"></path>
            <path fill="#e7926b"
                d="M498.133 460.679c1.05 0 23.102-5.25 28.352-7.351 5.25-2.1 9.451 5.25 18.902 5.25s11.551 2.1 8.401 7.351c-3.15 5.251-29.402 6.301-29.402 6.301l-26.253-11.551z"
                class="colore7926b svgShape"></path>
            <path fill="#31303f"
                d="m694.018 448.715-25.805.461-111.916 26.797 7.01 7.514s107.543-24.705 111.737-24.479c3.202.172 14.884 2.027 20.238 2.895-1.299-4.243-1.648-8.754-1.264-13.188z"
                class="color31303f svgShape"></path>
            <path fill="#5f7ab3"
                d="m492.883 458.579-8.401 68.256c-21.936-1.575-43.862-4.442-65.525-8.17-14.575-2.499-27.754-6.279-41.51-11.593-10.543-4.064-22.125-5.229-32.238-10.459-8.989-4.652-13.756-10.858-15.153-21.159-1.701-12.601-1.733-26.084 4.442-37.194 2.037-3.675 5.555-7.182 6.92-11.12 1.712-4.967 1.218-10.144 3.791-15.016 2.447-4.652 6.437-8.317 9.178-12.811 2.783-4.547 4.19-9.787 6.227-14.722 2.993-7.225 7.382-13.609 11.824-19.994 3.381-4.851 5.954-11.131 8.474-16.507 2.531-5.429 6.269-10.196 8.936-15.678 2.52-5.188 5.04-10.375 7.477-15.594 1.145-2.457 2.741-5.019 4.673-7.624.42-.567.851-1.124 1.292-1.691 10.732-13.599 29.759-27.88 40.554-33.33 13.336-6.71 25.937 63.646 25.937 63.646s-18.902 38.853-26.252 51.454c-7.351 12.601-13.651 29.402-18.902 37.803a346.302 346.302 0 0 1-10.501 15.751l78.757 15.752z"
                class="color5f7ab3 svgShape"></path>
            <path fill="#1a1a1a"
                d="M478.707 491.657s-3.675 35.178 5.776 35.178 14.701-45.154 14.701-45.154l-20.477 9.976z"
                class="color1a1a1a svgShape"></path>
            <path fill="#4a4859"
                d="M532.786 469.08s15.751-4.2 19.952-4.2c4.2 0 6.3 5.25 10.501 5.25 4.2 0 96.608-27.302 102.908-28.352 6.3-1.05 28.352 2.1 29.402 3.15 1.05 1.05 0 6.301 0 6.301s-25.202-2.1-29.402-1.05c-4.2 1.05-107.109 31.503-111.309 32.553-4.2 1.05-21.002-6.301-21.002-6.301l-1.05-7.351z"
                class="color4a4859 svgShape"></path>
            <path fill="#e7926b"
                d="M478.182 502.683a696.489 696.489 0 0 0 16.54 3.59c4.506.925 9.022 1.813 13.556 2.59 3.287.563 9.975 2.15 12.377-.902.491-.625.774-1.392 1.26-2.021 2.841-3.676 9.794-.273 12.936-3.695 1.127-1.227 1.42-3.058 2.58-4.254 1.513-1.561 3.96-1.574 6.134-1.594 2.172-.02 4.683-.342 5.843-2.178 1.658-2.626.305-4.424 3.853-4.892 3.539-.466 7.478.02 11.053.029 1.639.004 3.549-.126 4.476-1.478.803-1.172.461-2.843-.419-3.959s-2.181-1.803-3.446-2.451c-11.125-5.697-21.886-11.553-32.997-17.274-2.307-1.188-3.864-2.799-5.915-4.171-2.412-1.614-5.507-1.274-8.246-1.009-4.138.401-11.666.213-17.417-.026-4.405-.183-7.768-.395-7.768-.395s-13.875 2.611-14.4 44.09z"
                class="colore7926b svgShape"></path>
            <path fill="#de835c"
                d="M552.609 487.069c-9.599-2.495-19.059-5.305-28.404-8.634-2.334-.832-3.33 2.87-1.021 3.702 9.314 3.354 18.766 6.345 28.365 8.777 2.487.63 3.546-3.198 1.06-3.845zM541.183 466.111c-3.787-1.816-7.079-4.597-10.978-6.14-4.668-1.847-8.785-.185-13.696.183-2.32.174-1.329 1.121 1.05 1.05 5.171-.154 8.421.887 13.087 3.474 3.072 1.704 5.544 4.149 9.051 4.956 2.027.467 3.545-2.536 1.486-3.523z"
                class="colorde835c svgShape"></path>
            <path fill="#464c7b"
                d="M482.026 452.391c-20.401-3.645-40.724-7.464-61.004-11.56.01-.047.027-.089.034-.137 1.822-12.453 14.638-19.223 19.845-30.106 2.539-5.307 4.003-11.066 6.146-16.533 2.608-6.652 5.81-13.072 9.434-19.227 1.2-2.039-1.859-3.952-3.119-1.945-3.489 5.557-6.578 11.281-9.153 17.318-2.904 6.81-4.523 14.364-8.21 20.806-5.891 10.294-17.221 16.527-18.995 29a2072.035 2072.035 0 0 1-32.08-6.79c-2.307-.509-3.42 2.966-1.087 3.546 32.111 7.99 64.808 14.68 97.535 19.606 2.245.34 2.911-3.574.654-3.978zM451.258 366.875c-6.868-12.696-13.546-25.57-22.493-36.963-6.637-8.453-15.751-18.408-26.767-20.718.42-.567.851-1.124 1.292-1.691 10.133 2.489 18.639 10.973 25.128 18.755 9.986 11.981 17.452 25.895 24.572 39.693.504.998-1.207 1.89-1.732.924z"
                class="color464c7b svgShape"></path>
            <path fill="#31303f"
                d="M522.866 175.919s4.914-25.116 16.746-37.09c.285-.288-8.34-.011-13.651 7.351-9.881 13.696-11.208 29.44-11.208 29.44l8.113.299z"
                class="color31303f svgShape"></path>
            <path fill="#4a4859"
                d="M539.263 190.641s1.351 24.106-16.446 28.842c-16.194 4.31-27.087-10.819-26.483-22.74.382-7.54 1.475-22.197 17.802-25.684 15.034-3.21 22.997 6.414 25.127 19.582z"
                class="color4a4859 svgShape"></path>
            <path fill="#31303f"
                d="M512.526 172.387c5.294-.538 10.594 1.496 14.101 5.538 3.819 4.403 4.668 11.013 4.748 16.635.179 12.584-9.859 23.396-22.927 20.989-1.254-.231-1.107-2.164.192-1.999 11.404 1.443 20.25-6.978 20.4-18.262.063-4.728-.532-10.52-3.202-14.542-2.838-4.275-7.903-6.469-12.942-6.067-1.474.117-1.868-2.14-.37-2.292zM634.925 360.745c-.172-.807-1.087-1.327-1.877-1.194.001-.624-.263-1.231-.872-1.553-.891-.471-1.983-.22-2.514.659-.503.833-.937 1.747-.902 2.744.039 1.113.62 2.221 1.616 2.766 2.245 1.229 5.069-.974 4.549-3.422zM621.525 359.74c.306-.715.161-1.654-.405-2.174-.842-.773-1.905-.688-2.75 0-.983.8-1.388 2.339-.954 3.527.264.723.71 1.286 1.339 1.725.706.494 1.47.564 2.295.418.796-.141 1.457-1.08 1.421-1.867a1.988 1.988 0 0 0-.946-1.629zM673.497 296.866s6.3-27.302 9.451-29.402c3.15-2.1-4.2-3.15-4.2-3.15l-17.852 3.15-9.451 29.402h22.052zM646.959 225.112c-1.063-2.078-2.248-4.128-4.431-5.178-2.199-1.058-4.979-1.159-7.373-1.404a73.9 73.9 0 0 0-9.231-.364c-2.34.054-3.453.261-4.909 2.133-3.416 4.394-6.796 9.024-8.601 14.346-.755 2.227-1.291 4.756-.112 6.941 1.006 1.865 2.969 2.962 4.779 3.896.367.189.71.123.973-.057a.848.848 0 0 0 .71-.428c3.259-5.275 5.922-10.982 9.371-16.131 2.265-3.383 5.177-3.09 8.758-2.238 2.8.667 5.626.958 8.502.739.515-.039.823-.378.934-.768.544-.2.975-.813.63-1.487zM650.852 718.195l59.924-174.034-15.751-8.401s-26.092 77.433-58.946 175.799c-2.604.153-5.084.414-6.839 2.939-3.053 4.39-3.975 11.252-4.993 16.394-1.02 5.148-2.588 11.674-1.889 16.914.132.989.437 1.726.862 2.291-21.401 64.2-44.479 133.753-64.524 194.897-2.644-.581-5.188 1.209-6.43 4.165-1.386 3.298-1.646 7.459-2.316 10.957-.913 4.766-1.834 9.53-2.68 14.309-.183 1.033.348 1.824 1.074 2.233-26.308 80.692-45.059 140.18-43.383 140.85h8.401l46.703-135.637a6.321 6.321 0 0 0 2-1.214c3.255-2.929 3.705-9.099 5.572-12.9 1.277-2.599 2.836-5.009 4.52-7.357 1.074-1.497 2.58-2.9 2.511-4.886-.062-1.788-1.239-3.252-2.73-4.466.801-.794.857-2.302-.215-3.032l65.569-190.427c2.505-.978 4.101-3.145 5.48-5.571a180.943 180.943 0 0 0 2.582-4.721c2.497-3.662 4.443-7.754 5.813-11.966l.014-.032c1.708-3.879 3.32-8.523 2.687-12.845-.373-2.521-1.589-3.436-3.016-4.259zM804.842 720.501l-47.798-172.327 16.063-7.091s20.705 76.636 46.721 173.97c2.556.319 4.982.735 6.549 3.294 2.724 4.448 3.189 11.149 3.861 16.19.672 5.048 1.796 11.466.769 16.489-.194.948-.542 1.641-.998 2.16 16.939 63.524 35.183 132.338 50.983 192.815 2.643-.388 5.034 1.511 6.067 4.453 1.153 3.282 1.14 7.326 1.574 10.754.592 4.672 1.191 9.341 1.716 14.021.113 1.012-.461 1.742-1.202 2.089 20.708 79.803 35.339 138.594 33.645 139.132l-8.277-.553-37.255-134.306a6.234 6.234 0 0 1-1.892-1.306c-3.018-3.048-3.063-9.048-4.656-12.847-1.09-2.598-2.471-5.033-3.978-7.416-.961-1.519-2.354-2.975-2.158-4.892.177-1.726 1.431-3.065 2.979-4.142-.738-.821-.695-2.283.408-2.919l-52.301-188.56c-2.405-1.111-3.838-3.313-5.04-5.751a173.774 173.774 0 0 1-2.239-4.738c-2.224-3.708-3.877-7.794-4.954-11.96l-.012-.032c-1.433-3.865-2.72-8.465-1.817-12.605.525-2.413 1.782-3.22 3.242-3.922z"
                class="color31303f svgShape"></path>
            <path fill="#31303f"
                d="M788.482 549.411c0 1.628-21.936 8.264-33.855 11.677-3.507 1.008-6.143 1.733-7.099 1.974-4.2 1.05-17.851 0-22.052-1.05-1.617-.399-7.12-3.444-13.389-7.162-10.039-5.943-22.073-13.599-23.364-14.89-2.1-2.1 8.401-14.701 8.401-14.701l12.076 5.775 4.2-4.2c1.05-1.05 44.629.525 47.779.525 2.804 0 6.952 5.208 7.351 6.301.053.136 7.351-1.05 7.351-1.05s7.351-1.05 8.401-1.05 4.2 15.751 4.2 17.851z"
                class="color31303f svgShape"></path>
            <path fill="#4a4859"
                d="M719.701 537.336c0 .871-4.337 13.305-7.613 17.515-10.039-5.943-22.073-13.599-23.364-14.89-2.1-2.1 8.401-14.701 8.401-14.701l12.076 5.775c-.001 0 10.5 5.25 10.5 6.301zM788.482 549.411c0 1.628-21.936 8.264-33.855 11.677-2.352-5.114-8.537-21.789-7.624-22.703.651-.651 16.728-3.738 28.804-5.985.053.136.074.21.074.21s7.351-1.05 8.401-1.05 4.2 15.751 4.2 17.851z"
                class="color4a4859 svgShape"></path>
            <path fill="#31303f"
                d="M702.918 519.903c-.318.038-.667.069-.932-.11-.266-.18-.367-.519-.436-.833a12.225 12.225 0 0 1-.267-3.364c-3.203.172-6.655-.905-8.53-3.507-1.875-2.602-1.491-6.828 1.276-8.451 2.469-1.448 5.63-.455 8.164.878 3.442-3.331 1.587-9.36 3.849-13.582.599-1.118 1.468-2.064 2.185-3.109 3.239-4.719 3.112-10.872 4.292-16.473.125-.595.32-1.258.859-1.538.403-.209.888-.141 1.336-.067l11.921 1.954c.687.113 1.458.28 1.821.873 1.125 1.839 1.727 4.438 2.674 6.444 1.208 2.561 2.555 5.067 4.233 7.354.795 1.083 1.673 2.136 2.154 3.391.73 1.906.456 4.032.146 6.05-.61 3.977-1.316 7.94-2.116 11.883-.346 1.704-.732 3.457-1.728 4.882-2.017 2.884-5.884 3.649-9.363 4.182-7.17 1.099-14.316 2.421-21.538 3.143z"
                class="color31303f svgShape"></path>
            <path fill="#4a4859"
                d="M1003.224 238.061c-2.1-4.2-130.211-5.25-135.461-4.2-5.25 1.05-47.254 40.953-48.304 44.104-1.008 3.003 8.537-.683 9.388-1.019-.724.536-7.34 5.272-8.338 6.269-1.05 1.05-1.05 8.401-1.05 8.401-8.401 1.05-11.551 10.501-11.551 10.501-1.05-1.05-5.25-3.15-5.25-3.15h-45.154s15.751-32.553 9.451-39.903c-1.365-1.596-6.216-2.846-12.958-3.822-24.267-3.528-73.149-3.528-73.149-3.528s-28.352-27.302-32.553-28.352c-4.2-1.05-19.952-1.05-22.052 0-2.1 1.05-10.501 19.952-10.501 23.102 0 3.15 16.801 14.701 18.902 15.751 2.1 1.05 19.952 4.2 19.952 4.2s0 2.1-3.15 8.401-12.601 13.651-14.701 16.801c-2.1 3.15-2.1 12.601-2.1 12.601s-10.501-1.05-13.651 0c-3.15 1.05-9.451 56.705-9.451 60.905 0 4.2 33.603 8.401 35.703 8.401 2.1 0 27.302 1.05 27.302 1.05l.305 1.239.745 2.961s-7.351-1.05-11.551 0c-3.948.987.462 13.137.998 14.565.031.084.053.137.053.137s-22.052 0-24.152 2.1c-2.1 2.1 0 19.952 1.05 22.052 1.05 2.1 63.005 0 63.005 0l1.05 14.701s-9.451 1.05-11.551 2.1c-2.1 1.05-1.05 26.252 1.05 29.402 2.1 3.15 14.701 1.05 14.701 1.05-2.1 6.301 6.301 9.451 6.301 9.451 2.1 10.501 14.701 17.851 15.751 17.851.095 0 .178.032.241.084.557.441-.084 2.573-.22 2.993-.01.053-.021.074-.021.074s-16.276-.525-20.477.525c-4.2 1.05-3.15 19.952-2.1 22.052 1.05 2.1 4.2 5.251 4.2 5.251s1.05 7.351 22.052 8.401c17.788.893 22.776-5.009 23.879-6.826.2-.326.273-.525.273-.525s8.401 0 10.501-2.1c2.1-2.1-1.05-25.202-2.1-26.252-1.05-1.05-14.701-1.05-14.701-1.05s-1.05-2.1 2.1-3.15c3.15-1.05 21.002-10.501 18.901-24.152-2.1-13.651-8.401-18.902-8.401-18.902v-6.301s15.751-2.1 16.801-3.15c1.05-1.05 0-14.701 1.05-17.852 1.05-3.15 13.651-2.1 17.851-3.15 4.2-1.05 0-22.052 0-23.102 0-1.05-7.351-1.05-9.451-1.05-.367 0-.063-.451.703-1.197 3.581-3.507 17.148-13.504 17.148-13.504s-3.675-7.876-.525-4.725c3.15 3.15 8.401 3.15 8.401 3.15s-1.05 5.25 1.05 8.401c2.1 3.15 48.304 13.651 50.404 13.651 2.1 0 2.1-17.851 2.1-17.851s.83.063 2.121.105c4.148.158 13.073.2 14.68-2.205 2.1-3.15 0-30.453 0-30.453l3.686-.924.515-.126s-1.05 9.451 0 13.651c1.05 4.2 14.701 22.052 18.901 25.202 4.2 3.15 68.255 3.15 72.456-2.1 4.2-5.25 7.351-99.758 6.3-114.459-1.05-14.701-3.15-18.902-3.15-18.902s17.853-9.453 15.753-13.654zm-342.853 56.18c-1.05-2.1 6.301-22.052 10.501-24.152.84-.42 1.964-.441 2.877-.546 1.481-.189 2.856-.84 4.347-.83 3.087.021 5.828 2.163 8.978 1.785 1.418-.168 2.709-.872 4.074-1.302a11.202 11.202 0 0 1 5.943-.231c1.89.441 3.665 1.386 5.597 1.586 4.116.42 8.233-2.562 12.212-1.418 1.932.557 3.497 2.027 5.429 2.562 1.554.431 3.192.231 4.788.032 1.323-.168 17.159-3.171 17.159-.588 0 0-6.3 27.302-8.401 27.302s-72.453-2.1-73.504-4.2z"
                class="color4a4859 svgShape"></path>
            <path fill="#31303f"
                d="M874.444 248.384c-.865-4.568-4.493-6.159-8.721-4.161-6.587 3.113-12.745 8.441-18.425 12.949-6.296 4.997-12.378 10.333-17.893 16.187-1.532 1.627.809 3.958 2.448 2.448 10.058-9.267 20.78-19.842 33.013-26.236.962-.965 2.118-1.343 3.468-1.135 1.818-.766 2.515-.198 2.092 1.705.543 1.304.054 3.749.061 5.125.018 3.759-.025 7.518-.109 11.276-.169 7.524 1.288 114.727 1.288 114.727.234 2.662 4.42 2.686 4.184 0 .001 0 .036-125.274-1.406-132.885zM819.521 292.103c-.04-1.182-1.797-1.184-1.838 0-.462 13.517-.132 27.098-.122 40.624-.059.001-.111-.013-.174-.002-2.198.4-3.861 2.49-3.678 4.74.135 1.661 1.898 4.341 3.842 3.878-.024 11.189-.074 22.381.013 33.569.01 1.336 2.065 1.338 2.075 0 .108-13.8.003-27.604.001-41.404-.003-13.785.351-27.628-.119-41.405z"
                class="color31303f svgShape"></path>
            <path fill="#31303f"
                d="M868.682 337.552a12.07 12.07 0 0 0-1.781-5.581c-.65-1.06-2.313-.097-1.672.977.139.233.25.471.369.708-.032-.004-.057-.016-.091-.017-1.118-.032-2.237-.079-3.356-.095-.693-.009-1.426-.042-2.066.271-1.462.715-1.908 2.661-1.813 4.142.095 1.477.682 3.098 2.219 3.568 1.765.539 3.816.353 5.62.013-.091.28-.18.56-.293.839-.426 1.05 1.38 1.822 1.844.778.522-1.175.825-2.395.957-3.621.112-.651.131-1.33.063-1.982zM808.962 371.362c-15.12-18.843-22.253-49.432-2.087-67.806 2.757-2.512-1.12-6.063-4.003-4.003-24.892 17.79-18.975 54.432-.74 73.445.974 1.016 2.39 1.479 3.722 1.538-7.96 2.763-16.568-2.774-21.411-8.907-4.781-6.055-7.031-13.746-6.378-21.417.097-1.137-1.609-1.089-1.747 0-1.111 8.769 1.917 17.679 7.786 24.245 5.648 6.319 15.568 11.689 23.902 7.429.783-.4.593-1.259.04-1.657 1.315-.5 1.981-1.54.916-2.867zM781.086 321.664c-3.058.036-6.115.11-9.172.207-2.372.075-4.927-.049-7.069 1.146-2.209 1.233-4.128 3.214-6.052 4.831-1.679 1.411-3.122 2.656-3.419 4.925-.319 2.444.065 5.073.179 7.529.143 3.081.318 6.16.525 9.237.424 6.319.907 12.657 1.691 18.943.16 1.285 2.183 1.336 2.059 0-.949-10.245-1.879-20.464-2.3-30.748-.111-2.713-.579-5.183 1.417-7.293 1.708-1.805 4.11-3.763 6.177-5.132 2.333-1.545 5.129-1.29 7.81-1.396 2.719-.107 5.436-.232 8.153-.388 1.188-.067 1.209-1.875.001-1.861z"
                class="color31303f svgShape"></path>
            <path fill="#31303f"
                d="M776.021 367.119c-1.191.255-2.331.607-3.554.698-1.101.083-2.188.046-3.169.634-1.804 1.081-1.816 3.875-1.748 5.882-11.464-.165-22.938-.093-34.408-.048-.126-.438-.404-.847-.896-1.153-.282-.175-.184-8.486-.228-9.44a438.56 438.56 0 0 1-.324-9.244c-.156-6.385-.706-13.167-.039-19.527.476-4.534 2.775-6.592 6.296-9.148 1.977-1.435 4.307-4.026 6.617-4.785 2.218-.729 5.39.192 7.653.398 3.21.293 6.422.555 9.639.766 1.99.13 2.495-3.244.478-3.529a416.382 416.382 0 0 0-12.044-1.51c-2.768-.309-5.252-.906-7.815.299-3.782 1.779-7.424 5.299-10.775 7.751-2.156 1.577-3.719 2.597-4.085 5.371-1.152 8.718-.29 18.224-.01 26.996.153 4.793.363 9.588.698 14.372.061.869.075 1.668.211 2.394-2.062.006-4.125.015-6.187.015-15.267 0-31.213-1.289-46.392.385-2.19.242-2.195 3.171 0 3.413 15.182 1.675 31.123.386 46.392.386 15.459 0 30.935.213 46.392-.033 1.374-.022 2.03-1.117 1.979-2.173.231-.214.408-.511.494-.903.196-.892.274-1.807.386-2.712.009-.07.088-.429.133-.729l.229-.003c1.946-.038 3.859-.302 5.638-1.119 2.181-1.002.572-4.161-1.561-3.704zM781.228 299.461c-6.614 1.911-11.128 9.827-11.429 16.362-.045.973 1.583 1.229 1.732.234.466-3.115 1.357-5.997 3.125-8.639 1.894-2.83 4.481-4.568 7.153-6.578.639-.48.306-1.635-.581-1.379zM981.855 251.196c-30.226 9.683-60.265 20.213-90.187 30.81-3.787-2.3-17.079-1.416-17.079-1.416l-.504 101.438c4.148.158 13.073.2 14.68-2.205 2.1-3.15 0-30.453 0-30.453l3.686-.924c.159-4.762 1.613-50.674.523-62.898 30.062-9.851 60.174-19.83 89.919-30.586 2.331-.843 1.383-4.541-1.038-3.766zM766.955 259.063c-1.365-1.596-6.216-2.846-12.958-3.822 5.786 5.177 3.224 13.578.651 20.33-3.003 7.865-6.794 15.384-11.246 22.524-.42.682.126 1.575.903 1.575 3.507.01 7.015.01 10.511-.021-4.61 3.665-8.264 8.957-9.388 14.754-.22 1.103 1.323 1.544 1.691.462 2.006-5.87 5.019-10.669 10.049-14.418.315-.231.452-.557.441-.882.263.032.546-.031.788-.231.158-.126.315-.252.483-.367h-1.376c0-.001 15.752-32.553 9.451-39.904zM661.802 307.076c-12.624-2.778-26.191-3.711-39.08-4.272-2.491-.108-2.407 3.591 0 3.823 12.856 1.241 25.707 3.227 38.56 4.284 2.19.18 2.66-3.364.52-3.835zM678.223 250.137c-4.655-.311-8.73-2.266-12.716.687-4.061 3.008-7.412 7.628-10.347 11.699-1.173 1.627 1.496 3.704 2.796 2.157 2.612-3.108 5.236-6.383 8.291-9.076 3.955-3.487 8.051-3.689 13.027-3.366 2.667.173 1.604-1.923-1.051-2.101zM660.371 250.137c-2.054-2.208-3.851-3.758-6.204-5.645l-7.189-5.765c-1.587-1.273-3.182-2.536-4.772-3.805 1.558-.175 3.377.129 4.931.182 3.365.114 6.744.321 10.111.298 1.302-.009 1.272-1.907 0-2.002-4.029-.301-8.095-.321-12.133-.456-1.779-.059-3.589-.352-5.126.21-2.476-1.973-4.442-3.099-6.92-5.069-.917-.729-4.076-1.804-3.15-1.05 2.355 1.917 6.054 5.331 8.411 7.245-.06.066-.121.127-.179.198-2.195 2.704-3.893 6.089-5.604 9.113a142.157 142.157 0 0 0-5.41 10.556c-.489 1.063 1.052 2.004 1.594.932 2.897-5.735 5.973-11.37 9.409-16.803.613-.969 1.2-1.887 2.003-2.524 1.938 1.573 3.87 3.151 5.812 4.719l7.167 5.786c2.289 1.848 5.765 4.482 8.3 5.98.878.519-.375-1.374-1.051-2.1z"
                class="color31303f svgShape"></path>
            <path fill="#31303f"
                d="M719.596 352.373c-.006-.748-.71-1.03-1.255-.853a1.01 1.01 0 0 0-.349-.082c-10.265-.426-20.599-.107-30.873-.104-10.27.003-20.612-.332-30.873.145-1.15.053-1.152 1.735 0 1.788 10.26.477 20.603.142 30.873.145 10.177.003 20.414.314 30.584-.095-.084 4.3.005 8.602.256 12.895-22.666-.454-45.406-.157-68.077-.02.11-4.59.177-9.181.347-13.77.089-2.411.199-4.82.33-7.229.125-2.31-.202-4.559 1.92-5.956 1.869-1.231 3.911-2.257 5.917-3.245 1.673-.824 3.845-1.411 5.353-2.503 1.222-.885 1.308-2.214 1.48-3.615.274-2.228.417-4.468.426-6.713.009-2.035-.134-4.081.028-6.114.126-1.576.106-2.945 1.477-3.706 1.158-.642 2.624-.255 3.898-.186 4.598.247 9.2.408 13.804.483 9.38.154 18.759-.06 28.124-.605 1.333-.077 1.342-2.161 0-2.084-1.503.087-3.008.148-4.511.217.08-1.713.061-3.408-.069-5.12-.044-.576-.442-1.023-1.042-1.042-6.543-.207-13.092-.156-19.629.211-1.806.101-3.972.021-5.209 1.589-1.046 1.326-1.014 3.073-.783 4.676-2.2-.055-4.4-.125-6.598-.218-2.562-.109-5.338-.603-7.891-.394-3.283.269-3.535 3.968-3.688 6.641-.25 4.365 1.567 12.448-2.722 15.066-2.157 1.317-4.693 2.167-6.918 3.408-1.514.844-3.46 1.669-4.467 3.148-.799 1.173-.777 2.63-.861 3.996a355.82 355.82 0 0 0-.403 8.26c-.2 5.164-.327 10.335-.225 15.503.009.443.26.721.574.842a.926.926 0 0 0 .857.521c23.062.137 46.198.449 69.255-.029a.948.948 0 0 0 .574-.206c.454-.056.856-.366.823-.964a317.96 317.96 0 0 1-.457-14.681zm-35.825-43.334c.596-1.665 2.419-1.653 3.967-1.738 2.179-.12 4.359-.21 6.54-.266 4.031-.102 8.062-.076 12.092.036a41.66 41.66 0 0 1 .022 4.197c-7.584.312-15.175.399-22.765.249-.06-.829-.141-1.681.144-2.478zM802.133 395.049c0-1.05-7.351-1.05-9.451-1.05-.367 0-.063-.451.703-1.197-10.553-.105-28.321.042-29.056 2.247-.913 2.74.555 18.178-.428 22.159-8.015-.049-16.036.034-24.049.039-9.891.007-19.818-.22-29.704.087-1.23.038-1.232 1.873 0 1.911 9.887.307 19.813.08 29.704.087 4.067.003 8.136.026 12.206.043-.201.25-.33.533-.33.875 0 2.629-.731 13.3-.362 17.369-7.447.009-15 .096-22.25-.769-4.904-.585-5.8-4.244-9.839-6.163-2.834-1.347-5.776-1.318-8.724-.46-2.15.626-1.253 3.887.925 3.354 6.077-1.486 7.562 2.884 11.543 5.824 2.397 1.77 5.227 1.57 8.08 1.66 9.052.285 18.106.52 27.159.776.234 3.111.472 7.811-.231 7.811-.502 0-1.965.24-3.355.491-2.867-2.205-6.391-3.855-9.174-5.294-1.099-.568-2.074 1.085-.973 1.665 2.259 1.19 4.999 2.501 7.442 4.141l-.241.048s8.401 4.2 7.351 18.902c-1.05 14.701-12.601 22.052-14.701 22.052-1.575 0-8.464.41-11.835.609-1.134.073-1.869.115-1.869.115l.504 2.835s.42.01 1.145.042c4.337.147 19.553.746 20.456 1.649.842.842.334 17.205.099 23.659-11.521-.21-23.157-.525-34.553.369-2.34.184-2.345 3.458 0 3.642 14.54 1.142 29.474.309 44.056.246.755-.003 1.288-.342 1.615-.817 2.502-.238 5.494-.757 6.634-1.897 2.1-2.1-1.05-25.202-2.1-26.252-1.05-1.05-14.701-1.05-14.701-1.05s-1.05-2.1 2.1-3.15c3.15-1.05 21.002-10.501 18.901-24.152-2.1-13.651-8.401-18.902-8.401-18.902v-6.301s15.751-2.1 16.801-3.15c1.05-1.05 0-14.701 1.05-17.852 1.05-3.15 13.651-2.1 17.851-3.15 4.202-1.049.002-22.051.002-23.101z"
                class="color31303f svgShape"></path>
            <path fill="#31303f"
                d="M742.727 456.396c-3.702-2.46-8.491-.853-12.43.136-5.219 1.31-10.481 2.544-15.664 4.007-.011-6.15.181-12.283 1.041-18.381.083-.588-.389-1.391-1.105-1.105-1.995.796-1.488 5.322-1.62 6.992-.336 4.255-.457 8.534-.261 12.799.004.087.035.154.056.229-.133.039-.267.074-.4.113-1.111.332-.647 1.954.475 1.725.303-.062.605-.135.907-.2 2.62-.167 5.297.85 6.457 3.374 1.245 2.71-.021 5.972-2.73 7.142-1.018.439-.354 2.151.656 1.921a.99.99 0 0 0 .996.464c4.149-.593 8.291-1.07 12.485-1.162 2.975-.065 6.021.32 9.01.272.146.484.583.848 1.202.623 8.46-3.075 7.74-14.421.925-18.949zM778.506 380.873c-1.05 0-27.302 2.1-27.302 0s-1.05-4.2-1.05-4.2l-75.302-.861.745 2.961s-7.351-1.05-11.551 0c-3.948.987.462 13.137.998 14.565l1.103.137 2.365.03c-.485-2.148-.909-4.464.25-6.383 1.36-2.253 4.761-3.129 7.19-2.416 2.808.826 4.035 3.343 4.724 6.136-.465.081-.899.486-.779 1.087a225.2 225.2 0 0 1 1.423 7.779c.16.975.317 1.952.468 2.928.101.651.198 1.303.293 1.955-.222.972-.785 1.384-1.69 1.237-1.102.368-2.613.284-3.772.409-1.469.159-1.947.572-2.929-1.03-1.277-2.084-1.944-4.903-2.847-7.18-.486-1.227-2.494-.693-2.001.552l2.31 5.835c.427 1.078.767 2.691 1.67 3.515.869.794 1.742.601 2.854.492 1.887-.186 3.773-.4 5.658-.611 2.634-.296 3.11-1.202 2.715-3.761-.538-3.484-1.208-6.944-1.952-10.389 23.344.245 64.159.564 64.908-.185 1.05-1.05-1.05-5.25 1.05-5.25s30.452 2.1 31.503 0c1.048-2.102-.002-7.352-1.052-7.352z"
                class="color31303f svgShape"></path>
            <path fill="#31303f"
                d="M675.637 391.459a.827.827 0 0 0-.412-.522c.051-.832-.486-1.681-1.408-1.789a1.697 1.697 0 0 0-1.903 1.622.776.776 0 0 0 .004.46 1.897 1.897 0 0 0 1.304 1.193c.147.176.342.322.603.421.928.349 2.089-.282 1.812-1.385zM755.084 407.19c-1.091-1.732-4.301-2.132-6.066-2.569-1.776-.439-1.346-1.394-1.685-3.035-.238-1.155-.598-2.291-1.249-3.285-1.057-1.613-2.805-2.669-4.638-3.164-3.394-.919-8.736-.157-10.349 3.46-.374.839-.43 1.682-.3 2.505a949.023 949.023 0 0 0-43.115.079c-1.219.03-1.221 1.865 0 1.895 14.532.354 29.185.388 43.718.07.028-.001.047-.014.073-.016.139.281.285.558.445.827 1.856 3.12 3.261 5.789 2.475 9.556-.244 1.171 1.524 1.676 1.804.497.882-3.718.118-6.92-1.885-10.117-.469-.748-1.062-1.546-1.337-2.391-.684-2.105.956-3.51 2.744-4.156 1.726-.624 3.753-.673 5.498-.113 2.434.782 3.562 2.491 4.099 4.908.255 1.15.035 2.92.987 3.824 1.082 1.027 3.528.911 4.937 1.402 2.051.714 2.178 1.323 2.152 3.287-.011.821-.046 1.64-.089 2.459l-11.637.013c-1.341.001-1.343 2.085 0 2.084l12.625-.011c.59 0 1.008-.479 1.043-1.043.121-1.946.852-5.218-.25-6.966z"
                class="color31303f svgShape"></path>
            <path fill="#31303f"
                d="M740.405 400.992c-.184-.882-.945-1.633-1.867-1.675a1.975 1.975 0 0 0-.76.121.907.907 0 0 0-.463.126c-.43.254-.695.667-.789 1.122-.016.046-.037.089-.049.137-.24.936.363 1.87 1.255 2.167.12.04.241.064.361.079.282.108.57.184.85.179 1.141-.021 1.667-1.274 1.462-2.256z"
                class="color31303f svgShape"></path>
            <path fill="#59576d"
                d="M867.102 258.508c.005-2.46-3.808-2.463-3.823 0-.108 18.049-.392 36.107-.225 54.155.023 2.472 3.797 2.473 3.839 0 .311-18.047.172-36.106.209-54.155zM865.862 318.61c-.984.044-1.838.804-1.829 1.829.008.9.118 1.769.239 2.66.092.679.94 1.24 1.59 1.211.658-.03 1.491-.484 1.59-1.211.121-.891.232-1.76.24-2.66.007-.957-.848-1.873-1.83-1.829zM811.271 304.285c-8.849 6.032-12.139 16.372-12.133 26.718.002 2.373 3.326 2.235 3.593 0 1.062-8.892 2.614-17.929 10.452-23.445 1.974-1.389.118-4.657-1.912-3.273zM749.693 263.026c-3.244-3.814-8.78-4.711-13.466-5.683-5.974-1.239-12.059-1.892-18.117-2.557-2.345-.257-2.307 3.385 0 3.659 10.212 1.211 20.436 2.385 29.784 6.914a1.492 1.492 0 0 0 1.799-2.333zM745.235 324.125c-4.58 3.116-6.345 4.101-7.17 9.698-.979 6.637-1.21 13.511-.021 20.133.363 2.022 3.665 1.553 3.578-.484-.204-4.73-.567-9.378-.26-14.115.136-2.099.133-5.671.843-7.515.882-2.293 2.956-3.253 4.853-4.6 1.868-1.328.115-4.435-1.823-3.117zM746.72 498.325c-6.817-.654-13.717-.563-20.552-1.107-2.326-.185-2.288 3.393 0 3.61 6.771.642 13.747 1.478 20.552 1.107 2.349-.128 2.293-3.39 0-3.61zM645.295 312.727c-3.686-.504-7.378-.947-11.086-1.253-2.756-.227-6.812-1.232-9.46-.032-4.643 2.103-4.159 11.434-4.612 15.558-.254 2.315 3.297 2.246 3.593 0 .37-2.803.801-5.604 1.386-8.372.628-2.973.776-3.203 3.804-3.441 4.858-.383 10.473.867 15.272 1.543 2.617.368 3.738-3.644 1.103-4.003zM634.581 232.338c-.424-.436-.885-.808-1.358-1.19-.693-.559-1.744-.729-2.413 0-.584.637-.725 1.795 0 2.413.572.488 1.135.963 1.763 1.379.689.457 1.661.191 2.138-.427a1.66 1.66 0 0 0-.13-2.175zM654.994 248.853c-3.897-2.593-7.833-5.118-11.599-7.902-1.914-1.414-3.706 1.765-1.855 3.174 3.729 2.837 7.548 5.542 11.665 7.789 2.017 1.1 3.68-1.803 1.789-3.061z"
                class="color59576d svgShape"></path>
            <path fill="#4a3333"
                d="M335.831 510.305c-10.879-6.529-23.968-16.153-19.631-30.722.68-2.283-2.87-3.251-3.56-.981-4.821 15.862 8.427 28.416 21.534 34.537 1.886.88 3.499-1.729 1.657-2.834z"
                class="color4a3333 svgShape"></path>
        </svg>
    </g>
</svg>